%TF.GenerationSoftware,KiCad,Pcbnew,8.0.1*%
%TF.CreationDate,2024-04-23T05:18:21-03:00*%
%TF.ProjectId,pico-msxcart,7069636f-2d6d-4737-9863-6172742e6b69,rev?*%
%TF.SameCoordinates,Original*%
%TF.FileFunction,Profile,NP*%
%FSLAX46Y46*%
G04 Gerber Fmt 4.6, Leading zero omitted, Abs format (unit mm)*
G04 Created by KiCad (PCBNEW 8.0.1) date 2024-04-23 05:18:21*
%MOMM*%
%LPD*%
G01*
G04 APERTURE LIST*
%TA.AperFunction,Profile*%
%ADD10C,0.050000*%
%TD*%
G04 APERTURE END LIST*
D10*
X90106000Y-65907200D02*
X133656748Y-65936549D01*
X135286909Y-65937919D02*
X135280400Y-71628000D01*
X143205200Y-71628000D02*
X143205200Y-65989200D01*
X190116000Y-65907200D02*
X143205200Y-65989200D01*
X135280400Y-71628000D02*
X143205200Y-71628000D01*
X133656748Y-65936549D02*
X135286909Y-65937919D01*
%TO.C,J1*%
X90110400Y-107426200D02*
X90106000Y-65907200D01*
X100616000Y-107426200D02*
X90110400Y-107426200D01*
X100616000Y-118777200D02*
X100616000Y-107426200D01*
X113316000Y-118777200D02*
X100616000Y-118777200D01*
X113326000Y-130687200D02*
X113316000Y-118777200D01*
X178096000Y-118777200D02*
X178096000Y-130687200D01*
X178096000Y-130687200D02*
X113326000Y-130687200D01*
X190116000Y-65907200D02*
X190116000Y-118777200D01*
X190116000Y-118777200D02*
X178096000Y-118777200D01*
X101195284Y-97577200D02*
G75*
G02*
X94496716Y-97577200I-3349284J0D01*
G01*
X94496716Y-97577200D02*
G75*
G02*
X101195284Y-97577200I3349284J0D01*
G01*
X120240456Y-109277200D02*
G75*
G02*
X114491544Y-109277200I-2874456J0D01*
G01*
X114491544Y-109277200D02*
G75*
G02*
X120240456Y-109277200I2874456J0D01*
G01*
X176438716Y-114077200D02*
G75*
G02*
X170693284Y-114077200I-2872716J0D01*
G01*
X170693284Y-114077200D02*
G75*
G02*
X176438716Y-114077200I2872716J0D01*
G01*
X186656000Y-97527200D02*
G75*
G02*
X179957432Y-97527200I-3349284J0D01*
G01*
X179957432Y-97527200D02*
G75*
G02*
X186656000Y-97527200I3349284J0D01*
G01*
%TD*%
M02*
