%TF.GenerationSoftware,KiCad,Pcbnew,8.0.1*%
%TF.CreationDate,2024-04-22T15:40:42-03:00*%
%TF.ProjectId,pico-msxcart,7069636f-2d6d-4737-9863-6172742e6b69,rev?*%
%TF.SameCoordinates,Original*%
%TF.FileFunction,Soldermask,Top*%
%TF.FilePolarity,Negative*%
%FSLAX46Y46*%
G04 Gerber Fmt 4.6, Leading zero omitted, Abs format (unit mm)*
G04 Created by KiCad (PCBNEW 8.0.1) date 2024-04-22 15:40:42*
%MOMM*%
%LPD*%
G01*
G04 APERTURE LIST*
G04 Aperture macros list*
%AMRoundRect*
0 Rectangle with rounded corners*
0 $1 Rounding radius*
0 $2 $3 $4 $5 $6 $7 $8 $9 X,Y pos of 4 corners*
0 Add a 4 corners polygon primitive as box body*
4,1,4,$2,$3,$4,$5,$6,$7,$8,$9,$2,$3,0*
0 Add four circle primitives for the rounded corners*
1,1,$1+$1,$2,$3*
1,1,$1+$1,$4,$5*
1,1,$1+$1,$6,$7*
1,1,$1+$1,$8,$9*
0 Add four rect primitives between the rounded corners*
20,1,$1+$1,$2,$3,$4,$5,0*
20,1,$1+$1,$4,$5,$6,$7,0*
20,1,$1+$1,$6,$7,$8,$9,0*
20,1,$1+$1,$8,$9,$2,$3,0*%
%AMFreePoly0*
4,1,28,0.178017,0.779942,0.347107,0.720775,0.498792,0.625465,0.625465,0.498792,0.720775,0.347107,0.779942,0.178017,0.800000,0.000000,0.779942,-0.178017,0.720775,-0.347107,0.625465,-0.498792,0.498792,-0.625465,0.347107,-0.720775,0.178017,-0.779942,0.000000,-0.800000,-2.200000,-0.800000,-2.205014,-0.794986,-2.244504,-0.794986,-2.324698,-0.756366,-2.380194,-0.686777,-2.400000,-0.600000,
-2.400000,0.600000,-2.380194,0.686777,-2.324698,0.756366,-2.244504,0.794986,-2.205014,0.794986,-2.200000,0.800000,0.000000,0.800000,0.178017,0.779942,0.178017,0.779942,$1*%
%AMFreePoly1*
4,1,28,0.605014,0.794986,0.644504,0.794986,0.724698,0.756366,0.780194,0.686777,0.800000,0.600000,0.800000,-0.600000,0.780194,-0.686777,0.724698,-0.756366,0.644504,-0.794986,0.605014,-0.794986,0.600000,-0.800000,0.000000,-0.800000,-0.178017,-0.779942,-0.347107,-0.720775,-0.498792,-0.625465,-0.625465,-0.498792,-0.720775,-0.347107,-0.779942,-0.178017,-0.800000,0.000000,-0.779942,0.178017,
-0.720775,0.347107,-0.625465,0.498792,-0.498792,0.625465,-0.347107,0.720775,-0.178017,0.779942,0.000000,0.800000,0.600000,0.800000,0.605014,0.794986,0.605014,0.794986,$1*%
%AMFreePoly2*
4,1,29,0.605014,0.794986,0.644504,0.794986,0.724698,0.756366,0.780194,0.686777,0.800000,0.600000,0.800000,-0.600000,0.780194,-0.686777,0.724698,-0.756366,0.644504,-0.794986,0.605014,-0.794986,0.600000,-0.800000,0.000000,-0.800000,-1.600000,-0.800000,-1.778017,-0.779942,-1.947107,-0.720775,-2.098792,-0.625465,-2.225465,-0.498792,-2.320775,-0.347107,-2.379942,-0.178017,-2.400000,0.000000,
-2.379942,0.178017,-2.320775,0.347107,-2.225465,0.498792,-2.098792,0.625465,-1.947107,0.720775,-1.778017,0.779942,-1.600000,0.800000,0.600000,0.800000,0.605014,0.794986,0.605014,0.794986,$1*%
%AMFreePoly3*
4,1,28,0.178017,0.779942,0.347107,0.720775,0.498792,0.625465,0.625465,0.498792,0.720775,0.347107,0.779942,0.178017,0.800000,0.000000,0.779942,-0.178017,0.720775,-0.347107,0.625465,-0.498792,0.498792,-0.625465,0.347107,-0.720775,0.178017,-0.779942,0.000000,-0.800000,-0.600000,-0.800000,-0.605014,-0.794986,-0.644504,-0.794986,-0.724698,-0.756366,-0.780194,-0.686777,-0.800000,-0.600000,
-0.800000,0.600000,-0.780194,0.686777,-0.724698,0.756366,-0.644504,0.794986,-0.605014,0.794986,-0.600000,0.800000,0.000000,0.800000,0.178017,0.779942,0.178017,0.779942,$1*%
%AMFreePoly4*
4,1,29,1.778017,0.779942,1.947107,0.720775,2.098792,0.625465,2.225465,0.498792,2.320775,0.347107,2.379942,0.178017,2.400000,0.000000,2.379942,-0.178017,2.320775,-0.347107,2.225465,-0.498792,2.098792,-0.625465,1.947107,-0.720775,1.778017,-0.779942,1.600000,-0.800000,0.000000,-0.800000,-0.600000,-0.800000,-0.605014,-0.794986,-0.644504,-0.794986,-0.724698,-0.756366,-0.780194,-0.686777,
-0.800000,-0.600000,-0.800000,0.600000,-0.780194,0.686777,-0.724698,0.756366,-0.644504,0.794986,-0.605014,0.794986,-0.600000,0.800000,1.600000,0.800000,1.778017,0.779942,1.778017,0.779942,$1*%
G04 Aperture macros list end*
%ADD10C,4.064000*%
%ADD11RoundRect,0.480060X0.205740X-4.015740X0.205740X4.015740X-0.205740X4.015740X-0.205740X-4.015740X0*%
%ADD12RoundRect,0.480060X-0.205740X4.015740X-0.205740X-4.015740X0.205740X-4.015740X0.205740X4.015740X0*%
%ADD13RoundRect,0.102000X0.714000X0.714000X-0.714000X0.714000X-0.714000X-0.714000X0.714000X-0.714000X0*%
%ADD14C,1.632000*%
%ADD15C,3.520000*%
%ADD16R,0.810000X0.860000*%
%ADD17RoundRect,0.102000X-0.780000X-0.205000X0.780000X-0.205000X0.780000X0.205000X-0.780000X0.205000X0*%
%ADD18RoundRect,0.102000X-0.205000X0.780000X-0.205000X-0.780000X0.205000X-0.780000X0.205000X0.780000X0*%
%ADD19R,0.980000X2.470000*%
%ADD20R,3.600000X2.470000*%
%ADD21R,2.800000X1.100000*%
%ADD22R,1.400000X1.200000*%
%ADD23C,1.850000*%
%ADD24RoundRect,0.200000X-0.600000X-0.600000X0.600000X-0.600000X0.600000X0.600000X-0.600000X0.600000X0*%
%ADD25FreePoly0,0.000000*%
%ADD26C,1.600000*%
%ADD27RoundRect,0.800000X-0.800000X-0.000010X0.800000X-0.000010X0.800000X0.000010X-0.800000X0.000010X0*%
%ADD28FreePoly1,0.000000*%
%ADD29FreePoly2,0.000000*%
%ADD30FreePoly3,0.000000*%
%ADD31FreePoly4,0.000000*%
%ADD32RoundRect,0.102000X0.780000X0.205000X-0.780000X0.205000X-0.780000X-0.205000X0.780000X-0.205000X0*%
%ADD33O,2.284000X1.244000*%
G04 APERTURE END LIST*
D10*
%TO.C,J1*%
X119157750Y-103219250D03*
X174561500Y-108140500D03*
D11*
X176784000Y-123698000D03*
X174244000Y-123698000D03*
X171704000Y-123698000D03*
X169164000Y-123698000D03*
X166624000Y-123698000D03*
X164084000Y-123698000D03*
X161544000Y-123698000D03*
X159004000Y-123698000D03*
D12*
X156464000Y-123698000D03*
X153924000Y-123698000D03*
X151384000Y-123698000D03*
X148844000Y-123698000D03*
X146304000Y-123698000D03*
X143764000Y-123698000D03*
X141224000Y-123698000D03*
X138684000Y-123698000D03*
X136144000Y-123698000D03*
X133604000Y-123698000D03*
D11*
X131064000Y-123698000D03*
X128524000Y-123698000D03*
X125984000Y-123698000D03*
X123444000Y-123698000D03*
X120904000Y-123698000D03*
X118364000Y-123698000D03*
X115824000Y-123698000D03*
%TD*%
D13*
%TO.C,J2*%
X117580000Y-79316400D03*
D14*
X115080000Y-79316400D03*
X113080000Y-79316400D03*
X110580000Y-79316400D03*
D15*
X120650000Y-76606400D03*
X107510000Y-76606400D03*
%TD*%
D16*
%TO.C,R1*%
X171265000Y-72164800D03*
X172765000Y-72164800D03*
%TD*%
D17*
%TO.C,U6*%
X161340800Y-69545200D03*
X161340800Y-70195200D03*
X161340800Y-70845200D03*
X161340800Y-71495200D03*
X161340800Y-72145200D03*
X161340800Y-72795200D03*
X161340800Y-73445200D03*
X161340800Y-74095200D03*
X161340800Y-74745200D03*
X161340800Y-75395200D03*
X167100800Y-75395200D03*
X167100800Y-74745200D03*
X167100800Y-74095200D03*
X167100800Y-73445200D03*
X167100800Y-72795200D03*
X167100800Y-72145200D03*
X167100800Y-71495200D03*
X167100800Y-70845200D03*
X167100800Y-70195200D03*
X167100800Y-69545200D03*
%TD*%
D18*
%TO.C,U4*%
X112727200Y-85167200D03*
X112077200Y-85167200D03*
X111427200Y-85167200D03*
X110777200Y-85167200D03*
X110127200Y-85167200D03*
X109477200Y-85167200D03*
X108827200Y-85167200D03*
X108177200Y-85167200D03*
X107527200Y-85167200D03*
X106877200Y-85167200D03*
X106877200Y-90927200D03*
X107527200Y-90927200D03*
X108177200Y-90927200D03*
X108827200Y-90927200D03*
X109477200Y-90927200D03*
X110127200Y-90927200D03*
X110777200Y-90927200D03*
X111427200Y-90927200D03*
X112077200Y-90927200D03*
X112727200Y-90927200D03*
%TD*%
D19*
%TO.C,U10*%
X110018000Y-102297200D03*
X107718000Y-102297200D03*
X105418000Y-102297200D03*
D20*
X107718000Y-107957200D03*
%TD*%
D17*
%TO.C,U5*%
X161372000Y-94876500D03*
X161372000Y-95526500D03*
X161372000Y-96176500D03*
X161372000Y-96826500D03*
X161372000Y-97476500D03*
X161372000Y-98126500D03*
X161372000Y-98776500D03*
X161372000Y-99426500D03*
X161372000Y-100076500D03*
X161372000Y-100726500D03*
X167132000Y-100726500D03*
X167132000Y-100076500D03*
X167132000Y-99426500D03*
X167132000Y-98776500D03*
X167132000Y-98126500D03*
X167132000Y-97476500D03*
X167132000Y-96826500D03*
X167132000Y-96176500D03*
X167132000Y-95526500D03*
X167132000Y-94876500D03*
%TD*%
D21*
%TO.C,C2*%
X104528400Y-97637600D03*
X107848400Y-97637600D03*
%TD*%
D22*
%TO.C,D1*%
X118567200Y-111126800D03*
X118567200Y-114526800D03*
%TD*%
D21*
%TO.C,C1*%
X112199200Y-97637600D03*
X115519200Y-97637600D03*
%TD*%
D23*
%TO.C,U1*%
X136817780Y-70622423D03*
X141667780Y-70622423D03*
D24*
X130352780Y-67462423D03*
D25*
X130352780Y-67462423D03*
D26*
X130352780Y-70002423D03*
D27*
X129552780Y-70002423D03*
D28*
X130352780Y-72542423D03*
D29*
X130352780Y-72542423D03*
D26*
X130352780Y-75082423D03*
D27*
X129552780Y-75082423D03*
D26*
X130352780Y-77622423D03*
D27*
X129552780Y-77622423D03*
D26*
X130352780Y-80162423D03*
D27*
X129552780Y-80162423D03*
D26*
X130352780Y-82702423D03*
D27*
X129552780Y-82702423D03*
D28*
X130352780Y-85242423D03*
D29*
X130352780Y-85242423D03*
D26*
X130352780Y-87782423D03*
D27*
X129552780Y-87782423D03*
D26*
X130352780Y-90322423D03*
D27*
X129552780Y-90322423D03*
D26*
X130352780Y-92862423D03*
D27*
X129552780Y-92862423D03*
D26*
X130352780Y-95402423D03*
D27*
X129552780Y-95402423D03*
D28*
X130352780Y-97942423D03*
D29*
X130352780Y-97942423D03*
D26*
X130352780Y-100482423D03*
D27*
X129552780Y-100482423D03*
D26*
X130352780Y-103022423D03*
D27*
X129552780Y-103022423D03*
D26*
X130352780Y-105562423D03*
D27*
X129552780Y-105562423D03*
D26*
X130352780Y-108102423D03*
D27*
X129552780Y-108102423D03*
D28*
X130352780Y-110642423D03*
D29*
X130352780Y-110642423D03*
D26*
X130352780Y-113182423D03*
D27*
X129552780Y-113182423D03*
D26*
X130352780Y-115722423D03*
D27*
X129552780Y-115722423D03*
D26*
X148132780Y-115722423D03*
D27*
X148932780Y-115722423D03*
D26*
X148132780Y-113182423D03*
D27*
X148932780Y-113182423D03*
D30*
X148132780Y-110642423D03*
D31*
X148132780Y-110642423D03*
D26*
X148132780Y-108102423D03*
D27*
X148932780Y-108102423D03*
D26*
X148132780Y-105562423D03*
D27*
X148932780Y-105562423D03*
D26*
X148132780Y-103022423D03*
D27*
X148932780Y-103022423D03*
D26*
X148132780Y-100482423D03*
D27*
X148932780Y-100482423D03*
D30*
X148132780Y-97942423D03*
D31*
X148132780Y-97942423D03*
D26*
X148132780Y-95402423D03*
D27*
X148932780Y-95402423D03*
D26*
X148132780Y-92862423D03*
D27*
X148932780Y-92862423D03*
D26*
X148132780Y-90322423D03*
D27*
X148932780Y-90322423D03*
D26*
X148132780Y-87782423D03*
D27*
X148932780Y-87782423D03*
D30*
X148132780Y-85242423D03*
D31*
X148132780Y-85242423D03*
D26*
X148132780Y-82702423D03*
D27*
X148932780Y-82702423D03*
D26*
X148132780Y-80162423D03*
D27*
X148932780Y-80162423D03*
D26*
X148132780Y-77622423D03*
D27*
X148932780Y-77622423D03*
D26*
X148132780Y-75082423D03*
D27*
X148932780Y-75082423D03*
D30*
X148132780Y-72542423D03*
D31*
X148132780Y-72542423D03*
D26*
X148132780Y-70002423D03*
D27*
X148932780Y-70002423D03*
D26*
X148132780Y-67462423D03*
D27*
X148932780Y-67462423D03*
%TD*%
D32*
%TO.C,U2*%
X167151600Y-88004900D03*
X167151600Y-87354900D03*
X167151600Y-86704900D03*
X167151600Y-86054900D03*
X167151600Y-85404900D03*
X167151600Y-84754900D03*
X167151600Y-84104900D03*
X167151600Y-83454900D03*
X167151600Y-82804900D03*
X167151600Y-82154900D03*
X161391600Y-82154900D03*
X161391600Y-82804900D03*
X161391600Y-83454900D03*
X161391600Y-84104900D03*
X161391600Y-84754900D03*
X161391600Y-85404900D03*
X161391600Y-86054900D03*
X161391600Y-86704900D03*
X161391600Y-87354900D03*
X161391600Y-88004900D03*
%TD*%
%TO.C,U3*%
X166807000Y-113336200D03*
X166807000Y-112686200D03*
X166807000Y-112036200D03*
X166807000Y-111386200D03*
X166807000Y-110736200D03*
X166807000Y-110086200D03*
X166807000Y-109436200D03*
X166807000Y-108786200D03*
X166807000Y-108136200D03*
X166807000Y-107486200D03*
X161047000Y-107486200D03*
X161047000Y-108136200D03*
X161047000Y-108786200D03*
X161047000Y-109436200D03*
X161047000Y-110086200D03*
X161047000Y-110736200D03*
X161047000Y-111386200D03*
X161047000Y-112036200D03*
X161047000Y-112686200D03*
X161047000Y-113336200D03*
%TD*%
D16*
%TO.C,R2*%
X165119600Y-67948400D03*
X163619600Y-67948400D03*
%TD*%
D33*
%TO.C,Q1*%
X175964000Y-73434800D03*
X175964000Y-72164800D03*
X175964000Y-70894800D03*
%TD*%
M02*
