M48
; DRILL file {KiCad 8.0.1} date 2024-04-22T15:40:20-0300
; FORMAT={-:-/ absolute / inch / decimal}
; #@! TF.CreationDate,2024-04-22T15:40:20-03:00
; #@! TF.GenerationSoftware,Kicad,Pcbnew,8.0.1
; #@! TF.FileFunction,Plated,1,2,PTH
FMAT,2
INCH
; #@! TA.AperFunction,Plated,PTH,ViaDrill
T1C0.0118
; #@! TA.AperFunction,Plated,PTH,ComponentDrill
T2C0.0331
; #@! TA.AperFunction,Plated,PTH,ComponentDrill
T3C0.0362
; #@! TA.AperFunction,Plated,PTH,ComponentDrill
T4C0.0394
; #@! TA.AperFunction,Plated,PTH,ComponentDrill
T5C0.0906
%
G90
G05
T1
X4.1956Y-4.0723
X4.2249Y-3.4534
X4.2384Y-3.4036
X4.2845Y-3.4272
X4.3135Y-3.443
X4.3377Y-3.4068
X4.3822Y-3.3015
X4.3995Y-3.4372
X4.4125Y-3.404
X4.4734Y-3.3956
X4.668Y-4.5527
X4.912Y-4.668
X4.9679Y-3.8126
X4.9956Y-4.246
X4.9973Y-4.6561
X5.0904Y-4.6476
X5.26Y-4.666
X5.2708Y-4.5179
X5.33Y-4.666
X5.372Y-3.9304
X5.3817Y-4.2998
X5.4024Y-3.9729
X5.4129Y-3.6307
X5.422Y-4.478
X5.6203Y-4.6733
X5.6272Y-4.2108
X5.6631Y-4.157
X5.6836Y-4.638
X5.7196Y-4.6355
X5.9428Y-4.6141
X5.944Y-4.1085
X5.9875Y-4.4682
X5.9948Y-4.0283
X6.0056Y-3.0642
X6.0376Y-4.078
X6.0403Y-3.1956
X6.0752Y-4.2194
X6.0997Y-4.6256
X6.1358Y-2.9302
X6.1362Y-4.4017
X6.1455Y-4.4518
X6.15Y-2.8684
X6.1798Y-3.3426
X6.2081Y-3.8646
X6.2143Y-4.0581
X6.228Y-3.5723
X6.2476Y-2.8285
X6.2688Y-2.8051
X6.2814Y-4.2573
X6.286Y-3.7844
X6.3022Y-3.8134
X6.3022Y-3.9224
X6.3024Y-3.8632
X6.3135Y-3.6214
X6.32Y-4.5399
X6.3498Y-3.5226
X6.3871Y-3.5971
X6.3972Y-3.5405
X6.4042Y-3.9375
X6.4042Y-3.7293
X6.4043Y-3.7865
X6.4046Y-2.8912
X6.4047Y-3.8473
X6.4054Y-3.8888
X6.4072Y-4.3382
X6.4102Y-4.5716
X6.4245Y-4.3041
X6.425Y-2.8155
X6.4256Y-4.3993
X6.4257Y-4.3654
X6.4257Y-4.4909
X6.4257Y-4.4326
X6.4274Y-3.4294
X6.4302Y-3.548
X6.4358Y-2.9566
X6.451Y-4.6126
X6.454Y-3.7317
X6.4546Y-4.035
X6.46Y-4.656
X6.466Y-3.5804
X6.4763Y-3.3954
X6.4774Y-3.4579
X6.4798Y-2.8574
X6.4818Y-3.9952
X6.485Y-3.5
X6.4864Y-4.13
X6.4968Y-3.5325
X6.4982Y-3.9669
X6.5094Y-3.8569
X6.5103Y-2.8879
X6.5135Y-3.9354
X6.5142Y-4.1468
X6.5175Y-3.7232
X6.5189Y-3.388
X6.528Y-2.8163
X6.5282Y-2.9427
X6.5288Y-3.8121
X6.529Y-3.9056
X6.5383Y-3.6687
X6.5524Y-4.5896
X6.5622Y-4.6484
X6.5683Y-4.5242
X6.59Y-4.672
X6.6296Y-2.7975
X6.6313Y-3.2856
X6.6334Y-4.6784
X6.6559Y-4.3739
X6.6574Y-2.8404
X6.696Y-4.6132
X6.7147Y-2.874
X6.7464Y-4.2201
X6.8364Y-4.611
T2
X6.9277Y-2.7911
X6.9277Y-2.8411
X6.9277Y-2.8911
T3
X4.3535Y-3.1227
X4.452Y-3.1227
X4.5307Y-3.1227
X4.6291Y-3.1227
T4
X5.132Y-2.656
X5.132Y-2.756
X5.132Y-2.856
X5.132Y-2.956
X5.132Y-3.056
X5.132Y-3.156
X5.132Y-3.256
X5.132Y-3.356
X5.132Y-3.456
X5.132Y-3.556
X5.132Y-3.656
X5.132Y-3.756
X5.132Y-3.856
X5.132Y-3.956
X5.132Y-4.056
X5.132Y-4.156
X5.132Y-4.256
X5.132Y-4.356
X5.132Y-4.456
X5.132Y-4.556
X5.832Y-2.656
X5.832Y-2.756
X5.832Y-2.856
X5.832Y-2.956
X5.832Y-3.056
X5.832Y-3.156
X5.832Y-3.256
X5.832Y-3.356
X5.832Y-3.456
X5.832Y-3.556
X5.832Y-3.656
X5.832Y-3.756
X5.832Y-3.856
X5.832Y-3.956
X5.832Y-4.056
X5.832Y-4.156
X5.832Y-4.256
X5.832Y-4.356
X5.832Y-4.456
X5.832Y-4.556
T5
X4.2327Y-3.016
X4.75Y-3.016
M30
