%TF.GenerationSoftware,KiCad,Pcbnew,8.0.1*%
%TF.CreationDate,2024-04-23T05:18:20-03:00*%
%TF.ProjectId,pico-msxcart,7069636f-2d6d-4737-9863-6172742e6b69,rev?*%
%TF.SameCoordinates,Original*%
%TF.FileFunction,Soldermask,Top*%
%TF.FilePolarity,Negative*%
%FSLAX46Y46*%
G04 Gerber Fmt 4.6, Leading zero omitted, Abs format (unit mm)*
G04 Created by KiCad (PCBNEW 8.0.1) date 2024-04-23 05:18:20*
%MOMM*%
%LPD*%
G01*
G04 APERTURE LIST*
G04 Aperture macros list*
%AMRoundRect*
0 Rectangle with rounded corners*
0 $1 Rounding radius*
0 $2 $3 $4 $5 $6 $7 $8 $9 X,Y pos of 4 corners*
0 Add a 4 corners polygon primitive as box body*
4,1,4,$2,$3,$4,$5,$6,$7,$8,$9,$2,$3,0*
0 Add four circle primitives for the rounded corners*
1,1,$1+$1,$2,$3*
1,1,$1+$1,$4,$5*
1,1,$1+$1,$6,$7*
1,1,$1+$1,$8,$9*
0 Add four rect primitives between the rounded corners*
20,1,$1+$1,$2,$3,$4,$5,0*
20,1,$1+$1,$4,$5,$6,$7,0*
20,1,$1+$1,$6,$7,$8,$9,0*
20,1,$1+$1,$8,$9,$2,$3,0*%
%AMFreePoly0*
4,1,28,0.178017,0.779942,0.347107,0.720775,0.498792,0.625465,0.625465,0.498792,0.720775,0.347107,0.779942,0.178017,0.800000,0.000000,0.779942,-0.178017,0.720775,-0.347107,0.625465,-0.498792,0.498792,-0.625465,0.347107,-0.720775,0.178017,-0.779942,0.000000,-0.800000,-2.200000,-0.800000,-2.205014,-0.794986,-2.244504,-0.794986,-2.324698,-0.756366,-2.380194,-0.686777,-2.400000,-0.600000,
-2.400000,0.600000,-2.380194,0.686777,-2.324698,0.756366,-2.244504,0.794986,-2.205014,0.794986,-2.200000,0.800000,0.000000,0.800000,0.178017,0.779942,0.178017,0.779942,$1*%
%AMFreePoly1*
4,1,28,0.605014,0.794986,0.644504,0.794986,0.724698,0.756366,0.780194,0.686777,0.800000,0.600000,0.800000,-0.600000,0.780194,-0.686777,0.724698,-0.756366,0.644504,-0.794986,0.605014,-0.794986,0.600000,-0.800000,0.000000,-0.800000,-0.178017,-0.779942,-0.347107,-0.720775,-0.498792,-0.625465,-0.625465,-0.498792,-0.720775,-0.347107,-0.779942,-0.178017,-0.800000,0.000000,-0.779942,0.178017,
-0.720775,0.347107,-0.625465,0.498792,-0.498792,0.625465,-0.347107,0.720775,-0.178017,0.779942,0.000000,0.800000,0.600000,0.800000,0.605014,0.794986,0.605014,0.794986,$1*%
%AMFreePoly2*
4,1,29,0.605014,0.794986,0.644504,0.794986,0.724698,0.756366,0.780194,0.686777,0.800000,0.600000,0.800000,-0.600000,0.780194,-0.686777,0.724698,-0.756366,0.644504,-0.794986,0.605014,-0.794986,0.600000,-0.800000,0.000000,-0.800000,-1.600000,-0.800000,-1.778017,-0.779942,-1.947107,-0.720775,-2.098792,-0.625465,-2.225465,-0.498792,-2.320775,-0.347107,-2.379942,-0.178017,-2.400000,0.000000,
-2.379942,0.178017,-2.320775,0.347107,-2.225465,0.498792,-2.098792,0.625465,-1.947107,0.720775,-1.778017,0.779942,-1.600000,0.800000,0.600000,0.800000,0.605014,0.794986,0.605014,0.794986,$1*%
%AMFreePoly3*
4,1,28,0.178017,0.779942,0.347107,0.720775,0.498792,0.625465,0.625465,0.498792,0.720775,0.347107,0.779942,0.178017,0.800000,0.000000,0.779942,-0.178017,0.720775,-0.347107,0.625465,-0.498792,0.498792,-0.625465,0.347107,-0.720775,0.178017,-0.779942,0.000000,-0.800000,-0.600000,-0.800000,-0.605014,-0.794986,-0.644504,-0.794986,-0.724698,-0.756366,-0.780194,-0.686777,-0.800000,-0.600000,
-0.800000,0.600000,-0.780194,0.686777,-0.724698,0.756366,-0.644504,0.794986,-0.605014,0.794986,-0.600000,0.800000,0.000000,0.800000,0.178017,0.779942,0.178017,0.779942,$1*%
%AMFreePoly4*
4,1,29,1.778017,0.779942,1.947107,0.720775,2.098792,0.625465,2.225465,0.498792,2.320775,0.347107,2.379942,0.178017,2.400000,0.000000,2.379942,-0.178017,2.320775,-0.347107,2.225465,-0.498792,2.098792,-0.625465,1.947107,-0.720775,1.778017,-0.779942,1.600000,-0.800000,0.000000,-0.800000,-0.600000,-0.800000,-0.605014,-0.794986,-0.644504,-0.794986,-0.724698,-0.756366,-0.780194,-0.686777,
-0.800000,-0.600000,-0.800000,0.600000,-0.780194,0.686777,-0.724698,0.756366,-0.644504,0.794986,-0.605014,0.794986,-0.600000,0.800000,1.600000,0.800000,1.778017,0.779942,1.778017,0.779942,$1*%
G04 Aperture macros list end*
%ADD10RoundRect,0.102000X0.714000X0.714000X-0.714000X0.714000X-0.714000X-0.714000X0.714000X-0.714000X0*%
%ADD11C,1.632000*%
%ADD12C,3.520000*%
%ADD13R,0.810000X0.860000*%
%ADD14O,0.590000X1.970000*%
%ADD15RoundRect,0.102000X-0.780000X-0.205000X0.780000X-0.205000X0.780000X0.205000X-0.780000X0.205000X0*%
%ADD16R,0.980000X2.470000*%
%ADD17R,3.600000X2.470000*%
%ADD18R,2.800000X1.100000*%
%ADD19C,1.320800*%
%ADD20RoundRect,0.152400X-0.749300X-4.064000X0.749300X-4.064000X0.749300X4.064000X-0.749300X4.064000X0*%
%ADD21RoundRect,0.152400X-0.749300X-3.568700X0.749300X-3.568700X0.749300X3.568700X-0.749300X3.568700X0*%
%ADD22C,1.850000*%
%ADD23RoundRect,0.200000X-0.600000X-0.600000X0.600000X-0.600000X0.600000X0.600000X-0.600000X0.600000X0*%
%ADD24FreePoly0,0.000000*%
%ADD25C,1.600000*%
%ADD26RoundRect,0.800000X-0.800000X-0.000010X0.800000X-0.000010X0.800000X0.000010X-0.800000X0.000010X0*%
%ADD27FreePoly1,0.000000*%
%ADD28FreePoly2,0.000000*%
%ADD29FreePoly3,0.000000*%
%ADD30FreePoly4,0.000000*%
%ADD31O,2.284000X1.244000*%
G04 APERTURE END LIST*
D10*
%TO.C,J2*%
X117580000Y-79316400D03*
D11*
X115080000Y-79316400D03*
X113080000Y-79316400D03*
X110580000Y-79316400D03*
D12*
X120650000Y-76606400D03*
X107510000Y-76606400D03*
%TD*%
D13*
%TO.C,R1*%
X171265000Y-72164800D03*
X172765000Y-72164800D03*
%TD*%
D14*
%TO.C,U7*%
X175260000Y-89725000D03*
X176530000Y-89725000D03*
X177800000Y-89725000D03*
X179070000Y-89725000D03*
X180340000Y-89725000D03*
X181610000Y-89725000D03*
X182880000Y-89725000D03*
X182880000Y-84265000D03*
X181610000Y-84265000D03*
X180340000Y-84265000D03*
X179070000Y-84265000D03*
X177800000Y-84265000D03*
X176530000Y-84265000D03*
X175260000Y-84265000D03*
%TD*%
D15*
%TO.C,U4*%
X161545000Y-82884700D03*
X161545000Y-83534700D03*
X161545000Y-84184700D03*
X161545000Y-84834700D03*
X161545000Y-85484700D03*
X161545000Y-86134700D03*
X161545000Y-86784700D03*
X161545000Y-87434700D03*
X161545000Y-88084700D03*
X161545000Y-88734700D03*
X167305000Y-88734700D03*
X167305000Y-88084700D03*
X167305000Y-87434700D03*
X167305000Y-86784700D03*
X167305000Y-86134700D03*
X167305000Y-85484700D03*
X167305000Y-84834700D03*
X167305000Y-84184700D03*
X167305000Y-83534700D03*
X167305000Y-82884700D03*
%TD*%
D13*
%TO.C,R4*%
X151916000Y-75184000D03*
X153416000Y-75184000D03*
%TD*%
D16*
%TO.C,U10*%
X184277000Y-109347000D03*
X181977000Y-109347000D03*
X179677000Y-109347000D03*
D17*
X181977000Y-115007000D03*
%TD*%
D15*
%TO.C,U5*%
X161545000Y-69975000D03*
X161545000Y-70625000D03*
X161545000Y-71275000D03*
X161545000Y-71925000D03*
X161545000Y-72575000D03*
X161545000Y-73225000D03*
X161545000Y-73875000D03*
X161545000Y-74525000D03*
X161545000Y-75175000D03*
X161545000Y-75825000D03*
X167305000Y-75825000D03*
X167305000Y-75175000D03*
X167305000Y-74525000D03*
X167305000Y-73875000D03*
X167305000Y-73225000D03*
X167305000Y-72575000D03*
X167305000Y-71925000D03*
X167305000Y-71275000D03*
X167305000Y-70625000D03*
X167305000Y-69975000D03*
%TD*%
D18*
%TO.C,C2*%
X175759000Y-104687400D03*
X179079000Y-104687400D03*
%TD*%
D13*
%TO.C,R3*%
X151916000Y-92964000D03*
X153416000Y-92964000D03*
%TD*%
D19*
%TO.C,D1*%
X112649000Y-114566700D03*
X118999000Y-114541300D03*
%TD*%
D20*
%TO.C,J1*%
X176276000Y-125984000D03*
X173736000Y-125984000D03*
X171196000Y-125984000D03*
X168656000Y-125984000D03*
X166116000Y-125984000D03*
X163576000Y-125984000D03*
X161036000Y-125984000D03*
X158496000Y-125984000D03*
X155956000Y-125984000D03*
X153416000Y-125984000D03*
X150876000Y-125984000D03*
X148336000Y-125984000D03*
X145796000Y-125984000D03*
X143256000Y-125984000D03*
X140716000Y-125984000D03*
X138176000Y-125984000D03*
X135636000Y-125984000D03*
X133096000Y-125984000D03*
X130556000Y-125984000D03*
X128016000Y-125984000D03*
X125476000Y-125984000D03*
D21*
X122936000Y-125484000D03*
D20*
X120396000Y-125984000D03*
X117856000Y-125984000D03*
X115316000Y-125984000D03*
%TD*%
D18*
%TO.C,C1*%
X183429800Y-104687400D03*
X186749800Y-104687400D03*
%TD*%
D22*
%TO.C,U1*%
X136817780Y-70622423D03*
X141667780Y-70622423D03*
D23*
X130352780Y-67462423D03*
D24*
X130352780Y-67462423D03*
D25*
X130352780Y-70002423D03*
D26*
X129552780Y-70002423D03*
D27*
X130352780Y-72542423D03*
D28*
X130352780Y-72542423D03*
D25*
X130352780Y-75082423D03*
D26*
X129552780Y-75082423D03*
D25*
X130352780Y-77622423D03*
D26*
X129552780Y-77622423D03*
D25*
X130352780Y-80162423D03*
D26*
X129552780Y-80162423D03*
D25*
X130352780Y-82702423D03*
D26*
X129552780Y-82702423D03*
D27*
X130352780Y-85242423D03*
D28*
X130352780Y-85242423D03*
D25*
X130352780Y-87782423D03*
D26*
X129552780Y-87782423D03*
D25*
X130352780Y-90322423D03*
D26*
X129552780Y-90322423D03*
D25*
X130352780Y-92862423D03*
D26*
X129552780Y-92862423D03*
D25*
X130352780Y-95402423D03*
D26*
X129552780Y-95402423D03*
D27*
X130352780Y-97942423D03*
D28*
X130352780Y-97942423D03*
D25*
X130352780Y-100482423D03*
D26*
X129552780Y-100482423D03*
D25*
X130352780Y-103022423D03*
D26*
X129552780Y-103022423D03*
D25*
X130352780Y-105562423D03*
D26*
X129552780Y-105562423D03*
D25*
X130352780Y-108102423D03*
D26*
X129552780Y-108102423D03*
D27*
X130352780Y-110642423D03*
D28*
X130352780Y-110642423D03*
D25*
X130352780Y-113182423D03*
D26*
X129552780Y-113182423D03*
D25*
X130352780Y-115722423D03*
D26*
X129552780Y-115722423D03*
D25*
X148132780Y-115722423D03*
D26*
X148932780Y-115722423D03*
D25*
X148132780Y-113182423D03*
D26*
X148932780Y-113182423D03*
D29*
X148132780Y-110642423D03*
D30*
X148132780Y-110642423D03*
D25*
X148132780Y-108102423D03*
D26*
X148932780Y-108102423D03*
D25*
X148132780Y-105562423D03*
D26*
X148932780Y-105562423D03*
D25*
X148132780Y-103022423D03*
D26*
X148932780Y-103022423D03*
D25*
X148132780Y-100482423D03*
D26*
X148932780Y-100482423D03*
D29*
X148132780Y-97942423D03*
D30*
X148132780Y-97942423D03*
D25*
X148132780Y-95402423D03*
D26*
X148932780Y-95402423D03*
D25*
X148132780Y-92862423D03*
D26*
X148932780Y-92862423D03*
D25*
X148132780Y-90322423D03*
D26*
X148932780Y-90322423D03*
D25*
X148132780Y-87782423D03*
D26*
X148932780Y-87782423D03*
D29*
X148132780Y-85242423D03*
D30*
X148132780Y-85242423D03*
D25*
X148132780Y-82702423D03*
D26*
X148932780Y-82702423D03*
D25*
X148132780Y-80162423D03*
D26*
X148932780Y-80162423D03*
D25*
X148132780Y-77622423D03*
D26*
X148932780Y-77622423D03*
D25*
X148132780Y-75082423D03*
D26*
X148932780Y-75082423D03*
D29*
X148132780Y-72542423D03*
D30*
X148132780Y-72542423D03*
D25*
X148132780Y-70002423D03*
D26*
X148932780Y-70002423D03*
D25*
X148132780Y-67462423D03*
D26*
X148932780Y-67462423D03*
%TD*%
D15*
%TO.C,U2*%
X161545000Y-95794300D03*
X161545000Y-96444300D03*
X161545000Y-97094300D03*
X161545000Y-97744300D03*
X161545000Y-98394300D03*
X161545000Y-99044300D03*
X161545000Y-99694300D03*
X161545000Y-100344300D03*
X161545000Y-100994300D03*
X161545000Y-101644300D03*
X167305000Y-101644300D03*
X167305000Y-100994300D03*
X167305000Y-100344300D03*
X167305000Y-99694300D03*
X167305000Y-99044300D03*
X167305000Y-98394300D03*
X167305000Y-97744300D03*
X167305000Y-97094300D03*
X167305000Y-96444300D03*
X167305000Y-95794300D03*
%TD*%
%TO.C,U3*%
X161545000Y-108704000D03*
X161545000Y-109354000D03*
X161545000Y-110004000D03*
X161545000Y-110654000D03*
X161545000Y-111304000D03*
X161545000Y-111954000D03*
X161545000Y-112604000D03*
X161545000Y-113254000D03*
X161545000Y-113904000D03*
X161545000Y-114554000D03*
X167305000Y-114554000D03*
X167305000Y-113904000D03*
X167305000Y-113254000D03*
X167305000Y-112604000D03*
X167305000Y-111954000D03*
X167305000Y-111304000D03*
X167305000Y-110654000D03*
X167305000Y-110004000D03*
X167305000Y-109354000D03*
X167305000Y-108704000D03*
%TD*%
D13*
%TO.C,R2*%
X165119600Y-67948400D03*
X163619600Y-67948400D03*
%TD*%
D31*
%TO.C,Q1*%
X175964000Y-73434800D03*
X175964000Y-72164800D03*
X175964000Y-70894800D03*
%TD*%
M02*
