%TF.GenerationSoftware,KiCad,Pcbnew,8.0.1*%
%TF.CreationDate,2024-04-23T05:18:20-03:00*%
%TF.ProjectId,pico-msxcart,7069636f-2d6d-4737-9863-6172742e6b69,rev?*%
%TF.SameCoordinates,Original*%
%TF.FileFunction,Copper,L1,Top*%
%TF.FilePolarity,Positive*%
%FSLAX46Y46*%
G04 Gerber Fmt 4.6, Leading zero omitted, Abs format (unit mm)*
G04 Created by KiCad (PCBNEW 8.0.1) date 2024-04-23 05:18:20*
%MOMM*%
%LPD*%
G01*
G04 APERTURE LIST*
G04 Aperture macros list*
%AMRoundRect*
0 Rectangle with rounded corners*
0 $1 Rounding radius*
0 $2 $3 $4 $5 $6 $7 $8 $9 X,Y pos of 4 corners*
0 Add a 4 corners polygon primitive as box body*
4,1,4,$2,$3,$4,$5,$6,$7,$8,$9,$2,$3,0*
0 Add four circle primitives for the rounded corners*
1,1,$1+$1,$2,$3*
1,1,$1+$1,$4,$5*
1,1,$1+$1,$6,$7*
1,1,$1+$1,$8,$9*
0 Add four rect primitives between the rounded corners*
20,1,$1+$1,$2,$3,$4,$5,0*
20,1,$1+$1,$4,$5,$6,$7,0*
20,1,$1+$1,$6,$7,$8,$9,0*
20,1,$1+$1,$8,$9,$2,$3,0*%
%AMFreePoly0*
4,1,28,0.178017,0.779942,0.347107,0.720775,0.498792,0.625465,0.625465,0.498792,0.720775,0.347107,0.779942,0.178017,0.800000,0.000000,0.779942,-0.178017,0.720775,-0.347107,0.625465,-0.498792,0.498792,-0.625465,0.347107,-0.720775,0.178017,-0.779942,0.000000,-0.800000,-2.200000,-0.800000,-2.205014,-0.794986,-2.244504,-0.794986,-2.324698,-0.756366,-2.380194,-0.686777,-2.400000,-0.600000,
-2.400000,0.600000,-2.380194,0.686777,-2.324698,0.756366,-2.244504,0.794986,-2.205014,0.794986,-2.200000,0.800000,0.000000,0.800000,0.178017,0.779942,0.178017,0.779942,$1*%
%AMFreePoly1*
4,1,28,0.605014,0.794986,0.644504,0.794986,0.724698,0.756366,0.780194,0.686777,0.800000,0.600000,0.800000,-0.600000,0.780194,-0.686777,0.724698,-0.756366,0.644504,-0.794986,0.605014,-0.794986,0.600000,-0.800000,0.000000,-0.800000,-0.178017,-0.779942,-0.347107,-0.720775,-0.498792,-0.625465,-0.625465,-0.498792,-0.720775,-0.347107,-0.779942,-0.178017,-0.800000,0.000000,-0.779942,0.178017,
-0.720775,0.347107,-0.625465,0.498792,-0.498792,0.625465,-0.347107,0.720775,-0.178017,0.779942,0.000000,0.800000,0.600000,0.800000,0.605014,0.794986,0.605014,0.794986,$1*%
%AMFreePoly2*
4,1,29,0.605014,0.794986,0.644504,0.794986,0.724698,0.756366,0.780194,0.686777,0.800000,0.600000,0.800000,-0.600000,0.780194,-0.686777,0.724698,-0.756366,0.644504,-0.794986,0.605014,-0.794986,0.600000,-0.800000,0.000000,-0.800000,-1.600000,-0.800000,-1.778017,-0.779942,-1.947107,-0.720775,-2.098792,-0.625465,-2.225465,-0.498792,-2.320775,-0.347107,-2.379942,-0.178017,-2.400000,0.000000,
-2.379942,0.178017,-2.320775,0.347107,-2.225465,0.498792,-2.098792,0.625465,-1.947107,0.720775,-1.778017,0.779942,-1.600000,0.800000,0.600000,0.800000,0.605014,0.794986,0.605014,0.794986,$1*%
%AMFreePoly3*
4,1,28,0.178017,0.779942,0.347107,0.720775,0.498792,0.625465,0.625465,0.498792,0.720775,0.347107,0.779942,0.178017,0.800000,0.000000,0.779942,-0.178017,0.720775,-0.347107,0.625465,-0.498792,0.498792,-0.625465,0.347107,-0.720775,0.178017,-0.779942,0.000000,-0.800000,-0.600000,-0.800000,-0.605014,-0.794986,-0.644504,-0.794986,-0.724698,-0.756366,-0.780194,-0.686777,-0.800000,-0.600000,
-0.800000,0.600000,-0.780194,0.686777,-0.724698,0.756366,-0.644504,0.794986,-0.605014,0.794986,-0.600000,0.800000,0.000000,0.800000,0.178017,0.779942,0.178017,0.779942,$1*%
%AMFreePoly4*
4,1,29,1.778017,0.779942,1.947107,0.720775,2.098792,0.625465,2.225465,0.498792,2.320775,0.347107,2.379942,0.178017,2.400000,0.000000,2.379942,-0.178017,2.320775,-0.347107,2.225465,-0.498792,2.098792,-0.625465,1.947107,-0.720775,1.778017,-0.779942,1.600000,-0.800000,0.000000,-0.800000,-0.600000,-0.800000,-0.605014,-0.794986,-0.644504,-0.794986,-0.724698,-0.756366,-0.780194,-0.686777,
-0.800000,-0.600000,-0.800000,0.600000,-0.780194,0.686777,-0.724698,0.756366,-0.644504,0.794986,-0.605014,0.794986,-0.600000,0.800000,1.600000,0.800000,1.778017,0.779942,1.778017,0.779942,$1*%
G04 Aperture macros list end*
%TA.AperFunction,ComponentPad*%
%ADD10R,1.428000X1.428000*%
%TD*%
%TA.AperFunction,ComponentPad*%
%ADD11C,1.428000*%
%TD*%
%TA.AperFunction,ComponentPad*%
%ADD12C,3.316000*%
%TD*%
%TA.AperFunction,SMDPad,CuDef*%
%ADD13R,0.810000X0.860000*%
%TD*%
%TA.AperFunction,SMDPad,CuDef*%
%ADD14O,0.590000X1.970000*%
%TD*%
%TA.AperFunction,SMDPad,CuDef*%
%ADD15R,1.560000X0.410000*%
%TD*%
%TA.AperFunction,SMDPad,CuDef*%
%ADD16R,0.980000X2.470000*%
%TD*%
%TA.AperFunction,SMDPad,CuDef*%
%ADD17R,3.600000X2.470000*%
%TD*%
%TA.AperFunction,SMDPad,CuDef*%
%ADD18R,2.800000X1.100000*%
%TD*%
%TA.AperFunction,ComponentPad*%
%ADD19C,1.320800*%
%TD*%
%TA.AperFunction,SMDPad,CuDef*%
%ADD20R,1.498600X8.128000*%
%TD*%
%TA.AperFunction,SMDPad,CuDef*%
%ADD21R,1.498600X7.137400*%
%TD*%
%TA.AperFunction,ComponentPad*%
%ADD22RoundRect,0.200000X-0.600000X-0.600000X0.600000X-0.600000X0.600000X0.600000X-0.600000X0.600000X0*%
%TD*%
%TA.AperFunction,SMDPad,CuDef*%
%ADD23FreePoly0,0.000000*%
%TD*%
%TA.AperFunction,ComponentPad*%
%ADD24C,1.600000*%
%TD*%
%TA.AperFunction,SMDPad,CuDef*%
%ADD25RoundRect,0.800000X-0.800000X-0.000010X0.800000X-0.000010X0.800000X0.000010X-0.800000X0.000010X0*%
%TD*%
%TA.AperFunction,ComponentPad*%
%ADD26FreePoly1,0.000000*%
%TD*%
%TA.AperFunction,SMDPad,CuDef*%
%ADD27FreePoly2,0.000000*%
%TD*%
%TA.AperFunction,ComponentPad*%
%ADD28FreePoly3,0.000000*%
%TD*%
%TA.AperFunction,SMDPad,CuDef*%
%ADD29FreePoly4,0.000000*%
%TD*%
%TA.AperFunction,ComponentPad*%
%ADD30O,2.080000X1.040000*%
%TD*%
%TA.AperFunction,ViaPad*%
%ADD31C,0.600000*%
%TD*%
%TA.AperFunction,Conductor*%
%ADD32C,0.200000*%
%TD*%
%TA.AperFunction,Conductor*%
%ADD33C,0.400000*%
%TD*%
G04 APERTURE END LIST*
D10*
%TO.P,J2,01,VCC*%
%TO.N,VCC_4V7*%
X117580000Y-79316400D03*
D11*
%TO.P,J2,02,D-*%
%TO.N,unconnected-(J2-D--Pad02)*%
X115080000Y-79316400D03*
%TO.P,J2,03,D+*%
%TO.N,unconnected-(J2-D+-Pad03)*%
X113080000Y-79316400D03*
%TO.P,J2,04,GND*%
%TO.N,GND*%
X110580000Y-79316400D03*
D12*
%TO.P,J2,S1,SHIELD*%
%TO.N,unconnected-(J2-SHIELD-PadS1)_0*%
X120650000Y-76606400D03*
%TO.P,J2,S2,SHIELD*%
%TO.N,unconnected-(J2-SHIELD-PadS1)*%
X107510000Y-76606400D03*
%TD*%
D13*
%TO.P,R1,1,1*%
%TO.N,Net-(U6-B2)*%
X171265000Y-72164800D03*
%TO.P,R1,2,2*%
%TO.N,Net-(Q1-Pad2)*%
X172765000Y-72164800D03*
%TD*%
D14*
%TO.P,U7,1,1A*%
%TO.N,MSEL0_3V3*%
X175260000Y-89725000D03*
%TO.P,U7,2,1B*%
X176530000Y-89725000D03*
%TO.P,U7,3,1Y*%
%TO.N,MSEL1_3V3*%
X177800000Y-89725000D03*
%TO.P,U7,4,2A*%
%TO.N,GND*%
X179070000Y-89725000D03*
%TO.P,U7,5,2B*%
X180340000Y-89725000D03*
%TO.P,U7,6,2Y*%
%TO.N,unconnected-(U7-2Y-Pad6)*%
X181610000Y-89725000D03*
%TO.P,U7,7,GND*%
%TO.N,GND*%
X182880000Y-89725000D03*
%TO.P,U7,8,3Y*%
%TO.N,unconnected-(U7-3Y-Pad8)*%
X182880000Y-84265000D03*
%TO.P,U7,9,3A*%
%TO.N,GND*%
X181610000Y-84265000D03*
%TO.P,U7,10,3B*%
X180340000Y-84265000D03*
%TO.P,U7,11,4Y*%
%TO.N,unconnected-(U7-4Y-Pad11)*%
X179070000Y-84265000D03*
%TO.P,U7,12,4A*%
%TO.N,GND*%
X177800000Y-84265000D03*
%TO.P,U7,13,4B*%
X176530000Y-84265000D03*
%TO.P,U7,14,VCC*%
%TO.N,VCC_3V3*%
X175260000Y-84265000D03*
%TD*%
D15*
%TO.P,U4,1,DIR*%
%TO.N,DATADIR*%
X161545000Y-82884700D03*
%TO.P,U4,2,A0*%
%TO.N,D0*%
X161545000Y-83534700D03*
%TO.P,U4,3,A1*%
%TO.N,D1*%
X161545000Y-84184700D03*
%TO.P,U4,4,A2*%
%TO.N,D2*%
X161545000Y-84834700D03*
%TO.P,U4,5,A3*%
%TO.N,D3*%
X161545000Y-85484700D03*
%TO.P,U4,6,A4*%
%TO.N,D4*%
X161545000Y-86134700D03*
%TO.P,U4,7,A5*%
%TO.N,D5*%
X161545000Y-86784700D03*
%TO.P,U4,8,A6*%
%TO.N,D6*%
X161545000Y-87434700D03*
%TO.P,U4,9,A7*%
%TO.N,D7*%
X161545000Y-88084700D03*
%TO.P,U4,10,GND*%
%TO.N,GND*%
X161545000Y-88734700D03*
%TO.P,U4,11,B7*%
%TO.N,MP7_3V3*%
X167305000Y-88734700D03*
%TO.P,U4,12,B6*%
%TO.N,MP6_3V3*%
X167305000Y-88084700D03*
%TO.P,U4,13,B5*%
%TO.N,MP5_3V3*%
X167305000Y-87434700D03*
%TO.P,U4,14,B4*%
%TO.N,MP4_3V3*%
X167305000Y-86784700D03*
%TO.P,U4,15,B3*%
%TO.N,MP3_3V3*%
X167305000Y-86134700D03*
%TO.P,U4,16,B2*%
%TO.N,MP2_3V3*%
X167305000Y-85484700D03*
%TO.P,U4,17,B1*%
%TO.N,MP1_3V3*%
X167305000Y-84834700D03*
%TO.P,U4,18,B0*%
%TO.N,MP0_3V3*%
X167305000Y-84184700D03*
%TO.P,U4,19,~{OE}*%
%TO.N,MSEL1_3V3*%
X167305000Y-83534700D03*
%TO.P,U4,20,VCC*%
%TO.N,VCC_3V3*%
X167305000Y-82884700D03*
%TD*%
D13*
%TO.P,R4,1,1*%
%TO.N,3V3_EN*%
X151916000Y-75184000D03*
%TO.P,R4,2,2*%
%TO.N,VCC_3V3*%
X153416000Y-75184000D03*
%TD*%
D16*
%TO.P,U10,1,ADJ(GND)*%
%TO.N,GND*%
X184277000Y-109347000D03*
%TO.P,U10,2,VOUT(TAB)*%
%TO.N,VCC_3V3*%
X181977000Y-109347000D03*
%TO.P,U10,3,VIN*%
%TO.N,VCC*%
X179677000Y-109347000D03*
D17*
%TO.P,U10,4,TAB*%
%TO.N,unconnected-(U10-TAB-Pad4)*%
X181977000Y-115007000D03*
%TD*%
D15*
%TO.P,U5,1,DIR*%
%TO.N,VCC_3V3*%
X161545000Y-69975000D03*
%TO.P,U5,2,A0*%
%TO.N,MERQ*%
X161545000Y-70625000D03*
%TO.P,U5,3,A1*%
%TO.N,IORQ*%
X161545000Y-71275000D03*
%TO.P,U5,4,A2*%
%TO.N,CS1*%
X161545000Y-71925000D03*
%TO.P,U5,5,A3*%
%TO.N,CS2*%
X161545000Y-72575000D03*
%TO.P,U5,6,A4*%
%TO.N,CS12*%
X161545000Y-73225000D03*
%TO.P,U5,7,A5*%
%TO.N,RFSH*%
X161545000Y-73875000D03*
%TO.P,U5,8,A6*%
%TO.N,M1*%
X161545000Y-74525000D03*
%TO.P,U5,9,A7*%
%TO.N,GND*%
X161545000Y-75175000D03*
%TO.P,U5,10,GND*%
X161545000Y-75825000D03*
%TO.P,U5,11,B7*%
%TO.N,MP15_3V3*%
X167305000Y-75825000D03*
%TO.P,U5,12,B6*%
%TO.N,MP14_3V3*%
X167305000Y-75175000D03*
%TO.P,U5,13,B5*%
%TO.N,MP13_3V3*%
X167305000Y-74525000D03*
%TO.P,U5,14,B4*%
%TO.N,MP12_3V3*%
X167305000Y-73875000D03*
%TO.P,U5,15,B3*%
%TO.N,MP11_3V3*%
X167305000Y-73225000D03*
%TO.P,U5,16,B2*%
%TO.N,MP10_3V3*%
X167305000Y-72575000D03*
%TO.P,U5,17,B1*%
%TO.N,MP9_3V3*%
X167305000Y-71925000D03*
%TO.P,U5,18,B0*%
%TO.N,MP8_3V3*%
X167305000Y-71275000D03*
%TO.P,U5,19,~{OE}*%
%TO.N,MSEL1_3V3*%
X167305000Y-70625000D03*
%TO.P,U5,20,VCC*%
%TO.N,VCC_3V3*%
X167305000Y-69975000D03*
%TD*%
D18*
%TO.P,C2,1,1*%
%TO.N,VCC_3V3*%
X175759000Y-104687400D03*
%TO.P,C2,2,2*%
%TO.N,GND*%
X179079000Y-104687400D03*
%TD*%
D13*
%TO.P,R3,1,1*%
%TO.N,RUN*%
X151916000Y-92964000D03*
%TO.P,R3,2,2*%
%TO.N,VCC_3V3*%
X153416000Y-92964000D03*
%TD*%
D19*
%TO.P,D1,1,K*%
%TO.N,VCC_4V7*%
X112649000Y-114566700D03*
%TO.P,D1,2,A*%
%TO.N,VCC*%
X118999000Y-114541300D03*
%TD*%
D20*
%TO.P,J1,2,~{CS2}*%
%TO.N,CS2*%
X176276000Y-125984000D03*
%TO.P,J1,4,~{SLTSL}*%
%TO.N,SLTSL*%
X173736000Y-125984000D03*
%TO.P,J1,6,~{RFSH}*%
%TO.N,RFSH*%
X171196000Y-125984000D03*
%TO.P,J1,8,~{INT}*%
%TO.N,INT*%
X168656000Y-125984000D03*
%TO.P,J1,10,~{BUSDIR}*%
%TO.N,BUSDIR*%
X166116000Y-125984000D03*
%TO.P,J1,12,~{MERQ}*%
%TO.N,MERQ*%
X163576000Y-125984000D03*
%TO.P,J1,14,~{RD}*%
%TO.N,RD*%
X161036000Y-125984000D03*
%TO.P,J1,16,RSV@2*%
%TO.N,Net-(J1-RSV@2)*%
X158496000Y-125984000D03*
%TO.P,J1,18,A15*%
%TO.N,A15*%
X155956000Y-125984000D03*
%TO.P,J1,20,A10*%
%TO.N,A10*%
X153416000Y-125984000D03*
%TO.P,J1,22,A6*%
%TO.N,A6*%
X150876000Y-125984000D03*
%TO.P,J1,24,A8*%
%TO.N,A8*%
X148336000Y-125984000D03*
%TO.P,J1,26,A13*%
%TO.N,A13*%
X145796000Y-125984000D03*
%TO.P,J1,28,A0*%
%TO.N,A0*%
X143256000Y-125984000D03*
%TO.P,J1,30,A2*%
%TO.N,A2*%
X140716000Y-125984000D03*
%TO.P,J1,32,A4*%
%TO.N,A4*%
X138176000Y-125984000D03*
%TO.P,J1,34,D0*%
%TO.N,D0*%
X135636000Y-125984000D03*
%TO.P,J1,36,D2*%
%TO.N,D2*%
X133096000Y-125984000D03*
%TO.P,J1,38,D4*%
%TO.N,D4*%
X130556000Y-125984000D03*
%TO.P,J1,40,D6*%
%TO.N,D6*%
X128016000Y-125984000D03*
%TO.P,J1,42,CLOCK*%
%TO.N,CLOCK*%
X125476000Y-125984000D03*
D21*
%TO.P,J1,44,SW1*%
%TO.N,Net-(J1-SW1)*%
X122936000Y-125484000D03*
D20*
%TO.P,J1,46,SW2*%
X120396000Y-125984000D03*
%TO.P,J1,48,+12*%
%TO.N,Net-(J1-+12)*%
X117856000Y-125984000D03*
%TO.P,J1,50,-12*%
%TO.N,Net-(J1--12)*%
X115316000Y-125984000D03*
%TD*%
D18*
%TO.P,C1,1,1*%
%TO.N,VCC*%
X183429800Y-104687400D03*
%TO.P,C1,2,2*%
%TO.N,GND*%
X186749800Y-104687400D03*
%TD*%
D22*
%TO.P,U1,1,GPIO0*%
%TO.N,MP0_3V3*%
X130352780Y-67462423D03*
D23*
X130352780Y-67462423D03*
D24*
%TO.P,U1,2,GPIO1*%
%TO.N,MP1_3V3*%
X130352780Y-70002423D03*
D25*
X129552780Y-70002423D03*
D26*
%TO.P,U1,3,GND*%
%TO.N,GND*%
X130352780Y-72542423D03*
D27*
X130352780Y-72542423D03*
D24*
%TO.P,U1,4,GPIO2*%
%TO.N,MP2_3V3*%
X130352780Y-75082423D03*
D25*
X129552780Y-75082423D03*
D24*
%TO.P,U1,5,GPIO3*%
%TO.N,MP3_3V3*%
X130352780Y-77622423D03*
D25*
X129552780Y-77622423D03*
D24*
%TO.P,U1,6,GPIO4*%
%TO.N,MP4_3V3*%
X130352780Y-80162423D03*
D25*
X129552780Y-80162423D03*
D24*
%TO.P,U1,7,GPIO5*%
%TO.N,MP5_3V3*%
X130352780Y-82702423D03*
D25*
X129552780Y-82702423D03*
D26*
%TO.P,U1,8,GND*%
%TO.N,GND*%
X130352780Y-85242423D03*
D27*
X130352780Y-85242423D03*
D24*
%TO.P,U1,9,GPIO6*%
%TO.N,MP6_3V3*%
X130352780Y-87782423D03*
D25*
X129552780Y-87782423D03*
D24*
%TO.P,U1,10,GPIO7*%
%TO.N,MP7_3V3*%
X130352780Y-90322423D03*
D25*
X129552780Y-90322423D03*
D24*
%TO.P,U1,11,GPIO8*%
%TO.N,MP8_3V3*%
X130352780Y-92862423D03*
D25*
X129552780Y-92862423D03*
D24*
%TO.P,U1,12,GPIO9*%
%TO.N,MP9_3V3*%
X130352780Y-95402423D03*
D25*
X129552780Y-95402423D03*
D26*
%TO.P,U1,13,GND*%
%TO.N,GND*%
X130352780Y-97942423D03*
D27*
X130352780Y-97942423D03*
D24*
%TO.P,U1,14,GPIO10*%
%TO.N,MP10_3V3*%
X130352780Y-100482423D03*
D25*
X129552780Y-100482423D03*
D24*
%TO.P,U1,15,GPIO11*%
%TO.N,MP11_3V3*%
X130352780Y-103022423D03*
D25*
X129552780Y-103022423D03*
D24*
%TO.P,U1,16,GPIO12*%
%TO.N,MP12_3V3*%
X130352780Y-105562423D03*
D25*
X129552780Y-105562423D03*
D24*
%TO.P,U1,17,GPIO13*%
%TO.N,MP13_3V3*%
X130352780Y-108102423D03*
D25*
X129552780Y-108102423D03*
D26*
%TO.P,U1,18,GND*%
%TO.N,GND*%
X130352780Y-110642423D03*
D27*
X130352780Y-110642423D03*
D24*
%TO.P,U1,19,GPIO14*%
%TO.N,MP14_3V3*%
X130352780Y-113182423D03*
D25*
X129552780Y-113182423D03*
D24*
%TO.P,U1,20,GPIO15*%
%TO.N,MP15_3V3*%
X130352780Y-115722423D03*
D25*
X129552780Y-115722423D03*
D24*
%TO.P,U1,21,GPIO16*%
%TO.N,MSEL0_3V3*%
X148132780Y-115722423D03*
D25*
X148932780Y-115722423D03*
D24*
%TO.P,U1,22,GPIO17*%
%TO.N,DATADIR*%
X148132780Y-113182423D03*
D25*
X148932780Y-113182423D03*
D28*
%TO.P,U1,23,GND*%
%TO.N,GND*%
X148132780Y-110642423D03*
D29*
X148132780Y-110642423D03*
D24*
%TO.P,U1,24,GPIO18*%
%TO.N,BUSDIR3V3*%
X148132780Y-108102423D03*
D25*
X148932780Y-108102423D03*
D24*
%TO.P,U1,25,GPIO19*%
%TO.N,INT3V3*%
X148132780Y-105562423D03*
D25*
X148932780Y-105562423D03*
D24*
%TO.P,U1,26,GPIO20*%
%TO.N,RD_3V3*%
X148132780Y-103022423D03*
D25*
X148932780Y-103022423D03*
D24*
%TO.P,U1,27,GPIO21*%
%TO.N,WR_3V3*%
X148132780Y-100482423D03*
D25*
X148932780Y-100482423D03*
D28*
%TO.P,U1,28,GND*%
%TO.N,GND*%
X148132780Y-97942423D03*
D29*
X148132780Y-97942423D03*
D24*
%TO.P,U1,29,GPIO22*%
%TO.N,unconnected-(U1-GPIO22-Pad29)_0*%
X148132780Y-95402423D03*
D25*
%TO.N,unconnected-(U1-GPIO22-Pad29)*%
X148932780Y-95402423D03*
D24*
%TO.P,U1,30,RUN*%
%TO.N,RUN*%
X148132780Y-92862423D03*
D25*
X148932780Y-92862423D03*
D24*
%TO.P,U1,31,GPIO26_ADC0*%
%TO.N,RESET_3V3*%
X148132780Y-90322423D03*
D25*
X148932780Y-90322423D03*
D24*
%TO.P,U1,32,GPIO27_ADC1*%
%TO.N,SLTSL_3V3*%
X148132780Y-87782423D03*
D25*
X148932780Y-87782423D03*
D28*
%TO.P,U1,33,AGND*%
%TO.N,GND*%
X148132780Y-85242423D03*
D29*
X148132780Y-85242423D03*
D24*
%TO.P,U1,34,GPIO28_ADC2*%
%TO.N,CLOCK_3V3*%
X148132780Y-82702423D03*
D25*
X148932780Y-82702423D03*
D24*
%TO.P,U1,35,ADC_VREF*%
%TO.N,unconnected-(U1-ADC_VREF-Pad35)*%
X148132780Y-80162423D03*
D25*
%TO.N,unconnected-(U1-ADC_VREF-Pad35)_0*%
X148932780Y-80162423D03*
D24*
%TO.P,U1,36,3V3*%
%TO.N,unconnected-(U1-3V3-Pad36)_0*%
X148132780Y-77622423D03*
D25*
%TO.N,unconnected-(U1-3V3-Pad36)*%
X148932780Y-77622423D03*
D24*
%TO.P,U1,37,3V3_EN*%
%TO.N,3V3_EN*%
X148132780Y-75082423D03*
D25*
X148932780Y-75082423D03*
D28*
%TO.P,U1,38,GND*%
%TO.N,GND*%
X148132780Y-72542423D03*
D29*
X148132780Y-72542423D03*
D24*
%TO.P,U1,39,VSYS*%
%TO.N,unconnected-(U1-VSYS-Pad39)*%
X148132780Y-70002423D03*
D25*
X148932780Y-70002423D03*
D24*
%TO.P,U1,40,VBUS*%
%TO.N,VCC_4V7*%
X148132780Y-67462423D03*
D25*
X148932780Y-67462423D03*
%TD*%
D15*
%TO.P,U2,1,DIR*%
%TO.N,VCC_3V3*%
X161545000Y-95794300D03*
%TO.P,U2,2,A0*%
%TO.N,A0*%
X161545000Y-96444300D03*
%TO.P,U2,3,A1*%
%TO.N,A1*%
X161545000Y-97094300D03*
%TO.P,U2,4,A2*%
%TO.N,A2*%
X161545000Y-97744300D03*
%TO.P,U2,5,A3*%
%TO.N,A3*%
X161545000Y-98394300D03*
%TO.P,U2,6,A4*%
%TO.N,A4*%
X161545000Y-99044300D03*
%TO.P,U2,7,A5*%
%TO.N,A5*%
X161545000Y-99694300D03*
%TO.P,U2,8,A6*%
%TO.N,A6*%
X161545000Y-100344300D03*
%TO.P,U2,9,A7*%
%TO.N,A7*%
X161545000Y-100994300D03*
%TO.P,U2,10,GND*%
%TO.N,GND*%
X161545000Y-101644300D03*
%TO.P,U2,11,B7*%
%TO.N,MP7_3V3*%
X167305000Y-101644300D03*
%TO.P,U2,12,B6*%
%TO.N,MP6_3V3*%
X167305000Y-100994300D03*
%TO.P,U2,13,B5*%
%TO.N,MP5_3V3*%
X167305000Y-100344300D03*
%TO.P,U2,14,B4*%
%TO.N,MP4_3V3*%
X167305000Y-99694300D03*
%TO.P,U2,15,B3*%
%TO.N,MP3_3V3*%
X167305000Y-99044300D03*
%TO.P,U2,16,B2*%
%TO.N,MP2_3V3*%
X167305000Y-98394300D03*
%TO.P,U2,17,B1*%
%TO.N,MP1_3V3*%
X167305000Y-97744300D03*
%TO.P,U2,18,B0*%
%TO.N,MP0_3V3*%
X167305000Y-97094300D03*
%TO.P,U2,19,~{OE}*%
%TO.N,MSEL0_3V3*%
X167305000Y-96444300D03*
%TO.P,U2,20,VCC*%
%TO.N,VCC_3V3*%
X167305000Y-95794300D03*
%TD*%
%TO.P,U3,1,DIR*%
%TO.N,VCC_3V3*%
X161545000Y-108704000D03*
%TO.P,U3,2,A0*%
%TO.N,A8*%
X161545000Y-109354000D03*
%TO.P,U3,3,A1*%
%TO.N,A9*%
X161545000Y-110004000D03*
%TO.P,U3,4,A2*%
%TO.N,A10*%
X161545000Y-110654000D03*
%TO.P,U3,5,A3*%
%TO.N,A11*%
X161545000Y-111304000D03*
%TO.P,U3,6,A4*%
%TO.N,A12*%
X161545000Y-111954000D03*
%TO.P,U3,7,A5*%
%TO.N,A13*%
X161545000Y-112604000D03*
%TO.P,U3,8,A6*%
%TO.N,A14*%
X161545000Y-113254000D03*
%TO.P,U3,9,A7*%
%TO.N,A15*%
X161545000Y-113904000D03*
%TO.P,U3,10,GND*%
%TO.N,GND*%
X161545000Y-114554000D03*
%TO.P,U3,11,B7*%
%TO.N,MP15_3V3*%
X167305000Y-114554000D03*
%TO.P,U3,12,B6*%
%TO.N,MP14_3V3*%
X167305000Y-113904000D03*
%TO.P,U3,13,B5*%
%TO.N,MP13_3V3*%
X167305000Y-113254000D03*
%TO.P,U3,14,B4*%
%TO.N,MP12_3V3*%
X167305000Y-112604000D03*
%TO.P,U3,15,B3*%
%TO.N,MP11_3V3*%
X167305000Y-111954000D03*
%TO.P,U3,16,B2*%
%TO.N,MP10_3V3*%
X167305000Y-111304000D03*
%TO.P,U3,17,B1*%
%TO.N,MP9_3V3*%
X167305000Y-110654000D03*
%TO.P,U3,18,B0*%
%TO.N,MP8_3V3*%
X167305000Y-110004000D03*
%TO.P,U3,19,~{OE}*%
%TO.N,MSEL0_3V3*%
X167305000Y-109354000D03*
%TO.P,U3,20,VCC*%
%TO.N,VCC_3V3*%
X167305000Y-108704000D03*
%TD*%
D13*
%TO.P,R2,1,1*%
%TO.N,WAIT3V3*%
X165119600Y-67948400D03*
%TO.P,R2,2,2*%
%TO.N,VCC_3V3*%
X163619600Y-67948400D03*
%TD*%
D30*
%TO.P,Q1,1*%
%TO.N,GND*%
X175964000Y-73434800D03*
%TO.P,Q1,2*%
%TO.N,Net-(Q1-Pad2)*%
X175964000Y-72164800D03*
%TO.P,Q1,3*%
%TO.N,WAIT*%
X175964000Y-70894800D03*
%TD*%
D31*
%TO.N,VCC*%
X180141000Y-106436700D03*
X158940400Y-69307900D03*
X139198900Y-73128900D03*
%TO.N,A2*%
X143856000Y-120992400D03*
X158293400Y-97758100D03*
%TO.N,A1*%
X155943700Y-98639400D03*
%TO.N,A6*%
X151472400Y-120814200D03*
X156185400Y-106295600D03*
%TO.N,A3*%
X152381200Y-100963100D03*
%TO.N,A4*%
X146060800Y-120808800D03*
X159371200Y-99027600D03*
%TO.N,A0*%
X144696265Y-121023465D03*
X158863300Y-96525100D03*
%TO.N,MSEL0_3V3*%
X158347800Y-94056900D03*
X159590600Y-90469000D03*
%TO.N,A5*%
X147347600Y-106670100D03*
%TO.N,A7*%
X156999000Y-107074300D03*
%TO.N,A12*%
X155281300Y-112634800D03*
%TO.N,A9*%
X158908600Y-110007200D03*
%TO.N,A11*%
X157509700Y-111316100D03*
%TO.N,A8*%
X149038200Y-120675200D03*
X154214900Y-112204100D03*
%TO.N,A10*%
X154032500Y-121073100D03*
X158296900Y-110709300D03*
%TO.N,A15*%
X157329700Y-120403900D03*
X158317900Y-115569500D03*
%TO.N,A14*%
X152774300Y-113638200D03*
%TO.N,A13*%
X146971400Y-121618300D03*
X153391500Y-113022700D03*
%TO.N,DATADIR*%
X156175400Y-81425300D03*
%TO.N,D1*%
X153929100Y-83536600D03*
%TO.N,D0*%
X135022100Y-121290400D03*
X145284700Y-79029100D03*
%TO.N,D3*%
X138647600Y-84294600D03*
%TO.N,MP8_3V3*%
X165251800Y-71085900D03*
X168661500Y-109685500D03*
%TO.N,D6*%
X134790200Y-116518885D03*
X154558200Y-87734900D03*
%TO.N,D4*%
X141569200Y-113877900D03*
X155538600Y-86134700D03*
%TO.N,D2*%
X134385300Y-118867500D03*
X152627600Y-84121400D03*
%TO.N,D7*%
X127451100Y-116179600D03*
%TO.N,MP11_3V3*%
X132710600Y-109406400D03*
X170237400Y-106593300D03*
X168665300Y-73440000D03*
%TO.N,MP12_3V3*%
X165364100Y-73875000D03*
X168721100Y-112470500D03*
%TO.N,MP14_3V3*%
X165319300Y-114237000D03*
X164049100Y-77691800D03*
%TO.N,MP13_3V3*%
X170431100Y-105680500D03*
X168926700Y-75193100D03*
%TO.N,D5*%
X128930400Y-117805200D03*
%TO.N,MP0_3V3*%
X169093800Y-84276300D03*
X168728400Y-97094300D03*
X138182400Y-73077900D03*
%TO.N,MP3_3V3*%
X169130100Y-86146900D03*
X169130100Y-99170400D03*
%TO.N,MP4_3V3*%
X133297000Y-95991100D03*
X162842200Y-94756900D03*
X163006400Y-86855400D03*
%TO.N,IORQ*%
X163558500Y-76129700D03*
%TO.N,CS12*%
X170189900Y-75084000D03*
%TO.N,MP9_3V3*%
X163732700Y-69975900D03*
%TO.N,CS2*%
X168111200Y-115571600D03*
X163104600Y-72724500D03*
%TO.N,MP6_3V3*%
X163909600Y-88233900D03*
X157807200Y-85362200D03*
X163909600Y-93484300D03*
%TO.N,RESET*%
X140086800Y-119792400D03*
X156527900Y-120438100D03*
%TO.N,MP5_3V3*%
X169531800Y-87354900D03*
X169007000Y-100218400D03*
%TO.N,MP1_3V3*%
X126354100Y-77067200D03*
X158514700Y-82934900D03*
X163846500Y-83480600D03*
X164311300Y-96661800D03*
%TO.N,M1*%
X162828900Y-74525000D03*
%TO.N,MERQ*%
X162871400Y-121409200D03*
X163437800Y-77128000D03*
%TO.N,RFSH*%
X169754100Y-120237200D03*
X160251200Y-73875000D03*
%TO.N,CS1*%
X162463100Y-69235400D03*
%TO.N,MP2_3V3*%
X156802600Y-80088700D03*
X155162600Y-93672300D03*
X138937700Y-75102500D03*
X146410200Y-76093200D03*
%TO.N,MP7_3V3*%
X153825400Y-90054100D03*
X154173400Y-95192100D03*
X145439900Y-87753700D03*
%TO.N,CLOCK*%
X137316200Y-113380400D03*
%TO.N,WR*%
X140805500Y-109203400D03*
X158083100Y-114340400D03*
%TO.N,WAIT3V3*%
X140740500Y-103463000D03*
X152580800Y-104151500D03*
X157892900Y-72760000D03*
%TO.N,VCC_3V3*%
X160703500Y-92300100D03*
X162866400Y-108685400D03*
X160732600Y-81364300D03*
X163646200Y-97143500D03*
X160106800Y-95748400D03*
X144631900Y-99616300D03*
%TO.N,WR_3V3*%
X138219800Y-101315600D03*
%TO.N,MP10_3V3*%
X166021800Y-72781300D03*
X167925000Y-93201700D03*
X134387900Y-94008800D03*
%TO.N,INT3V3*%
X141080200Y-104485600D03*
%TO.N,SLTSL*%
X139964000Y-113347300D03*
%TO.N,RD_3V3*%
X139038100Y-101836800D03*
%TO.N,Net-(U6-B2)*%
X151253700Y-90131000D03*
X157171800Y-88303600D03*
X162838600Y-80828900D03*
%TO.N,INT*%
X163967600Y-119987100D03*
X155363600Y-104820600D03*
X140449800Y-101552000D03*
%TO.N,MP15_3V3*%
X168608800Y-114554000D03*
X166519800Y-77223200D03*
%TO.N,RD*%
X141235500Y-119259900D03*
%TO.N,BUSDIR3V3*%
X142681700Y-107307600D03*
%TO.N,BUSDIR*%
X138974200Y-118608200D03*
%TO.N,GND*%
X159518300Y-91443700D03*
X160204400Y-89095900D03*
X160228700Y-101897000D03*
X151975600Y-91447000D03*
X160238300Y-114554000D03*
X176589300Y-82426600D03*
%TO.N,RESET_3V3*%
X144148500Y-90322400D03*
%TD*%
D32*
%TO.N,D5*%
X130808416Y-91762423D02*
X131452780Y-92406787D01*
X128297144Y-91762423D02*
X130808416Y-91762423D01*
X126851100Y-93208467D02*
X128297144Y-91762423D01*
X127254000Y-116992400D02*
X126851100Y-116589500D01*
X137573800Y-89069300D02*
X150685000Y-89069300D01*
X128117600Y-116992400D02*
X127254000Y-116992400D01*
X126851100Y-116589500D02*
X126851100Y-93208467D01*
X128930400Y-117805200D02*
X128117600Y-116992400D01*
X155592000Y-86929500D02*
X155736800Y-86784700D01*
X131452780Y-92406787D02*
X131452780Y-93423746D01*
X131452780Y-93423746D02*
X130974102Y-93902424D01*
X130974102Y-93902424D02*
X131852780Y-94781103D01*
X131852780Y-94781103D02*
X131852780Y-94790320D01*
X131852780Y-94790320D02*
X137573800Y-89069300D01*
X150685000Y-89069300D02*
X152824800Y-86929500D01*
X152824800Y-86929500D02*
X155592000Y-86929500D01*
X155736800Y-86784700D02*
X161545000Y-86784700D01*
%TO.N,D7*%
X136067000Y-91447000D02*
X150848800Y-91447000D01*
X131655941Y-95858059D02*
X136067000Y-91447000D01*
X127251100Y-115979600D02*
X127251100Y-95348467D01*
X131452780Y-95858059D02*
X131655941Y-95858059D01*
X131452780Y-94946788D02*
X131452780Y-95858059D01*
X150848800Y-91447000D02*
X153243700Y-89052100D01*
X128297144Y-94302423D02*
X130808416Y-94302423D01*
X127451100Y-116179600D02*
X127251100Y-115979600D01*
X153243700Y-89052100D02*
X159329800Y-89052100D01*
X130808416Y-94302423D02*
X131452780Y-94946788D01*
X127251100Y-95348467D02*
X128297144Y-94302423D01*
X160297200Y-88084700D02*
X161545000Y-88084700D01*
X159329800Y-89052100D02*
X160297200Y-88084700D01*
%TO.N,CLOCK*%
X125476000Y-125984000D02*
X125476000Y-122326400D01*
X125476000Y-122326400D02*
X133858000Y-113944400D01*
X133858000Y-113944400D02*
X136752200Y-113944400D01*
X136752200Y-113944400D02*
X137316200Y-113380400D01*
%TO.N,D4*%
X130556000Y-125984000D02*
X130556000Y-121618300D01*
X135390200Y-115252580D02*
X136250357Y-114392423D01*
X130556000Y-121618300D02*
X135390200Y-116784100D01*
X135390200Y-116784100D02*
X135390200Y-115252580D01*
X136250357Y-114392423D02*
X141054677Y-114392423D01*
X141054677Y-114392423D02*
X141569200Y-113877900D01*
%TO.N,D6*%
X128016000Y-122487800D02*
X128016000Y-125984000D01*
X133984915Y-116518885D02*
X128016000Y-122487800D01*
X134790200Y-116518885D02*
X133984915Y-116518885D01*
%TO.N,Net-(J1-SW1)*%
X120396000Y-125984000D02*
X120396000Y-121666000D01*
X120396000Y-121666000D02*
X120853200Y-121208800D01*
X122936000Y-121742200D02*
X122936000Y-125484000D01*
X120853200Y-121208800D02*
X122402600Y-121208800D01*
X122402600Y-121208800D02*
X122936000Y-121742200D01*
%TO.N,A0*%
X144696265Y-121023465D02*
X143256000Y-122463730D01*
X143256000Y-122463730D02*
X143256000Y-125984000D01*
%TO.N,A2*%
X143230100Y-121618300D02*
X140716000Y-121618300D01*
X140716000Y-121618300D02*
X140716000Y-125984000D01*
X143856000Y-120992400D02*
X143230100Y-121618300D01*
%TO.N,A4*%
X145644400Y-120392400D02*
X139401900Y-120392400D01*
X146060800Y-120808800D02*
X145644400Y-120392400D01*
X139401900Y-120392400D02*
X138176000Y-121618300D01*
X138176000Y-121618300D02*
X138176000Y-125984000D01*
%TO.N,Net-(Q1-Pad2)*%
X174622300Y-72164800D02*
X173471700Y-72164800D01*
X175964000Y-72164800D02*
X174622300Y-72164800D01*
X172765000Y-72164800D02*
X173471700Y-72164800D01*
D33*
%TO.N,VCC_4V7*%
X122686800Y-79316400D02*
X117580000Y-79316400D01*
X125691300Y-76311900D02*
X122686800Y-79316400D01*
X132091200Y-76311900D02*
X125691300Y-76311900D01*
X136174700Y-72228400D02*
X132091200Y-76311900D01*
X143366800Y-72228400D02*
X136174700Y-72228400D01*
X148132800Y-67462400D02*
X143366800Y-72228400D01*
%TO.N,VCC*%
X183429800Y-104687400D02*
X183429800Y-105163200D01*
X179677000Y-109347000D02*
X179677000Y-107710300D01*
X182156300Y-106436700D02*
X180141000Y-106436700D01*
X183429800Y-105163200D02*
X182156300Y-106436700D01*
X180141000Y-107246300D02*
X179677000Y-107710300D01*
X180141000Y-106436700D02*
X180141000Y-107246300D01*
X144143100Y-73128900D02*
X139198900Y-73128900D01*
X146064900Y-71207100D02*
X144143100Y-73128900D01*
X157041200Y-71207100D02*
X146064900Y-71207100D01*
X158940400Y-69307900D02*
X157041200Y-71207100D01*
D32*
%TO.N,A2*%
X160449500Y-97758100D02*
X160463300Y-97744300D01*
X158293400Y-97758100D02*
X160449500Y-97758100D01*
X161545000Y-97744300D02*
X160463300Y-97744300D01*
%TO.N,A1*%
X161545000Y-97094300D02*
X160463300Y-97094300D01*
X160430800Y-97126800D02*
X160463300Y-97094300D01*
X157456300Y-97126800D02*
X160430800Y-97126800D01*
X155943700Y-98639400D02*
X157456300Y-97126800D01*
%TO.N,A6*%
X150876000Y-125984000D02*
X150876000Y-121618300D01*
X151472300Y-120814200D02*
X151472400Y-120814200D01*
X151472300Y-121022000D02*
X151472300Y-120814200D01*
X150876000Y-121618300D02*
X151472300Y-121022000D01*
X156573600Y-105907400D02*
X156185400Y-106295600D01*
X156573600Y-104123300D02*
X156573600Y-105907400D01*
X160352600Y-100344300D02*
X156573600Y-104123300D01*
X161545000Y-100344300D02*
X160352600Y-100344300D01*
%TO.N,A3*%
X157043300Y-98394300D02*
X161545000Y-98394300D01*
X154474500Y-100963100D02*
X157043300Y-98394300D01*
X152381200Y-100963100D02*
X154474500Y-100963100D01*
%TO.N,A4*%
X160446600Y-99027600D02*
X160463300Y-99044300D01*
X159371200Y-99027600D02*
X160446600Y-99027600D01*
X161545000Y-99044300D02*
X160463300Y-99044300D01*
%TO.N,A0*%
X161545000Y-96444300D02*
X160463300Y-96444300D01*
X160382500Y-96525100D02*
X158863300Y-96525100D01*
X160463300Y-96444300D02*
X160382500Y-96525100D01*
%TO.N,MSEL0_3V3*%
X167305000Y-96444300D02*
X168386700Y-96444300D01*
X167305000Y-109354000D02*
X166223300Y-109354000D01*
X175260000Y-89725000D02*
X175260000Y-90368300D01*
X175903400Y-91011700D02*
X176530000Y-91011700D01*
X175260000Y-90368300D02*
X175903400Y-91011700D01*
X176530000Y-89725000D02*
X176530000Y-91011700D01*
X175159300Y-90469000D02*
X175260000Y-90368300D01*
X159590600Y-90469000D02*
X175159300Y-90469000D01*
X148581600Y-116171200D02*
X148132800Y-115722400D01*
X161364400Y-116171200D02*
X148581600Y-116171200D01*
X164649600Y-112886000D02*
X161364400Y-116171200D01*
X164649600Y-110927700D02*
X164649600Y-112886000D01*
X166223300Y-109354000D02*
X164649600Y-110927700D01*
X168386700Y-95452400D02*
X168386700Y-96444300D01*
X167541100Y-94606800D02*
X168386700Y-95452400D01*
X167343300Y-94606800D02*
X167541100Y-94606800D01*
X167132200Y-94395700D02*
X167343300Y-94606800D01*
X164587900Y-94395700D02*
X167132200Y-94395700D01*
X164495900Y-94487700D02*
X164587900Y-94395700D01*
X163494200Y-94487700D02*
X164495900Y-94487700D01*
X163063400Y-94056900D02*
X163494200Y-94487700D01*
X158347800Y-94056900D02*
X163063400Y-94056900D01*
%TO.N,A5*%
X161545000Y-99694300D02*
X160463300Y-99694300D01*
X160325600Y-99694300D02*
X160463300Y-99694300D01*
X155993600Y-104026300D02*
X160325600Y-99694300D01*
X155993600Y-105052000D02*
X155993600Y-104026300D01*
X154375500Y-106670100D02*
X155993600Y-105052000D01*
X147347600Y-106670100D02*
X154375500Y-106670100D01*
%TO.N,A7*%
X160271600Y-100994300D02*
X161545000Y-100994300D01*
X156999000Y-104266900D02*
X160271600Y-100994300D01*
X156999000Y-107074300D02*
X156999000Y-104266900D01*
%TO.N,A12*%
X155962100Y-111954000D02*
X161545000Y-111954000D01*
X155281300Y-112634800D02*
X155962100Y-111954000D01*
%TO.N,A9*%
X161545000Y-110004000D02*
X160463300Y-110004000D01*
X158911800Y-110004000D02*
X158908600Y-110007200D01*
X160463300Y-110004000D02*
X158911800Y-110004000D01*
%TO.N,A11*%
X161545000Y-111304000D02*
X160463300Y-111304000D01*
X160451200Y-111316100D02*
X157509700Y-111316100D01*
X160463300Y-111304000D02*
X160451200Y-111316100D01*
%TO.N,A8*%
X149038200Y-120916100D02*
X149038200Y-120675200D01*
X148336000Y-121618300D02*
X149038200Y-120916100D01*
X157065000Y-109354000D02*
X161545000Y-109354000D01*
X154214900Y-112204100D02*
X157065000Y-109354000D01*
X148336000Y-125984000D02*
X148336000Y-121618300D01*
%TO.N,A10*%
X161545000Y-110654000D02*
X160463300Y-110654000D01*
X153416000Y-125984000D02*
X153416000Y-121618300D01*
X153487300Y-121618300D02*
X154032500Y-121073100D01*
X153416000Y-121618300D02*
X153487300Y-121618300D01*
X160408000Y-110709300D02*
X158296900Y-110709300D01*
X160463300Y-110654000D02*
X160408000Y-110709300D01*
%TO.N,A15*%
X159983400Y-113904000D02*
X161545000Y-113904000D01*
X158317900Y-115569500D02*
X159983400Y-113904000D01*
X155956000Y-125984000D02*
X155956000Y-121618300D01*
X157329700Y-120540200D02*
X157329700Y-120403900D01*
X156251600Y-121618300D02*
X157329700Y-120540200D01*
X155956000Y-121618300D02*
X156251600Y-121618300D01*
%TO.N,A14*%
X161545000Y-113254000D02*
X160463300Y-113254000D01*
X155696800Y-113638200D02*
X152774300Y-113638200D01*
X155977100Y-113357900D02*
X155696800Y-113638200D01*
X160359400Y-113357900D02*
X155977100Y-113357900D01*
X160463300Y-113254000D02*
X160359400Y-113357900D01*
%TO.N,MSEL1_3V3*%
X177800000Y-89725000D02*
X177800000Y-88438300D01*
X172896400Y-83534700D02*
X167305000Y-83534700D01*
X177800000Y-88438300D02*
X172896400Y-83534700D01*
X171003300Y-70625000D02*
X167305000Y-70625000D01*
X171971700Y-71593400D02*
X171003300Y-70625000D01*
X171971700Y-74790100D02*
X171971700Y-71593400D01*
X166223300Y-80538500D02*
X171971700Y-74790100D01*
X166223300Y-83534700D02*
X166223300Y-80538500D01*
X167305000Y-83534700D02*
X166223300Y-83534700D01*
%TO.N,A13*%
X145796000Y-125984000D02*
X145796000Y-121618300D01*
X161545000Y-112604000D02*
X160463300Y-112604000D01*
X145796000Y-121618300D02*
X146971400Y-121618300D01*
X153605300Y-113236500D02*
X153391500Y-113022700D01*
X155530500Y-113236500D02*
X153605300Y-113236500D01*
X155916000Y-112851000D02*
X155530500Y-113236500D01*
X155916000Y-112850900D02*
X155916000Y-112851000D01*
X160216400Y-112850900D02*
X155916000Y-112850900D01*
X160463300Y-112604000D02*
X160216400Y-112850900D01*
%TO.N,DATADIR*%
X161545000Y-82884700D02*
X160463300Y-82884700D01*
X160348000Y-82769400D02*
X160463300Y-82884700D01*
X160150900Y-82769400D02*
X160348000Y-82769400D01*
X159327500Y-81946000D02*
X160150900Y-82769400D01*
X159327500Y-81846300D02*
X159327500Y-81946000D01*
X158906500Y-81425300D02*
X159327500Y-81846300D01*
X156175400Y-81425300D02*
X158906500Y-81425300D01*
%TO.N,3V3_EN*%
X151107700Y-75082400D02*
X151209300Y-75184000D01*
X148132800Y-75082400D02*
X151107700Y-75082400D01*
X151916000Y-75184000D02*
X151209300Y-75184000D01*
%TO.N,D1*%
X159516800Y-84184700D02*
X161545000Y-84184700D01*
X158868700Y-83536600D02*
X159516800Y-84184700D01*
X153929100Y-83536600D02*
X158868700Y-83536600D01*
%TO.N,D0*%
X161545000Y-83534700D02*
X160463300Y-83534700D01*
X135350000Y-121618300D02*
X135022100Y-121290400D01*
X135636000Y-121618300D02*
X135350000Y-121618300D01*
X135636000Y-125984000D02*
X135636000Y-121618300D01*
X160348200Y-83534700D02*
X160463300Y-83534700D01*
X158865100Y-82051600D02*
X160348200Y-83534700D01*
X155566800Y-82051600D02*
X158865100Y-82051600D01*
X152544300Y-79029100D02*
X155566800Y-82051600D01*
X145284700Y-79029100D02*
X152544300Y-79029100D01*
%TO.N,D3*%
X159067200Y-85484700D02*
X161545000Y-85484700D01*
X158342900Y-84760400D02*
X159067200Y-85484700D01*
X151541700Y-84760400D02*
X158342900Y-84760400D01*
X150902500Y-84121200D02*
X151541700Y-84760400D01*
X138821000Y-84121200D02*
X150902500Y-84121200D01*
X138647600Y-84294600D02*
X138821000Y-84121200D01*
%TO.N,RUN*%
X151107700Y-92862400D02*
X151209300Y-92964000D01*
X148132800Y-92862400D02*
X151107700Y-92862400D01*
X151916000Y-92964000D02*
X151209300Y-92964000D01*
%TO.N,MP8_3V3*%
X165440900Y-71275000D02*
X167305000Y-71275000D01*
X165251800Y-71085900D02*
X165440900Y-71275000D01*
X167305000Y-110004000D02*
X168386700Y-110004000D01*
X168386700Y-109960300D02*
X168661500Y-109685500D01*
X168386700Y-110004000D02*
X168386700Y-109960300D01*
%TO.N,D6*%
X161545000Y-87434700D02*
X160463300Y-87434700D01*
X154856800Y-87436300D02*
X154558200Y-87734900D01*
X160461800Y-87436300D02*
X154856800Y-87436300D01*
X160461800Y-87436200D02*
X160461800Y-87436300D01*
X160463300Y-87434700D02*
X160461800Y-87436200D01*
%TO.N,D4*%
X161545000Y-86134700D02*
X160463300Y-86134700D01*
X160463300Y-86134700D02*
X155538600Y-86134700D01*
%TO.N,D2*%
X133096000Y-125984000D02*
X133096000Y-121618300D01*
X134385300Y-120329000D02*
X134385300Y-118867500D01*
X133096000Y-121618300D02*
X134385300Y-120329000D01*
X152703700Y-84197500D02*
X152627600Y-84121400D01*
X158632900Y-84197500D02*
X152703700Y-84197500D01*
X159270100Y-84834700D02*
X158632900Y-84197500D01*
X161545000Y-84834700D02*
X159270100Y-84834700D01*
%TO.N,MP11_3V3*%
X134295200Y-110991000D02*
X132710600Y-109406400D01*
X141845500Y-110991000D02*
X134295200Y-110991000D01*
X147031100Y-116176600D02*
X141845500Y-110991000D01*
X147031100Y-116178700D02*
X147031100Y-116176600D01*
X147676500Y-116824100D02*
X147031100Y-116178700D01*
X147676600Y-116824100D02*
X147676500Y-116824100D01*
X147679800Y-116827300D02*
X147676600Y-116824100D01*
X161276300Y-116827300D02*
X147679800Y-116827300D01*
X161676400Y-116427200D02*
X161276300Y-116827300D01*
X161678100Y-116427200D02*
X161676400Y-116427200D01*
X165051300Y-113054000D02*
X161678100Y-116427200D01*
X165051300Y-113052300D02*
X165051300Y-113054000D01*
X166149600Y-111954000D02*
X165051300Y-113052300D01*
X166223300Y-111954000D02*
X166149600Y-111954000D01*
X166764200Y-111954000D02*
X166223300Y-111954000D01*
X166764200Y-111954000D02*
X167305000Y-111954000D01*
X170237400Y-110103300D02*
X170237400Y-106593300D01*
X168386700Y-111954000D02*
X170237400Y-110103300D01*
X167305000Y-73225000D02*
X168386700Y-73225000D01*
X168450300Y-73225000D02*
X168665300Y-73440000D01*
X168386700Y-73225000D02*
X168450300Y-73225000D01*
X167305000Y-111954000D02*
X168386700Y-111954000D01*
%TO.N,MP12_3V3*%
X167305000Y-112604000D02*
X168386700Y-112604000D01*
X167305000Y-73875000D02*
X165364100Y-73875000D01*
X168520200Y-112470500D02*
X168721100Y-112470500D01*
X168386700Y-112604000D02*
X168520200Y-112470500D01*
%TO.N,MP14_3V3*%
X167305000Y-75175000D02*
X166223300Y-75175000D01*
X164049100Y-77349200D02*
X166223300Y-75175000D01*
X164049100Y-77691800D02*
X164049100Y-77349200D01*
X165652300Y-113904000D02*
X167305000Y-113904000D01*
X165319300Y-114237000D02*
X165652300Y-113904000D01*
X161925500Y-117630800D02*
X165319300Y-114237000D01*
X147309200Y-117630800D02*
X161925500Y-117630800D01*
X142003300Y-112324900D02*
X147309200Y-117630800D01*
X131210300Y-112324900D02*
X142003300Y-112324900D01*
X130352800Y-113182400D02*
X131210300Y-112324900D01*
%TO.N,MP13_3V3*%
X129707800Y-108102400D02*
X130352800Y-108102400D01*
X127651100Y-110159100D02*
X129707800Y-108102400D01*
X127651100Y-111170200D02*
X127651100Y-110159100D01*
X128228800Y-111747900D02*
X127651100Y-111170200D01*
X142032300Y-111747900D02*
X128228800Y-111747900D01*
X147513500Y-117229100D02*
X142032300Y-111747900D01*
X161444200Y-117229100D02*
X147513500Y-117229100D01*
X165417800Y-113255500D02*
X161444200Y-117229100D01*
X166221800Y-113255500D02*
X165417800Y-113255500D01*
X166223300Y-113254000D02*
X166221800Y-113255500D01*
X166764200Y-113254000D02*
X166223300Y-113254000D01*
X166764200Y-113254000D02*
X167305000Y-113254000D01*
X167305000Y-74525000D02*
X168386700Y-74525000D01*
X170870200Y-106119600D02*
X170431100Y-105680500D01*
X170870200Y-111252500D02*
X170870200Y-106119600D01*
X168868700Y-113254000D02*
X170870200Y-111252500D01*
X167305000Y-113254000D02*
X168868700Y-113254000D01*
X168386700Y-74653100D02*
X168926700Y-75193100D01*
X168386700Y-74525000D02*
X168386700Y-74653100D01*
%TO.N,MP0_3V3*%
X167305000Y-97094300D02*
X168386700Y-97094300D01*
X167305000Y-84184700D02*
X168386700Y-84184700D01*
X165506900Y-84184700D02*
X167305000Y-84184700D01*
X162820400Y-81498200D02*
X165506900Y-84184700D01*
X162577900Y-81498200D02*
X162820400Y-81498200D01*
X154827800Y-73748100D02*
X162577900Y-81498200D01*
X138852600Y-73748100D02*
X154827800Y-73748100D01*
X138182400Y-73077900D02*
X138852600Y-73748100D01*
X168386700Y-97094300D02*
X168728400Y-97094300D01*
X168478300Y-84276300D02*
X169093800Y-84276300D01*
X168386700Y-84184700D02*
X168478300Y-84276300D01*
%TO.N,MP3_3V3*%
X167305000Y-99044300D02*
X168386700Y-99044300D01*
X168512800Y-99170400D02*
X169130100Y-99170400D01*
X168386700Y-99044300D02*
X168512800Y-99170400D01*
X165081800Y-86134700D02*
X167305000Y-86134700D01*
X162843100Y-83896000D02*
X165081800Y-86134700D01*
X162843100Y-82760200D02*
X162843100Y-83896000D01*
X162450600Y-82367700D02*
X162843100Y-82760200D01*
X160317200Y-82367700D02*
X162450600Y-82367700D01*
X159729200Y-81779700D02*
X160317200Y-82367700D01*
X159729200Y-81641200D02*
X159729200Y-81779700D01*
X158839400Y-80751400D02*
X159729200Y-81641200D01*
X156614500Y-80751400D02*
X158839400Y-80751400D01*
X152351100Y-76488000D02*
X156614500Y-80751400D01*
X147299600Y-76488000D02*
X152351100Y-76488000D01*
X146775900Y-77011700D02*
X147299600Y-76488000D01*
X146261000Y-77011700D02*
X146775900Y-77011700D01*
X142901900Y-80370800D02*
X146261000Y-77011700D01*
X133101200Y-80370800D02*
X142901900Y-80370800D01*
X130352800Y-77622400D02*
X133101200Y-80370800D01*
X169117900Y-86134700D02*
X169130100Y-86146900D01*
X167305000Y-86134700D02*
X169117900Y-86134700D01*
%TO.N,MP4_3V3*%
X167305000Y-86784700D02*
X166223300Y-86784700D01*
X162842200Y-94756900D02*
X162676400Y-94922700D01*
X145684800Y-95991100D02*
X133297000Y-95991100D01*
X146271700Y-96578000D02*
X145684800Y-95991100D01*
X150158000Y-96578000D02*
X146271700Y-96578000D01*
X152162200Y-94573800D02*
X150158000Y-96578000D01*
X157909900Y-94573800D02*
X152162200Y-94573800D01*
X158050400Y-94714300D02*
X157909900Y-94573800D01*
X159403000Y-94714300D02*
X158050400Y-94714300D01*
X159427400Y-94738700D02*
X159403000Y-94714300D01*
X159540800Y-94738700D02*
X159427400Y-94738700D01*
X159688900Y-94590600D02*
X159540800Y-94738700D01*
X160519800Y-94590600D02*
X159688900Y-94590600D01*
X160667900Y-94738700D02*
X160519800Y-94590600D01*
X162492300Y-94738700D02*
X160667900Y-94738700D01*
X162676400Y-94922700D02*
X162492300Y-94738700D01*
X166146000Y-99694300D02*
X167305000Y-99694300D01*
X164472300Y-98020600D02*
X166146000Y-99694300D01*
X164242300Y-98020600D02*
X164472300Y-98020600D01*
X163966900Y-97745200D02*
X164242300Y-98020600D01*
X163397000Y-97745200D02*
X163966900Y-97745200D01*
X163044400Y-97392600D02*
X163397000Y-97745200D01*
X163044400Y-95290800D02*
X163044400Y-97392600D01*
X162676400Y-94922700D02*
X163044400Y-95290800D01*
X166152600Y-86855400D02*
X163006400Y-86855400D01*
X166223300Y-86784700D02*
X166152600Y-86855400D01*
%TO.N,IORQ*%
X161545000Y-71275000D02*
X162626700Y-71275000D01*
X163861400Y-75826800D02*
X163558500Y-76129700D01*
X163861400Y-72509700D02*
X163861400Y-75826800D01*
X162626700Y-71275000D02*
X163861400Y-72509700D01*
%TO.N,CS12*%
X161545000Y-73225000D02*
X162626700Y-73225000D01*
X163445200Y-74043500D02*
X162626700Y-73225000D01*
X163445200Y-75191700D02*
X163445200Y-74043500D01*
X162786400Y-75850500D02*
X163445200Y-75191700D01*
X162786400Y-77333900D02*
X162786400Y-75850500D01*
X163752700Y-78300200D02*
X162786400Y-77333900D01*
X166973700Y-78300200D02*
X163752700Y-78300200D01*
X170189900Y-75084000D02*
X166973700Y-78300200D01*
%TO.N,MP9_3V3*%
X165240100Y-71925000D02*
X167305000Y-71925000D01*
X163732700Y-70417600D02*
X165240100Y-71925000D01*
X163732700Y-69975900D02*
X163732700Y-70417600D01*
X168386700Y-110654000D02*
X167305000Y-110654000D01*
X168752300Y-110288400D02*
X168386700Y-110654000D01*
X168909800Y-110288400D02*
X168752300Y-110288400D01*
X169264400Y-109933800D02*
X168909800Y-110288400D01*
X169264400Y-109199100D02*
X169264400Y-109933800D01*
X168113000Y-108047700D02*
X169264400Y-109199100D01*
X156874400Y-108047700D02*
X168113000Y-108047700D01*
X155675000Y-109247100D02*
X156874400Y-108047700D01*
X147580300Y-109247100D02*
X155675000Y-109247100D01*
X146288500Y-107955300D02*
X147580300Y-109247100D01*
X142461900Y-107955300D02*
X146288500Y-107955300D01*
X130352800Y-95846200D02*
X142461900Y-107955300D01*
X130352800Y-95402400D02*
X130352800Y-95846200D01*
%TO.N,CS2*%
X176276000Y-125984000D02*
X176276000Y-121618300D01*
X170229300Y-115571600D02*
X176276000Y-121618300D01*
X168111200Y-115571600D02*
X170229300Y-115571600D01*
X162955100Y-72575000D02*
X163104600Y-72724500D01*
X161545000Y-72575000D02*
X162955100Y-72575000D01*
%TO.N,MP6_3V3*%
X167305000Y-88084700D02*
X166223300Y-88084700D01*
X154086000Y-85362200D02*
X157807200Y-85362200D01*
X153010100Y-86438100D02*
X154086000Y-85362200D01*
X131697100Y-86438100D02*
X153010100Y-86438100D01*
X130352800Y-87782400D02*
X131697100Y-86438100D01*
X164058800Y-88084700D02*
X163909600Y-88233900D01*
X166223300Y-88084700D02*
X164058800Y-88084700D01*
X163946200Y-93447700D02*
X163909600Y-93484300D01*
X167321800Y-93447700D02*
X163946200Y-93447700D01*
X167323300Y-93449200D02*
X167321800Y-93447700D01*
X167323300Y-93450800D02*
X167323300Y-93449200D01*
X167675900Y-93803400D02*
X167323300Y-93450800D01*
X167902600Y-93803400D02*
X167675900Y-93803400D01*
X169819300Y-95720100D02*
X167902600Y-93803400D01*
X169819300Y-100257000D02*
X169819300Y-95720100D01*
X169082000Y-100994300D02*
X169819300Y-100257000D01*
X167305000Y-100994300D02*
X169082000Y-100994300D01*
%TO.N,RESET*%
X140168000Y-119873600D02*
X140086800Y-119792400D01*
X155963400Y-119873600D02*
X140168000Y-119873600D01*
X156527900Y-120438100D02*
X155963400Y-119873600D01*
%TO.N,MP5_3V3*%
X167305000Y-87434700D02*
X168386700Y-87434700D01*
X168512600Y-100218400D02*
X168386700Y-100344300D01*
X169007000Y-100218400D02*
X168512600Y-100218400D01*
X167305000Y-100344300D02*
X168386700Y-100344300D01*
X169531800Y-87355000D02*
X169531800Y-87354900D01*
X168466400Y-87355000D02*
X169531800Y-87355000D01*
X168386700Y-87434700D02*
X168466400Y-87355000D01*
%TO.N,MP1_3V3*%
X154354200Y-82934900D02*
X158514700Y-82934900D01*
X152851700Y-81432400D02*
X154354200Y-82934900D01*
X133182800Y-81432400D02*
X152851700Y-81432400D01*
X130641400Y-78891000D02*
X133182800Y-81432400D01*
X128177900Y-78891000D02*
X130641400Y-78891000D01*
X126354100Y-77067200D02*
X128177900Y-78891000D01*
X165200600Y-84834700D02*
X163846500Y-83480600D01*
X167305000Y-84834700D02*
X165200600Y-84834700D01*
X165393800Y-97744300D02*
X164311300Y-96661800D01*
X167305000Y-97744300D02*
X165393800Y-97744300D01*
%TO.N,M1*%
X161545000Y-74525000D02*
X162828900Y-74525000D01*
%TO.N,MERQ*%
X163080500Y-121618300D02*
X162871400Y-121409200D01*
X163576000Y-121618300D02*
X163080500Y-121618300D01*
X163576000Y-125984000D02*
X163576000Y-121618300D01*
X161545000Y-70625000D02*
X162626700Y-70625000D01*
X164272700Y-72271000D02*
X162626700Y-70625000D01*
X164272700Y-76293100D02*
X164272700Y-72271000D01*
X163437800Y-77128000D02*
X164272700Y-76293100D01*
%TO.N,RFSH*%
X171135200Y-121618300D02*
X169754100Y-120237200D01*
X171196000Y-121618300D02*
X171135200Y-121618300D01*
X171196000Y-125984000D02*
X171196000Y-121618300D01*
X161545000Y-73875000D02*
X160463300Y-73875000D01*
X160463300Y-73875000D02*
X160251200Y-73875000D01*
%TO.N,CS1*%
X161545000Y-71925000D02*
X160463300Y-71925000D01*
X160872900Y-69235400D02*
X162463100Y-69235400D01*
X160463300Y-69645000D02*
X160872900Y-69235400D01*
X160463300Y-71925000D02*
X160463300Y-69645000D01*
%TO.N,MP2_3V3*%
X167305000Y-98394300D02*
X168386700Y-98394300D01*
X167305000Y-85484700D02*
X166223300Y-85484700D01*
X145419500Y-75102500D02*
X146410200Y-76093200D01*
X138937700Y-75102500D02*
X145419500Y-75102500D01*
X165049300Y-85484700D02*
X166223300Y-85484700D01*
X163665400Y-84100800D02*
X165049300Y-85484700D01*
X163615900Y-84100800D02*
X163665400Y-84100800D01*
X163244800Y-83729700D02*
X163615900Y-84100800D01*
X163244800Y-82586800D02*
X163244800Y-83729700D01*
X162624000Y-81966000D02*
X163244800Y-82586800D01*
X160483500Y-81966000D02*
X162624000Y-81966000D01*
X160130900Y-81613400D02*
X160483500Y-81966000D01*
X160130900Y-81426600D02*
X160130900Y-81613400D01*
X158793000Y-80088700D02*
X160130900Y-81426600D01*
X156802600Y-80088700D02*
X158793000Y-80088700D01*
X169349800Y-97431200D02*
X168386700Y-98394300D01*
X169349800Y-95823300D02*
X169349800Y-97431200D01*
X167731600Y-94205100D02*
X169349800Y-95823300D01*
X167509600Y-94205100D02*
X167731600Y-94205100D01*
X167154000Y-93849500D02*
X167509600Y-94205100D01*
X164566100Y-93849500D02*
X167154000Y-93849500D01*
X164329600Y-94086000D02*
X164566100Y-93849500D01*
X163660500Y-94086000D02*
X164329600Y-94086000D01*
X163307900Y-93733400D02*
X163660500Y-94086000D01*
X163307900Y-93678600D02*
X163307900Y-93733400D01*
X163080300Y-93451000D02*
X163307900Y-93678600D01*
X155383900Y-93451000D02*
X163080300Y-93451000D01*
X155162600Y-93672300D02*
X155383900Y-93451000D01*
%TO.N,MP7_3V3*%
X167305000Y-88734700D02*
X166223300Y-88734700D01*
X167305000Y-101644300D02*
X166223300Y-101644300D01*
X165104000Y-89854000D02*
X166223300Y-88734700D01*
X154025500Y-89854000D02*
X165104000Y-89854000D01*
X153825400Y-90054100D02*
X154025500Y-89854000D01*
X132921500Y-87753700D02*
X145439900Y-87753700D01*
X130352800Y-90322400D02*
X132921500Y-87753700D01*
X159655400Y-95192100D02*
X154173400Y-95192100D01*
X159855200Y-94992300D02*
X159655400Y-95192100D01*
X160353500Y-94992300D02*
X159855200Y-94992300D01*
X160611900Y-95250700D02*
X160353500Y-94992300D01*
X162413100Y-95250700D02*
X160611900Y-95250700D01*
X162642700Y-95480300D02*
X162413100Y-95250700D01*
X162642700Y-98063700D02*
X162642700Y-95480300D01*
X166223300Y-101644300D02*
X162642700Y-98063700D01*
%TO.N,WR*%
X145942500Y-114340400D02*
X140805500Y-109203400D01*
X158083100Y-114340400D02*
X145942500Y-114340400D01*
%TO.N,WAIT3V3*%
X165119600Y-67948400D02*
X164412900Y-67948400D01*
X157892900Y-71627900D02*
X157892900Y-72760000D01*
X162304100Y-67216700D02*
X157892900Y-71627900D01*
X164211200Y-67216700D02*
X162304100Y-67216700D01*
X164412900Y-67418400D02*
X164211200Y-67216700D01*
X164412900Y-67948400D02*
X164412900Y-67418400D01*
X142347600Y-104151500D02*
X152580800Y-104151500D01*
X141659100Y-103463000D02*
X142347600Y-104151500D01*
X140740500Y-103463000D02*
X141659100Y-103463000D01*
D33*
%TO.N,VCC_3V3*%
X161545000Y-69975000D02*
X162726700Y-69975000D01*
X153416000Y-92964000D02*
X154222700Y-92964000D01*
X162726700Y-69975000D02*
X163619600Y-69082100D01*
X163619600Y-69082100D02*
X163619600Y-67948400D01*
X168493100Y-82878300D02*
X175260000Y-82878300D01*
X168486700Y-82884700D02*
X168493100Y-82878300D01*
X175260000Y-84265000D02*
X175260000Y-82878300D01*
X167305000Y-82884700D02*
X168486700Y-82884700D01*
X166714200Y-69975000D02*
X166123300Y-69975000D01*
X166714200Y-69975000D02*
X167305000Y-69975000D01*
X167305000Y-69975000D02*
X168486700Y-69975000D01*
X181977000Y-109347000D02*
X181977000Y-110982200D01*
X181978500Y-110983700D02*
X181977000Y-110982200D01*
X184962500Y-110983700D02*
X181978500Y-110983700D01*
X188551500Y-107394700D02*
X184962500Y-110983700D01*
X188551500Y-88210200D02*
X188551500Y-107394700D01*
X181026600Y-80685300D02*
X188551500Y-88210200D01*
X177453000Y-80685300D02*
X181026600Y-80685300D01*
X177453000Y-70558000D02*
X177453000Y-80685300D01*
X176815200Y-69920200D02*
X177453000Y-70558000D01*
X168541500Y-69920200D02*
X176815200Y-69920200D01*
X168486700Y-69975000D02*
X168541500Y-69920200D01*
X161545000Y-108704000D02*
X162726700Y-108704000D01*
X162847800Y-108704000D02*
X162866400Y-108685400D01*
X162726700Y-108704000D02*
X162847800Y-108704000D01*
X166104700Y-108685400D02*
X162866400Y-108685400D01*
X166123300Y-108704000D02*
X166104700Y-108685400D01*
X167305000Y-108704000D02*
X166123300Y-108704000D01*
X181975500Y-110983700D02*
X181977000Y-110982200D01*
X179006900Y-110983700D02*
X181975500Y-110983700D01*
X175759000Y-107735800D02*
X179006900Y-110983700D01*
X175759000Y-104687400D02*
X175759000Y-107735800D01*
X165230400Y-69082100D02*
X163619600Y-69082100D01*
X166123300Y-69975000D02*
X165230400Y-69082100D01*
X167305000Y-95794300D02*
X166123300Y-95794300D01*
X161545000Y-95794300D02*
X160363300Y-95794300D01*
X160152700Y-95794300D02*
X160106800Y-95748400D01*
X160363300Y-95794300D02*
X160152700Y-95794300D01*
X154886600Y-92300100D02*
X160703500Y-92300100D01*
X154222700Y-92964000D02*
X154886600Y-92300100D01*
X160732600Y-81290700D02*
X160732600Y-81364300D01*
X154625900Y-75184000D02*
X160732600Y-81290700D01*
X153416000Y-75184000D02*
X154625900Y-75184000D01*
X168049400Y-92300100D02*
X160703500Y-92300100D01*
X175759000Y-100009700D02*
X168049400Y-92300100D01*
X175759000Y-104687400D02*
X175759000Y-100009700D01*
X163609600Y-97106900D02*
X163646200Y-97143500D01*
X163609600Y-96371300D02*
X163609600Y-97106900D01*
X164186600Y-95794300D02*
X163609600Y-96371300D01*
X166123300Y-95794300D02*
X164186600Y-95794300D01*
X175260000Y-82763700D02*
X175260000Y-82878300D01*
X177338400Y-80685300D02*
X175260000Y-82763700D01*
X177453000Y-80685300D02*
X177338400Y-80685300D01*
X156327600Y-95748400D02*
X160106800Y-95748400D01*
X152865700Y-99210300D02*
X156327600Y-95748400D01*
X145037900Y-99210300D02*
X152865700Y-99210300D01*
X144631900Y-99616300D02*
X145037900Y-99210300D01*
D32*
%TO.N,WR_3V3*%
X139053000Y-100482400D02*
X138219800Y-101315600D01*
X148132800Y-100482400D02*
X139053000Y-100482400D01*
%TO.N,MP10_3V3*%
X167305000Y-111304000D02*
X168386700Y-111304000D01*
X167305000Y-72575000D02*
X166223300Y-72575000D01*
X166223300Y-72579800D02*
X166021800Y-72781300D01*
X166223300Y-72575000D02*
X166223300Y-72579800D01*
X170224100Y-95500800D02*
X167925000Y-93201700D01*
X170224100Y-101922800D02*
X170224100Y-95500800D01*
X169635700Y-102511200D02*
X170224100Y-101922800D01*
X169635700Y-106842400D02*
X169635700Y-102511200D01*
X169738000Y-106944700D02*
X169635700Y-106842400D01*
X169738000Y-110028200D02*
X169738000Y-106944700D01*
X168462200Y-111304000D02*
X169738000Y-110028200D01*
X168386700Y-111304000D02*
X168462200Y-111304000D01*
X153908400Y-94008800D02*
X134387900Y-94008800D01*
X154871000Y-93046200D02*
X153908400Y-94008800D01*
X163496900Y-93046200D02*
X154871000Y-93046200D01*
X163697000Y-92846100D02*
X163496900Y-93046200D01*
X167569400Y-92846100D02*
X163697000Y-92846100D01*
X167925000Y-93201700D02*
X167569400Y-92846100D01*
%TO.N,INT3V3*%
X142157000Y-105562400D02*
X148132800Y-105562400D01*
X141080200Y-104485600D02*
X142157000Y-105562400D01*
%TO.N,SLTSL*%
X173736000Y-125984000D02*
X173736000Y-121618300D01*
X170676100Y-118558400D02*
X173736000Y-121618300D01*
X147100800Y-118558400D02*
X170676100Y-118558400D01*
X141689600Y-113147200D02*
X147100800Y-118558400D01*
X140164100Y-113147200D02*
X141689600Y-113147200D01*
X139964000Y-113347300D02*
X140164100Y-113147200D01*
%TO.N,RD_3V3*%
X139842900Y-102641600D02*
X139038100Y-101836800D01*
X147752000Y-102641600D02*
X139842900Y-102641600D01*
X148132800Y-103022400D02*
X147752000Y-102641600D01*
%TO.N,Net-(U6-B2)*%
X156825000Y-88650400D02*
X157171800Y-88303600D01*
X152734300Y-88650400D02*
X156825000Y-88650400D01*
X151253700Y-90131000D02*
X152734300Y-88650400D01*
X165295900Y-80828900D02*
X162838600Y-80828900D01*
X171265000Y-74859800D02*
X165295900Y-80828900D01*
X171265000Y-72164800D02*
X171265000Y-74859800D01*
%TO.N,INT*%
X167024800Y-119987100D02*
X163967600Y-119987100D01*
X168656000Y-121618300D02*
X167024800Y-119987100D01*
X168656000Y-125984000D02*
X168656000Y-121618300D01*
X152382800Y-101839800D02*
X155363600Y-104820600D01*
X140737600Y-101839800D02*
X152382800Y-101839800D01*
X140449800Y-101552000D02*
X140737600Y-101839800D01*
%TO.N,MP15_3V3*%
X167305000Y-75825000D02*
X166223300Y-75825000D01*
X166223300Y-76926700D02*
X166519800Y-77223200D01*
X166223300Y-75825000D02*
X166223300Y-76926700D01*
X167305000Y-114554000D02*
X168608800Y-114554000D01*
X167305000Y-114554000D02*
X166223300Y-114554000D01*
X162744800Y-118032500D02*
X166223300Y-114554000D01*
X147142900Y-118032500D02*
X162744800Y-118032500D01*
X141855900Y-112745500D02*
X147142900Y-118032500D01*
X133329700Y-112745500D02*
X141855900Y-112745500D01*
X130352800Y-115722400D02*
X133329700Y-112745500D01*
%TO.N,RD*%
X161036000Y-125984000D02*
X161036000Y-121618300D01*
X158889600Y-119471900D02*
X161036000Y-121618300D01*
X141447500Y-119471900D02*
X158889600Y-119471900D01*
X141235500Y-119259900D02*
X141447500Y-119471900D01*
%TO.N,BUSDIR3V3*%
X147338000Y-107307600D02*
X142681700Y-107307600D01*
X148132800Y-108102400D02*
X147338000Y-107307600D01*
%TO.N,BUSDIR*%
X166116000Y-125984000D02*
X166116000Y-121618300D01*
X164453000Y-121618300D02*
X166116000Y-121618300D01*
X161904900Y-119070200D02*
X164453000Y-121618300D01*
X142069200Y-119070200D02*
X161904900Y-119070200D01*
X141607200Y-118608200D02*
X142069200Y-119070200D01*
X138974200Y-118608200D02*
X141607200Y-118608200D01*
D33*
%TO.N,GND*%
X161545000Y-75825000D02*
X161545000Y-75175000D01*
X118234800Y-72542400D02*
X111460500Y-79316700D01*
X130352800Y-72542400D02*
X118234800Y-72542400D01*
X110580300Y-79316700D02*
X110580000Y-79316400D01*
X111460500Y-79316700D02*
X110580300Y-79316700D01*
X161545000Y-75825000D02*
X160363300Y-75825000D01*
X186348200Y-105639100D02*
X184277000Y-107710300D01*
X186749800Y-105639100D02*
X186348200Y-105639100D01*
X184277000Y-109347000D02*
X184277000Y-107710300D01*
X159965700Y-75825000D02*
X160363300Y-75825000D01*
X156683100Y-72542400D02*
X159965700Y-75825000D01*
X148132800Y-72542400D02*
X156683100Y-72542400D01*
X179079000Y-104687400D02*
X179079000Y-103735700D01*
X186749800Y-104687400D02*
X186749800Y-105012400D01*
X186749800Y-105012400D02*
X186749800Y-105639100D01*
X185473100Y-103735700D02*
X179079000Y-103735700D01*
X186749800Y-105012400D02*
X185473100Y-103735700D01*
X117386200Y-85242400D02*
X130352800Y-85242400D01*
X111460500Y-79316700D02*
X117386200Y-85242400D01*
X130352800Y-85242400D02*
X148132800Y-85242400D01*
X180340000Y-84265000D02*
X180340000Y-84958300D01*
X178646500Y-103303200D02*
X179079000Y-103735700D01*
X178646500Y-91535200D02*
X178646500Y-103303200D01*
X178646500Y-91535200D02*
X179070000Y-91111700D01*
X179070000Y-89725000D02*
X179070000Y-89735700D01*
X179070000Y-89735700D02*
X179070000Y-91111700D01*
X181610000Y-84265000D02*
X181610000Y-84958300D01*
X180340000Y-89725000D02*
X180340000Y-89570800D01*
X161545000Y-88734700D02*
X160363300Y-88734700D01*
X161545000Y-101644300D02*
X160363300Y-101644300D01*
X160363300Y-101762400D02*
X160228700Y-101897000D01*
X160363300Y-101644300D02*
X160363300Y-101762400D01*
X145992100Y-108501700D02*
X148132800Y-110642400D01*
X131606000Y-108501700D02*
X145992100Y-108501700D01*
X160363300Y-88937000D02*
X160204400Y-89095900D01*
X160363300Y-88734700D02*
X160363300Y-88937000D01*
X159609800Y-91535200D02*
X159518300Y-91443700D01*
X178646500Y-91535200D02*
X159609800Y-91535200D01*
X182880000Y-89725000D02*
X182880000Y-88338300D01*
X179234900Y-89570800D02*
X180340000Y-89570800D01*
X179070000Y-89735700D02*
X179234900Y-89570800D01*
X181244400Y-88338300D02*
X181515200Y-88338300D01*
X180340000Y-89242700D02*
X181244400Y-88338300D01*
X180340000Y-89570800D02*
X180340000Y-89242700D01*
X181515200Y-88338300D02*
X182880000Y-88338300D01*
X181515200Y-84958300D02*
X181515200Y-88338300D01*
X181515200Y-84958300D02*
X181610000Y-84958300D01*
X177800000Y-84265000D02*
X177800000Y-83571600D01*
X176530000Y-84265000D02*
X176530000Y-82878300D01*
X177800000Y-84265000D02*
X177800000Y-85651700D01*
X180340000Y-84958300D02*
X181515200Y-84958300D01*
X179646600Y-85651700D02*
X177800000Y-85651700D01*
X180340000Y-84958300D02*
X179646600Y-85651700D01*
X159515000Y-91447000D02*
X151975600Y-91447000D01*
X159518300Y-91443700D02*
X159515000Y-91447000D01*
X161545000Y-114554000D02*
X160363300Y-114554000D01*
X160363300Y-114554000D02*
X160238300Y-114554000D01*
X131606000Y-109389200D02*
X130352800Y-110642400D01*
X131606000Y-108501700D02*
X131606000Y-109389200D01*
X176589300Y-82426600D02*
X176589300Y-82878300D01*
X177106700Y-82878300D02*
X176589300Y-82878300D01*
X177800000Y-83571600D02*
X177106700Y-82878300D01*
X176589300Y-82878300D02*
X176530000Y-82878300D01*
X131606000Y-99195600D02*
X131606000Y-108501700D01*
X130352800Y-97942400D02*
X131606000Y-99195600D01*
D32*
%TO.N,RESET_3V3*%
X148132800Y-90322400D02*
X144148500Y-90322400D01*
%TD*%
M02*
