%TF.GenerationSoftware,KiCad,Pcbnew,8.0.1*%
%TF.CreationDate,2024-04-23T05:18:20-03:00*%
%TF.ProjectId,pico-msxcart,7069636f-2d6d-4737-9863-6172742e6b69,rev?*%
%TF.SameCoordinates,Original*%
%TF.FileFunction,Legend,Bot*%
%TF.FilePolarity,Positive*%
%FSLAX46Y46*%
G04 Gerber Fmt 4.6, Leading zero omitted, Abs format (unit mm)*
G04 Created by KiCad (PCBNEW 8.0.1) date 2024-04-23 05:18:20*
%MOMM*%
%LPD*%
G01*
G04 APERTURE LIST*
%ADD10C,0.100000*%
%ADD11C,0.127000*%
%ADD12C,0.200000*%
G04 APERTURE END LIST*
D10*
X140969904Y-101057419D02*
X140969904Y-101866942D01*
X140969904Y-101866942D02*
X140922285Y-101962180D01*
X140922285Y-101962180D02*
X140874666Y-102009800D01*
X140874666Y-102009800D02*
X140779428Y-102057419D01*
X140779428Y-102057419D02*
X140588952Y-102057419D01*
X140588952Y-102057419D02*
X140493714Y-102009800D01*
X140493714Y-102009800D02*
X140446095Y-101962180D01*
X140446095Y-101962180D02*
X140398476Y-101866942D01*
X140398476Y-101866942D02*
X140398476Y-101057419D01*
X139493714Y-101057419D02*
X139684190Y-101057419D01*
X139684190Y-101057419D02*
X139779428Y-101105038D01*
X139779428Y-101105038D02*
X139827047Y-101152657D01*
X139827047Y-101152657D02*
X139922285Y-101295514D01*
X139922285Y-101295514D02*
X139969904Y-101485990D01*
X139969904Y-101485990D02*
X139969904Y-101866942D01*
X139969904Y-101866942D02*
X139922285Y-101962180D01*
X139922285Y-101962180D02*
X139874666Y-102009800D01*
X139874666Y-102009800D02*
X139779428Y-102057419D01*
X139779428Y-102057419D02*
X139588952Y-102057419D01*
X139588952Y-102057419D02*
X139493714Y-102009800D01*
X139493714Y-102009800D02*
X139446095Y-101962180D01*
X139446095Y-101962180D02*
X139398476Y-101866942D01*
X139398476Y-101866942D02*
X139398476Y-101628847D01*
X139398476Y-101628847D02*
X139446095Y-101533609D01*
X139446095Y-101533609D02*
X139493714Y-101485990D01*
X139493714Y-101485990D02*
X139588952Y-101438371D01*
X139588952Y-101438371D02*
X139779428Y-101438371D01*
X139779428Y-101438371D02*
X139874666Y-101485990D01*
X139874666Y-101485990D02*
X139922285Y-101533609D01*
X139922285Y-101533609D02*
X139969904Y-101628847D01*
D11*
%TO.C,U6*%
X135763000Y-100660000D02*
X135763000Y-105160000D01*
X142363000Y-105160000D02*
X142363000Y-100660000D01*
D12*
X142594000Y-106970000D02*
G75*
G02*
X142394000Y-106970000I-100000J0D01*
G01*
X142394000Y-106970000D02*
G75*
G02*
X142594000Y-106970000I100000J0D01*
G01*
%TD*%
M02*
