%TF.GenerationSoftware,KiCad,Pcbnew,8.0.1*%
%TF.CreationDate,2024-04-22T15:40:42-03:00*%
%TF.ProjectId,pico-msxcart,7069636f-2d6d-4737-9863-6172742e6b69,rev?*%
%TF.SameCoordinates,Original*%
%TF.FileFunction,Soldermask,Bot*%
%TF.FilePolarity,Negative*%
%FSLAX46Y46*%
G04 Gerber Fmt 4.6, Leading zero omitted, Abs format (unit mm)*
G04 Created by KiCad (PCBNEW 8.0.1) date 2024-04-22 15:40:42*
%MOMM*%
%LPD*%
G01*
G04 APERTURE LIST*
G04 Aperture macros list*
%AMRoundRect*
0 Rectangle with rounded corners*
0 $1 Rounding radius*
0 $2 $3 $4 $5 $6 $7 $8 $9 X,Y pos of 4 corners*
0 Add a 4 corners polygon primitive as box body*
4,1,4,$2,$3,$4,$5,$6,$7,$8,$9,$2,$3,0*
0 Add four circle primitives for the rounded corners*
1,1,$1+$1,$2,$3*
1,1,$1+$1,$4,$5*
1,1,$1+$1,$6,$7*
1,1,$1+$1,$8,$9*
0 Add four rect primitives between the rounded corners*
20,1,$1+$1,$2,$3,$4,$5,0*
20,1,$1+$1,$4,$5,$6,$7,0*
20,1,$1+$1,$6,$7,$8,$9,0*
20,1,$1+$1,$8,$9,$2,$3,0*%
%AMFreePoly0*
4,1,28,0.605014,0.794986,0.644504,0.794986,0.724698,0.756366,0.780194,0.686777,0.800000,0.600000,0.800000,-0.600000,0.780194,-0.686777,0.724698,-0.756366,0.644504,-0.794986,0.605014,-0.794986,0.600000,-0.800000,0.000000,-0.800000,-0.178017,-0.779942,-0.347107,-0.720775,-0.498792,-0.625465,-0.625465,-0.498792,-0.720775,-0.347107,-0.779942,-0.178017,-0.800000,0.000000,-0.779942,0.178017,
-0.720775,0.347107,-0.625465,0.498792,-0.498792,0.625465,-0.347107,0.720775,-0.178017,0.779942,0.000000,0.800000,0.600000,0.800000,0.605014,0.794986,0.605014,0.794986,$1*%
%AMFreePoly1*
4,1,28,0.178017,0.779942,0.347107,0.720775,0.498792,0.625465,0.625465,0.498792,0.720775,0.347107,0.779942,0.178017,0.800000,0.000000,0.779942,-0.178017,0.720775,-0.347107,0.625465,-0.498792,0.498792,-0.625465,0.347107,-0.720775,0.178017,-0.779942,0.000000,-0.800000,-0.600000,-0.800000,-0.605014,-0.794986,-0.644504,-0.794986,-0.724698,-0.756366,-0.780194,-0.686777,-0.800000,-0.600000,
-0.800000,0.600000,-0.780194,0.686777,-0.724698,0.756366,-0.644504,0.794986,-0.605014,0.794986,-0.600000,0.800000,0.000000,0.800000,0.178017,0.779942,0.178017,0.779942,$1*%
G04 Aperture macros list end*
%ADD10C,4.064000*%
%ADD11RoundRect,0.480060X0.205740X-4.015740X0.205740X4.015740X-0.205740X4.015740X-0.205740X-4.015740X0*%
%ADD12RoundRect,0.102000X0.714000X0.714000X-0.714000X0.714000X-0.714000X-0.714000X0.714000X-0.714000X0*%
%ADD13C,1.632000*%
%ADD14C,3.520000*%
%ADD15C,1.850000*%
%ADD16RoundRect,0.200000X-0.600000X-0.600000X0.600000X-0.600000X0.600000X0.600000X-0.600000X0.600000X0*%
%ADD17C,1.600000*%
%ADD18FreePoly0,0.000000*%
%ADD19FreePoly1,0.000000*%
%ADD20O,2.284000X1.244000*%
G04 APERTURE END LIST*
D10*
%TO.C,J1*%
X119157750Y-103219250D03*
X174561500Y-108140500D03*
D11*
X176784000Y-123698000D03*
X174244000Y-123698000D03*
X171704000Y-123698000D03*
X169164000Y-123698000D03*
X166624000Y-123698000D03*
X164084000Y-123698000D03*
X161544000Y-123698000D03*
X159004000Y-123698000D03*
X156464000Y-123698000D03*
X153924000Y-123698000D03*
X151384000Y-123698000D03*
X148844000Y-123698000D03*
X146304000Y-123698000D03*
X143764000Y-123698000D03*
X141224000Y-123698000D03*
X138684000Y-123698000D03*
X136144000Y-123698000D03*
X133604000Y-123698000D03*
X131064000Y-123698000D03*
X128524000Y-123698000D03*
X125984000Y-123698000D03*
X123444000Y-123698000D03*
X120904000Y-123698000D03*
X118364000Y-123698000D03*
X115824000Y-123698000D03*
%TD*%
D12*
%TO.C,J2*%
X117580000Y-79316400D03*
D13*
X115080000Y-79316400D03*
X113080000Y-79316400D03*
X110580000Y-79316400D03*
D14*
X120650000Y-76606400D03*
X107510000Y-76606400D03*
%TD*%
D15*
%TO.C,U1*%
X136817780Y-70622423D03*
X141667780Y-70622423D03*
D16*
X130352780Y-67462423D03*
D17*
X130352780Y-70002423D03*
D18*
X130352780Y-72542423D03*
D17*
X130352780Y-75082423D03*
X130352780Y-77622423D03*
X130352780Y-80162423D03*
X130352780Y-82702423D03*
D18*
X130352780Y-85242423D03*
D17*
X130352780Y-87782423D03*
X130352780Y-90322423D03*
X130352780Y-92862423D03*
X130352780Y-95402423D03*
D18*
X130352780Y-97942423D03*
D17*
X130352780Y-100482423D03*
X130352780Y-103022423D03*
X130352780Y-105562423D03*
X130352780Y-108102423D03*
D18*
X130352780Y-110642423D03*
D17*
X130352780Y-113182423D03*
X130352780Y-115722423D03*
X148132780Y-115722423D03*
X148132780Y-113182423D03*
D19*
X148132780Y-110642423D03*
D17*
X148132780Y-108102423D03*
X148132780Y-105562423D03*
X148132780Y-103022423D03*
X148132780Y-100482423D03*
D19*
X148132780Y-97942423D03*
D17*
X148132780Y-95402423D03*
X148132780Y-92862423D03*
X148132780Y-90322423D03*
X148132780Y-87782423D03*
D19*
X148132780Y-85242423D03*
D17*
X148132780Y-82702423D03*
X148132780Y-80162423D03*
X148132780Y-77622423D03*
X148132780Y-75082423D03*
D19*
X148132780Y-72542423D03*
D17*
X148132780Y-70002423D03*
X148132780Y-67462423D03*
%TD*%
D20*
%TO.C,Q1*%
X175964000Y-73434800D03*
X175964000Y-72164800D03*
X175964000Y-70894800D03*
%TD*%
M02*
