%TF.GenerationSoftware,KiCad,Pcbnew,8.0.1*%
%TF.CreationDate,2024-04-23T05:18:20-03:00*%
%TF.ProjectId,pico-msxcart,7069636f-2d6d-4737-9863-6172742e6b69,rev?*%
%TF.SameCoordinates,Original*%
%TF.FileFunction,Legend,Top*%
%TF.FilePolarity,Positive*%
%FSLAX46Y46*%
G04 Gerber Fmt 4.6, Leading zero omitted, Abs format (unit mm)*
G04 Created by KiCad (PCBNEW 8.0.1) date 2024-04-23 05:18:20*
%MOMM*%
%LPD*%
G01*
G04 APERTURE LIST*
%ADD10C,0.200000*%
%ADD11C,0.300000*%
%ADD12C,0.187500*%
%ADD13C,0.162500*%
%ADD14C,0.150000*%
%ADD15C,0.100000*%
%ADD16C,0.127000*%
%ADD17C,0.120000*%
G04 APERTURE END LIST*
D10*
X147066000Y-119888000D02*
X138176000Y-117348000D01*
X155956000Y-117348000D01*
X147066000Y-119888000D01*
G36*
X147066000Y-119888000D02*
G01*
X138176000Y-117348000D01*
X155956000Y-117348000D01*
X147066000Y-119888000D01*
G37*
D11*
X144604828Y-94216117D02*
X145676257Y-94216117D01*
X145676257Y-94216117D02*
X145890542Y-94287546D01*
X145890542Y-94287546D02*
X146033400Y-94430403D01*
X146033400Y-94430403D02*
X146104828Y-94644689D01*
X146104828Y-94644689D02*
X146104828Y-94787546D01*
X146104828Y-92787546D02*
X146104828Y-93501832D01*
X146104828Y-93501832D02*
X144604828Y-93501832D01*
X145961971Y-91430403D02*
X146033400Y-91501831D01*
X146033400Y-91501831D02*
X146104828Y-91716117D01*
X146104828Y-91716117D02*
X146104828Y-91858974D01*
X146104828Y-91858974D02*
X146033400Y-92073260D01*
X146033400Y-92073260D02*
X145890542Y-92216117D01*
X145890542Y-92216117D02*
X145747685Y-92287546D01*
X145747685Y-92287546D02*
X145461971Y-92358974D01*
X145461971Y-92358974D02*
X145247685Y-92358974D01*
X145247685Y-92358974D02*
X144961971Y-92287546D01*
X144961971Y-92287546D02*
X144819114Y-92216117D01*
X144819114Y-92216117D02*
X144676257Y-92073260D01*
X144676257Y-92073260D02*
X144604828Y-91858974D01*
X144604828Y-91858974D02*
X144604828Y-91716117D01*
X144604828Y-91716117D02*
X144676257Y-91501831D01*
X144676257Y-91501831D02*
X144747685Y-91430403D01*
X144604828Y-90358974D02*
X145676257Y-90358974D01*
X145676257Y-90358974D02*
X145890542Y-90430403D01*
X145890542Y-90430403D02*
X146033400Y-90573260D01*
X146033400Y-90573260D02*
X146104828Y-90787546D01*
X146104828Y-90787546D02*
X146104828Y-90930403D01*
X146104828Y-88930403D02*
X146104828Y-89644689D01*
X146104828Y-89644689D02*
X144604828Y-89644689D01*
X145961971Y-87573260D02*
X146033400Y-87644688D01*
X146033400Y-87644688D02*
X146104828Y-87858974D01*
X146104828Y-87858974D02*
X146104828Y-88001831D01*
X146104828Y-88001831D02*
X146033400Y-88216117D01*
X146033400Y-88216117D02*
X145890542Y-88358974D01*
X145890542Y-88358974D02*
X145747685Y-88430403D01*
X145747685Y-88430403D02*
X145461971Y-88501831D01*
X145461971Y-88501831D02*
X145247685Y-88501831D01*
X145247685Y-88501831D02*
X144961971Y-88430403D01*
X144961971Y-88430403D02*
X144819114Y-88358974D01*
X144819114Y-88358974D02*
X144676257Y-88216117D01*
X144676257Y-88216117D02*
X144604828Y-88001831D01*
X144604828Y-88001831D02*
X144604828Y-87858974D01*
X144604828Y-87858974D02*
X144676257Y-87644688D01*
X144676257Y-87644688D02*
X144747685Y-87573260D01*
X144604828Y-86501831D02*
X145676257Y-86501831D01*
X145676257Y-86501831D02*
X145890542Y-86573260D01*
X145890542Y-86573260D02*
X146033400Y-86716117D01*
X146033400Y-86716117D02*
X146104828Y-86930403D01*
X146104828Y-86930403D02*
X146104828Y-87073260D01*
X146104828Y-85073260D02*
X146104828Y-85787546D01*
X146104828Y-85787546D02*
X144604828Y-85787546D01*
X145961971Y-83716117D02*
X146033400Y-83787545D01*
X146033400Y-83787545D02*
X146104828Y-84001831D01*
X146104828Y-84001831D02*
X146104828Y-84144688D01*
X146104828Y-84144688D02*
X146033400Y-84358974D01*
X146033400Y-84358974D02*
X145890542Y-84501831D01*
X145890542Y-84501831D02*
X145747685Y-84573260D01*
X145747685Y-84573260D02*
X145461971Y-84644688D01*
X145461971Y-84644688D02*
X145247685Y-84644688D01*
X145247685Y-84644688D02*
X144961971Y-84573260D01*
X144961971Y-84573260D02*
X144819114Y-84501831D01*
X144819114Y-84501831D02*
X144676257Y-84358974D01*
X144676257Y-84358974D02*
X144604828Y-84144688D01*
X144604828Y-84144688D02*
X144604828Y-84001831D01*
X144604828Y-84001831D02*
X144676257Y-83787545D01*
X144676257Y-83787545D02*
X144747685Y-83716117D01*
X144604828Y-82644688D02*
X145676257Y-82644688D01*
X145676257Y-82644688D02*
X145890542Y-82716117D01*
X145890542Y-82716117D02*
X146033400Y-82858974D01*
X146033400Y-82858974D02*
X146104828Y-83073260D01*
X146104828Y-83073260D02*
X146104828Y-83216117D01*
X146104828Y-81216117D02*
X146104828Y-81930403D01*
X146104828Y-81930403D02*
X144604828Y-81930403D01*
X145961971Y-79858974D02*
X146033400Y-79930402D01*
X146033400Y-79930402D02*
X146104828Y-80144688D01*
X146104828Y-80144688D02*
X146104828Y-80287545D01*
X146104828Y-80287545D02*
X146033400Y-80501831D01*
X146033400Y-80501831D02*
X145890542Y-80644688D01*
X145890542Y-80644688D02*
X145747685Y-80716117D01*
X145747685Y-80716117D02*
X145461971Y-80787545D01*
X145461971Y-80787545D02*
X145247685Y-80787545D01*
X145247685Y-80787545D02*
X144961971Y-80716117D01*
X144961971Y-80716117D02*
X144819114Y-80644688D01*
X144819114Y-80644688D02*
X144676257Y-80501831D01*
X144676257Y-80501831D02*
X144604828Y-80287545D01*
X144604828Y-80287545D02*
X144604828Y-80144688D01*
X144604828Y-80144688D02*
X144676257Y-79930402D01*
X144676257Y-79930402D02*
X144747685Y-79858974D01*
D12*
X112720454Y-80882631D02*
X113520454Y-80882631D01*
X113520454Y-80882631D02*
X113520454Y-81073107D01*
X113520454Y-81073107D02*
X113482359Y-81187393D01*
X113482359Y-81187393D02*
X113406169Y-81263583D01*
X113406169Y-81263583D02*
X113329978Y-81301678D01*
X113329978Y-81301678D02*
X113177597Y-81339774D01*
X113177597Y-81339774D02*
X113063311Y-81339774D01*
X113063311Y-81339774D02*
X112910930Y-81301678D01*
X112910930Y-81301678D02*
X112834740Y-81263583D01*
X112834740Y-81263583D02*
X112758550Y-81187393D01*
X112758550Y-81187393D02*
X112720454Y-81073107D01*
X112720454Y-81073107D02*
X112720454Y-80882631D01*
X113025216Y-81682631D02*
X113025216Y-82292155D01*
X112720454Y-81987393D02*
X113329978Y-81987393D01*
D13*
X92644216Y-94175575D02*
X91244216Y-94175575D01*
X91244216Y-94175575D02*
X91244216Y-93642242D01*
X91244216Y-93642242D02*
X91310883Y-93508909D01*
X91310883Y-93508909D02*
X91377550Y-93442242D01*
X91377550Y-93442242D02*
X91510883Y-93375575D01*
X91510883Y-93375575D02*
X91710883Y-93375575D01*
X91710883Y-93375575D02*
X91844216Y-93442242D01*
X91844216Y-93442242D02*
X91910883Y-93508909D01*
X91910883Y-93508909D02*
X91977550Y-93642242D01*
X91977550Y-93642242D02*
X91977550Y-94175575D01*
X92644216Y-92775575D02*
X91244216Y-92775575D01*
X92510883Y-91308908D02*
X92577550Y-91375575D01*
X92577550Y-91375575D02*
X92644216Y-91575575D01*
X92644216Y-91575575D02*
X92644216Y-91708908D01*
X92644216Y-91708908D02*
X92577550Y-91908908D01*
X92577550Y-91908908D02*
X92444216Y-92042242D01*
X92444216Y-92042242D02*
X92310883Y-92108908D01*
X92310883Y-92108908D02*
X92044216Y-92175575D01*
X92044216Y-92175575D02*
X91844216Y-92175575D01*
X91844216Y-92175575D02*
X91577550Y-92108908D01*
X91577550Y-92108908D02*
X91444216Y-92042242D01*
X91444216Y-92042242D02*
X91310883Y-91908908D01*
X91310883Y-91908908D02*
X91244216Y-91708908D01*
X91244216Y-91708908D02*
X91244216Y-91575575D01*
X91244216Y-91575575D02*
X91310883Y-91375575D01*
X91310883Y-91375575D02*
X91377550Y-91308908D01*
X91244216Y-90442242D02*
X91244216Y-90175575D01*
X91244216Y-90175575D02*
X91310883Y-90042242D01*
X91310883Y-90042242D02*
X91444216Y-89908908D01*
X91444216Y-89908908D02*
X91710883Y-89842242D01*
X91710883Y-89842242D02*
X92177550Y-89842242D01*
X92177550Y-89842242D02*
X92444216Y-89908908D01*
X92444216Y-89908908D02*
X92577550Y-90042242D01*
X92577550Y-90042242D02*
X92644216Y-90175575D01*
X92644216Y-90175575D02*
X92644216Y-90442242D01*
X92644216Y-90442242D02*
X92577550Y-90575575D01*
X92577550Y-90575575D02*
X92444216Y-90708908D01*
X92444216Y-90708908D02*
X92177550Y-90775575D01*
X92177550Y-90775575D02*
X91710883Y-90775575D01*
X91710883Y-90775575D02*
X91444216Y-90708908D01*
X91444216Y-90708908D02*
X91310883Y-90575575D01*
X91310883Y-90575575D02*
X91244216Y-90442242D01*
X92644216Y-89242241D02*
X91244216Y-89242241D01*
X91244216Y-89242241D02*
X92244216Y-88775575D01*
X92244216Y-88775575D02*
X91244216Y-88308908D01*
X91244216Y-88308908D02*
X92644216Y-88308908D01*
X92577550Y-87708908D02*
X92644216Y-87508908D01*
X92644216Y-87508908D02*
X92644216Y-87175575D01*
X92644216Y-87175575D02*
X92577550Y-87042241D01*
X92577550Y-87042241D02*
X92510883Y-86975575D01*
X92510883Y-86975575D02*
X92377550Y-86908908D01*
X92377550Y-86908908D02*
X92244216Y-86908908D01*
X92244216Y-86908908D02*
X92110883Y-86975575D01*
X92110883Y-86975575D02*
X92044216Y-87042241D01*
X92044216Y-87042241D02*
X91977550Y-87175575D01*
X91977550Y-87175575D02*
X91910883Y-87442241D01*
X91910883Y-87442241D02*
X91844216Y-87575575D01*
X91844216Y-87575575D02*
X91777550Y-87642241D01*
X91777550Y-87642241D02*
X91644216Y-87708908D01*
X91644216Y-87708908D02*
X91510883Y-87708908D01*
X91510883Y-87708908D02*
X91377550Y-87642241D01*
X91377550Y-87642241D02*
X91310883Y-87575575D01*
X91310883Y-87575575D02*
X91244216Y-87442241D01*
X91244216Y-87442241D02*
X91244216Y-87108908D01*
X91244216Y-87108908D02*
X91310883Y-86908908D01*
X91244216Y-86442242D02*
X92644216Y-85508908D01*
X91244216Y-85508908D02*
X92644216Y-86442242D01*
X92644216Y-83908908D02*
X91244216Y-83908908D01*
X91244216Y-83908908D02*
X91244216Y-83375575D01*
X91244216Y-83375575D02*
X91310883Y-83242242D01*
X91310883Y-83242242D02*
X91377550Y-83175575D01*
X91377550Y-83175575D02*
X91510883Y-83108908D01*
X91510883Y-83108908D02*
X91710883Y-83108908D01*
X91710883Y-83108908D02*
X91844216Y-83175575D01*
X91844216Y-83175575D02*
X91910883Y-83242242D01*
X91910883Y-83242242D02*
X91977550Y-83375575D01*
X91977550Y-83375575D02*
X91977550Y-83908908D01*
X92644216Y-81708908D02*
X91977550Y-82175575D01*
X92644216Y-82508908D02*
X91244216Y-82508908D01*
X91244216Y-82508908D02*
X91244216Y-81975575D01*
X91244216Y-81975575D02*
X91310883Y-81842242D01*
X91310883Y-81842242D02*
X91377550Y-81775575D01*
X91377550Y-81775575D02*
X91510883Y-81708908D01*
X91510883Y-81708908D02*
X91710883Y-81708908D01*
X91710883Y-81708908D02*
X91844216Y-81775575D01*
X91844216Y-81775575D02*
X91910883Y-81842242D01*
X91910883Y-81842242D02*
X91977550Y-81975575D01*
X91977550Y-81975575D02*
X91977550Y-82508908D01*
X91244216Y-80842242D02*
X91244216Y-80575575D01*
X91244216Y-80575575D02*
X91310883Y-80442242D01*
X91310883Y-80442242D02*
X91444216Y-80308908D01*
X91444216Y-80308908D02*
X91710883Y-80242242D01*
X91710883Y-80242242D02*
X92177550Y-80242242D01*
X92177550Y-80242242D02*
X92444216Y-80308908D01*
X92444216Y-80308908D02*
X92577550Y-80442242D01*
X92577550Y-80442242D02*
X92644216Y-80575575D01*
X92644216Y-80575575D02*
X92644216Y-80842242D01*
X92644216Y-80842242D02*
X92577550Y-80975575D01*
X92577550Y-80975575D02*
X92444216Y-81108908D01*
X92444216Y-81108908D02*
X92177550Y-81175575D01*
X92177550Y-81175575D02*
X91710883Y-81175575D01*
X91710883Y-81175575D02*
X91444216Y-81108908D01*
X91444216Y-81108908D02*
X91310883Y-80975575D01*
X91310883Y-80975575D02*
X91244216Y-80842242D01*
X91244216Y-79842241D02*
X91244216Y-79042241D01*
X92644216Y-79442241D02*
X91244216Y-79442241D01*
X91244216Y-78308908D02*
X91244216Y-78042241D01*
X91244216Y-78042241D02*
X91310883Y-77908908D01*
X91310883Y-77908908D02*
X91444216Y-77775574D01*
X91444216Y-77775574D02*
X91710883Y-77708908D01*
X91710883Y-77708908D02*
X92177550Y-77708908D01*
X92177550Y-77708908D02*
X92444216Y-77775574D01*
X92444216Y-77775574D02*
X92577550Y-77908908D01*
X92577550Y-77908908D02*
X92644216Y-78042241D01*
X92644216Y-78042241D02*
X92644216Y-78308908D01*
X92644216Y-78308908D02*
X92577550Y-78442241D01*
X92577550Y-78442241D02*
X92444216Y-78575574D01*
X92444216Y-78575574D02*
X92177550Y-78642241D01*
X92177550Y-78642241D02*
X91710883Y-78642241D01*
X91710883Y-78642241D02*
X91444216Y-78575574D01*
X91444216Y-78575574D02*
X91310883Y-78442241D01*
X91310883Y-78442241D02*
X91244216Y-78308908D01*
X91244216Y-77308907D02*
X91244216Y-76508907D01*
X92644216Y-76908907D02*
X91244216Y-76908907D01*
X91977550Y-75775574D02*
X92644216Y-75775574D01*
X91244216Y-76242240D02*
X91977550Y-75775574D01*
X91977550Y-75775574D02*
X91244216Y-75308907D01*
X92644216Y-74842240D02*
X91244216Y-74842240D01*
X91244216Y-74842240D02*
X91244216Y-74308907D01*
X91244216Y-74308907D02*
X91310883Y-74175574D01*
X91310883Y-74175574D02*
X91377550Y-74108907D01*
X91377550Y-74108907D02*
X91510883Y-74042240D01*
X91510883Y-74042240D02*
X91710883Y-74042240D01*
X91710883Y-74042240D02*
X91844216Y-74108907D01*
X91844216Y-74108907D02*
X91910883Y-74175574D01*
X91910883Y-74175574D02*
X91977550Y-74308907D01*
X91977550Y-74308907D02*
X91977550Y-74842240D01*
X91910883Y-73442240D02*
X91910883Y-72975574D01*
X92644216Y-72775574D02*
X92644216Y-73442240D01*
X92644216Y-73442240D02*
X91244216Y-73442240D01*
X91244216Y-73442240D02*
X91244216Y-72775574D01*
X91244216Y-71308906D02*
X92644216Y-70842240D01*
X92644216Y-70842240D02*
X91244216Y-70375573D01*
X92644216Y-69175573D02*
X92644216Y-69975573D01*
X92644216Y-69575573D02*
X91244216Y-69575573D01*
X91244216Y-69575573D02*
X91444216Y-69708906D01*
X91444216Y-69708906D02*
X91577550Y-69842240D01*
X91577550Y-69842240D02*
X91644216Y-69975573D01*
X92510883Y-68575573D02*
X92577550Y-68508907D01*
X92577550Y-68508907D02*
X92644216Y-68575573D01*
X92644216Y-68575573D02*
X92577550Y-68642240D01*
X92577550Y-68642240D02*
X92510883Y-68575573D01*
X92510883Y-68575573D02*
X92644216Y-68575573D01*
X91244216Y-67642240D02*
X91244216Y-67508906D01*
X91244216Y-67508906D02*
X91310883Y-67375573D01*
X91310883Y-67375573D02*
X91377550Y-67308906D01*
X91377550Y-67308906D02*
X91510883Y-67242240D01*
X91510883Y-67242240D02*
X91777550Y-67175573D01*
X91777550Y-67175573D02*
X92110883Y-67175573D01*
X92110883Y-67175573D02*
X92377550Y-67242240D01*
X92377550Y-67242240D02*
X92510883Y-67308906D01*
X92510883Y-67308906D02*
X92577550Y-67375573D01*
X92577550Y-67375573D02*
X92644216Y-67508906D01*
X92644216Y-67508906D02*
X92644216Y-67642240D01*
X92644216Y-67642240D02*
X92577550Y-67775573D01*
X92577550Y-67775573D02*
X92510883Y-67842240D01*
X92510883Y-67842240D02*
X92377550Y-67908906D01*
X92377550Y-67908906D02*
X92110883Y-67975573D01*
X92110883Y-67975573D02*
X91777550Y-67975573D01*
X91777550Y-67975573D02*
X91510883Y-67908906D01*
X91510883Y-67908906D02*
X91377550Y-67842240D01*
X91377550Y-67842240D02*
X91310883Y-67775573D01*
X91310883Y-67775573D02*
X91244216Y-67642240D01*
X94764805Y-89775574D02*
X94831472Y-89842241D01*
X94831472Y-89842241D02*
X94898138Y-90042241D01*
X94898138Y-90042241D02*
X94898138Y-90175574D01*
X94898138Y-90175574D02*
X94831472Y-90375574D01*
X94831472Y-90375574D02*
X94698138Y-90508908D01*
X94698138Y-90508908D02*
X94564805Y-90575574D01*
X94564805Y-90575574D02*
X94298138Y-90642241D01*
X94298138Y-90642241D02*
X94098138Y-90642241D01*
X94098138Y-90642241D02*
X93831472Y-90575574D01*
X93831472Y-90575574D02*
X93698138Y-90508908D01*
X93698138Y-90508908D02*
X93564805Y-90375574D01*
X93564805Y-90375574D02*
X93498138Y-90175574D01*
X93498138Y-90175574D02*
X93498138Y-90042241D01*
X93498138Y-90042241D02*
X93564805Y-89842241D01*
X93564805Y-89842241D02*
X93631472Y-89775574D01*
X94898138Y-89175574D02*
X93498138Y-89175574D01*
X94898138Y-88575574D02*
X94164805Y-88575574D01*
X94164805Y-88575574D02*
X94031472Y-88642241D01*
X94031472Y-88642241D02*
X93964805Y-88775574D01*
X93964805Y-88775574D02*
X93964805Y-88975574D01*
X93964805Y-88975574D02*
X94031472Y-89108908D01*
X94031472Y-89108908D02*
X94098138Y-89175574D01*
X94898138Y-87308907D02*
X94164805Y-87308907D01*
X94164805Y-87308907D02*
X94031472Y-87375574D01*
X94031472Y-87375574D02*
X93964805Y-87508907D01*
X93964805Y-87508907D02*
X93964805Y-87775574D01*
X93964805Y-87775574D02*
X94031472Y-87908907D01*
X94831472Y-87308907D02*
X94898138Y-87442241D01*
X94898138Y-87442241D02*
X94898138Y-87775574D01*
X94898138Y-87775574D02*
X94831472Y-87908907D01*
X94831472Y-87908907D02*
X94698138Y-87975574D01*
X94698138Y-87975574D02*
X94564805Y-87975574D01*
X94564805Y-87975574D02*
X94431472Y-87908907D01*
X94431472Y-87908907D02*
X94364805Y-87775574D01*
X94364805Y-87775574D02*
X94364805Y-87442241D01*
X94364805Y-87442241D02*
X94298138Y-87308907D01*
X93964805Y-86642240D02*
X94898138Y-86642240D01*
X94098138Y-86642240D02*
X94031472Y-86575574D01*
X94031472Y-86575574D02*
X93964805Y-86442240D01*
X93964805Y-86442240D02*
X93964805Y-86242240D01*
X93964805Y-86242240D02*
X94031472Y-86108907D01*
X94031472Y-86108907D02*
X94164805Y-86042240D01*
X94164805Y-86042240D02*
X94898138Y-86042240D01*
X94898138Y-84775573D02*
X93498138Y-84775573D01*
X94831472Y-84775573D02*
X94898138Y-84908907D01*
X94898138Y-84908907D02*
X94898138Y-85175573D01*
X94898138Y-85175573D02*
X94831472Y-85308907D01*
X94831472Y-85308907D02*
X94764805Y-85375573D01*
X94764805Y-85375573D02*
X94631472Y-85442240D01*
X94631472Y-85442240D02*
X94231472Y-85442240D01*
X94231472Y-85442240D02*
X94098138Y-85375573D01*
X94098138Y-85375573D02*
X94031472Y-85308907D01*
X94031472Y-85308907D02*
X93964805Y-85175573D01*
X93964805Y-85175573D02*
X93964805Y-84908907D01*
X93964805Y-84908907D02*
X94031472Y-84775573D01*
X94898138Y-83908906D02*
X94831472Y-84042240D01*
X94831472Y-84042240D02*
X94698138Y-84108906D01*
X94698138Y-84108906D02*
X93498138Y-84108906D01*
X94831472Y-82842240D02*
X94898138Y-82975573D01*
X94898138Y-82975573D02*
X94898138Y-83242240D01*
X94898138Y-83242240D02*
X94831472Y-83375573D01*
X94831472Y-83375573D02*
X94698138Y-83442240D01*
X94698138Y-83442240D02*
X94164805Y-83442240D01*
X94164805Y-83442240D02*
X94031472Y-83375573D01*
X94031472Y-83375573D02*
X93964805Y-83242240D01*
X93964805Y-83242240D02*
X93964805Y-82975573D01*
X93964805Y-82975573D02*
X94031472Y-82842240D01*
X94031472Y-82842240D02*
X94164805Y-82775573D01*
X94164805Y-82775573D02*
X94298138Y-82775573D01*
X94298138Y-82775573D02*
X94431472Y-83442240D01*
X94898138Y-82175573D02*
X93964805Y-82175573D01*
X94231472Y-82175573D02*
X94098138Y-82108907D01*
X94098138Y-82108907D02*
X94031472Y-82042240D01*
X94031472Y-82042240D02*
X93964805Y-81908907D01*
X93964805Y-81908907D02*
X93964805Y-81775573D01*
X94898138Y-80242239D02*
X93498138Y-80242239D01*
X94898138Y-79442239D02*
X94098138Y-80042239D01*
X93498138Y-79442239D02*
X94298138Y-80242239D01*
X94898138Y-78642239D02*
X94831472Y-78775573D01*
X94831472Y-78775573D02*
X94698138Y-78842239D01*
X94698138Y-78842239D02*
X93498138Y-78842239D01*
X93964805Y-77508906D02*
X94898138Y-77508906D01*
X93964805Y-78108906D02*
X94698138Y-78108906D01*
X94698138Y-78108906D02*
X94831472Y-78042240D01*
X94831472Y-78042240D02*
X94898138Y-77908906D01*
X94898138Y-77908906D02*
X94898138Y-77708906D01*
X94898138Y-77708906D02*
X94831472Y-77575573D01*
X94831472Y-77575573D02*
X94764805Y-77508906D01*
X93498138Y-78042240D02*
X93564805Y-77975573D01*
X93564805Y-77975573D02*
X93631472Y-78042240D01*
X93631472Y-78042240D02*
X93564805Y-78108906D01*
X93564805Y-78108906D02*
X93498138Y-78042240D01*
X93498138Y-78042240D02*
X93631472Y-78042240D01*
X93498138Y-77508906D02*
X93564805Y-77442240D01*
X93564805Y-77442240D02*
X93631472Y-77508906D01*
X93631472Y-77508906D02*
X93564805Y-77575573D01*
X93564805Y-77575573D02*
X93498138Y-77508906D01*
X93498138Y-77508906D02*
X93631472Y-77508906D01*
X94831472Y-76908906D02*
X94898138Y-76775573D01*
X94898138Y-76775573D02*
X94898138Y-76508906D01*
X94898138Y-76508906D02*
X94831472Y-76375573D01*
X94831472Y-76375573D02*
X94698138Y-76308906D01*
X94698138Y-76308906D02*
X94631472Y-76308906D01*
X94631472Y-76308906D02*
X94498138Y-76375573D01*
X94498138Y-76375573D02*
X94431472Y-76508906D01*
X94431472Y-76508906D02*
X94431472Y-76708906D01*
X94431472Y-76708906D02*
X94364805Y-76842239D01*
X94364805Y-76842239D02*
X94231472Y-76908906D01*
X94231472Y-76908906D02*
X94164805Y-76908906D01*
X94164805Y-76908906D02*
X94031472Y-76842239D01*
X94031472Y-76842239D02*
X93964805Y-76708906D01*
X93964805Y-76708906D02*
X93964805Y-76508906D01*
X93964805Y-76508906D02*
X94031472Y-76375573D01*
X94831472Y-75175573D02*
X94898138Y-75308906D01*
X94898138Y-75308906D02*
X94898138Y-75575573D01*
X94898138Y-75575573D02*
X94831472Y-75708906D01*
X94831472Y-75708906D02*
X94698138Y-75775573D01*
X94698138Y-75775573D02*
X94164805Y-75775573D01*
X94164805Y-75775573D02*
X94031472Y-75708906D01*
X94031472Y-75708906D02*
X93964805Y-75575573D01*
X93964805Y-75575573D02*
X93964805Y-75308906D01*
X93964805Y-75308906D02*
X94031472Y-75175573D01*
X94031472Y-75175573D02*
X94164805Y-75108906D01*
X94164805Y-75108906D02*
X94298138Y-75108906D01*
X94298138Y-75108906D02*
X94431472Y-75775573D01*
X94898138Y-74508906D02*
X93964805Y-74508906D01*
X94231472Y-74508906D02*
X94098138Y-74442240D01*
X94098138Y-74442240D02*
X94031472Y-74375573D01*
X94031472Y-74375573D02*
X93964805Y-74242240D01*
X93964805Y-74242240D02*
X93964805Y-74108906D01*
X94831472Y-73575573D02*
X94898138Y-73575573D01*
X94898138Y-73575573D02*
X95031472Y-73642239D01*
X95031472Y-73642239D02*
X95098138Y-73708906D01*
X93631472Y-71975572D02*
X93564805Y-71908905D01*
X93564805Y-71908905D02*
X93498138Y-71775572D01*
X93498138Y-71775572D02*
X93498138Y-71442239D01*
X93498138Y-71442239D02*
X93564805Y-71308905D01*
X93564805Y-71308905D02*
X93631472Y-71242239D01*
X93631472Y-71242239D02*
X93764805Y-71175572D01*
X93764805Y-71175572D02*
X93898138Y-71175572D01*
X93898138Y-71175572D02*
X94098138Y-71242239D01*
X94098138Y-71242239D02*
X94898138Y-72042239D01*
X94898138Y-72042239D02*
X94898138Y-71175572D01*
X93498138Y-70308906D02*
X93498138Y-70175572D01*
X93498138Y-70175572D02*
X93564805Y-70042239D01*
X93564805Y-70042239D02*
X93631472Y-69975572D01*
X93631472Y-69975572D02*
X93764805Y-69908906D01*
X93764805Y-69908906D02*
X94031472Y-69842239D01*
X94031472Y-69842239D02*
X94364805Y-69842239D01*
X94364805Y-69842239D02*
X94631472Y-69908906D01*
X94631472Y-69908906D02*
X94764805Y-69975572D01*
X94764805Y-69975572D02*
X94831472Y-70042239D01*
X94831472Y-70042239D02*
X94898138Y-70175572D01*
X94898138Y-70175572D02*
X94898138Y-70308906D01*
X94898138Y-70308906D02*
X94831472Y-70442239D01*
X94831472Y-70442239D02*
X94764805Y-70508906D01*
X94764805Y-70508906D02*
X94631472Y-70575572D01*
X94631472Y-70575572D02*
X94364805Y-70642239D01*
X94364805Y-70642239D02*
X94031472Y-70642239D01*
X94031472Y-70642239D02*
X93764805Y-70575572D01*
X93764805Y-70575572D02*
X93631472Y-70508906D01*
X93631472Y-70508906D02*
X93564805Y-70442239D01*
X93564805Y-70442239D02*
X93498138Y-70308906D01*
X93631472Y-69308906D02*
X93564805Y-69242239D01*
X93564805Y-69242239D02*
X93498138Y-69108906D01*
X93498138Y-69108906D02*
X93498138Y-68775573D01*
X93498138Y-68775573D02*
X93564805Y-68642239D01*
X93564805Y-68642239D02*
X93631472Y-68575573D01*
X93631472Y-68575573D02*
X93764805Y-68508906D01*
X93764805Y-68508906D02*
X93898138Y-68508906D01*
X93898138Y-68508906D02*
X94098138Y-68575573D01*
X94098138Y-68575573D02*
X94898138Y-69375573D01*
X94898138Y-69375573D02*
X94898138Y-68508906D01*
X93964805Y-67308906D02*
X94898138Y-67308906D01*
X93431472Y-67642240D02*
X94431472Y-67975573D01*
X94431472Y-67975573D02*
X94431472Y-67108906D01*
D12*
X114701654Y-80984231D02*
X115501654Y-80984231D01*
X115501654Y-80984231D02*
X115501654Y-81174707D01*
X115501654Y-81174707D02*
X115463559Y-81288993D01*
X115463559Y-81288993D02*
X115387369Y-81365183D01*
X115387369Y-81365183D02*
X115311178Y-81403278D01*
X115311178Y-81403278D02*
X115158797Y-81441374D01*
X115158797Y-81441374D02*
X115044511Y-81441374D01*
X115044511Y-81441374D02*
X114892130Y-81403278D01*
X114892130Y-81403278D02*
X114815940Y-81365183D01*
X114815940Y-81365183D02*
X114739750Y-81288993D01*
X114739750Y-81288993D02*
X114701654Y-81174707D01*
X114701654Y-81174707D02*
X114701654Y-80984231D01*
X115006416Y-81784231D02*
X115006416Y-82393755D01*
D14*
X113746666Y-76061219D02*
X113746666Y-76775504D01*
X113746666Y-76775504D02*
X113699047Y-76918361D01*
X113699047Y-76918361D02*
X113603809Y-77013600D01*
X113603809Y-77013600D02*
X113460952Y-77061219D01*
X113460952Y-77061219D02*
X113365714Y-77061219D01*
X114175238Y-76156457D02*
X114222857Y-76108838D01*
X114222857Y-76108838D02*
X114318095Y-76061219D01*
X114318095Y-76061219D02*
X114556190Y-76061219D01*
X114556190Y-76061219D02*
X114651428Y-76108838D01*
X114651428Y-76108838D02*
X114699047Y-76156457D01*
X114699047Y-76156457D02*
X114746666Y-76251695D01*
X114746666Y-76251695D02*
X114746666Y-76346933D01*
X114746666Y-76346933D02*
X114699047Y-76489790D01*
X114699047Y-76489790D02*
X114127619Y-77061219D01*
X114127619Y-77061219D02*
X114746666Y-77061219D01*
X169423333Y-72619619D02*
X169090000Y-72143428D01*
X168851905Y-72619619D02*
X168851905Y-71619619D01*
X168851905Y-71619619D02*
X169232857Y-71619619D01*
X169232857Y-71619619D02*
X169328095Y-71667238D01*
X169328095Y-71667238D02*
X169375714Y-71714857D01*
X169375714Y-71714857D02*
X169423333Y-71810095D01*
X169423333Y-71810095D02*
X169423333Y-71952952D01*
X169423333Y-71952952D02*
X169375714Y-72048190D01*
X169375714Y-72048190D02*
X169328095Y-72095809D01*
X169328095Y-72095809D02*
X169232857Y-72143428D01*
X169232857Y-72143428D02*
X168851905Y-72143428D01*
X170375714Y-72619619D02*
X169804286Y-72619619D01*
X170090000Y-72619619D02*
X170090000Y-71619619D01*
X170090000Y-71619619D02*
X169994762Y-71762476D01*
X169994762Y-71762476D02*
X169899524Y-71857714D01*
X169899524Y-71857714D02*
X169804286Y-71905333D01*
X176403095Y-85814819D02*
X176403095Y-86624342D01*
X176403095Y-86624342D02*
X176450714Y-86719580D01*
X176450714Y-86719580D02*
X176498333Y-86767200D01*
X176498333Y-86767200D02*
X176593571Y-86814819D01*
X176593571Y-86814819D02*
X176784047Y-86814819D01*
X176784047Y-86814819D02*
X176879285Y-86767200D01*
X176879285Y-86767200D02*
X176926904Y-86719580D01*
X176926904Y-86719580D02*
X176974523Y-86624342D01*
X176974523Y-86624342D02*
X176974523Y-85814819D01*
X177355476Y-85814819D02*
X178022142Y-85814819D01*
X178022142Y-85814819D02*
X177593571Y-86814819D01*
D15*
X166277580Y-83902795D02*
X165468057Y-83902795D01*
X165468057Y-83902795D02*
X165372819Y-83950414D01*
X165372819Y-83950414D02*
X165325200Y-83998033D01*
X165325200Y-83998033D02*
X165277580Y-84093271D01*
X165277580Y-84093271D02*
X165277580Y-84283747D01*
X165277580Y-84283747D02*
X165325200Y-84378985D01*
X165325200Y-84378985D02*
X165372819Y-84426604D01*
X165372819Y-84426604D02*
X165468057Y-84474223D01*
X165468057Y-84474223D02*
X166277580Y-84474223D01*
X165944247Y-85378985D02*
X165277580Y-85378985D01*
X166325200Y-85140890D02*
X165610914Y-84902795D01*
X165610914Y-84902795D02*
X165610914Y-85521842D01*
D14*
X155000533Y-75689619D02*
X154667200Y-75213428D01*
X154429105Y-75689619D02*
X154429105Y-74689619D01*
X154429105Y-74689619D02*
X154810057Y-74689619D01*
X154810057Y-74689619D02*
X154905295Y-74737238D01*
X154905295Y-74737238D02*
X154952914Y-74784857D01*
X154952914Y-74784857D02*
X155000533Y-74880095D01*
X155000533Y-74880095D02*
X155000533Y-75022952D01*
X155000533Y-75022952D02*
X154952914Y-75118190D01*
X154952914Y-75118190D02*
X154905295Y-75165809D01*
X154905295Y-75165809D02*
X154810057Y-75213428D01*
X154810057Y-75213428D02*
X154429105Y-75213428D01*
X155857676Y-75022952D02*
X155857676Y-75689619D01*
X155619581Y-74642000D02*
X155381486Y-75356285D01*
X155381486Y-75356285D02*
X156000533Y-75356285D01*
D15*
X183088094Y-112719580D02*
X183088094Y-111910057D01*
X183088094Y-111910057D02*
X183040475Y-111814819D01*
X183040475Y-111814819D02*
X182992856Y-111767200D01*
X182992856Y-111767200D02*
X182897618Y-111719580D01*
X182897618Y-111719580D02*
X182707142Y-111719580D01*
X182707142Y-111719580D02*
X182611904Y-111767200D01*
X182611904Y-111767200D02*
X182564285Y-111814819D01*
X182564285Y-111814819D02*
X182516666Y-111910057D01*
X182516666Y-111910057D02*
X182516666Y-112719580D01*
X181516666Y-111719580D02*
X182088094Y-111719580D01*
X181802380Y-111719580D02*
X181802380Y-112719580D01*
X181802380Y-112719580D02*
X181897618Y-112576723D01*
X181897618Y-112576723D02*
X181992856Y-112481485D01*
X181992856Y-112481485D02*
X182088094Y-112433866D01*
X180897618Y-112719580D02*
X180802380Y-112719580D01*
X180802380Y-112719580D02*
X180707142Y-112671961D01*
X180707142Y-112671961D02*
X180659523Y-112624342D01*
X180659523Y-112624342D02*
X180611904Y-112529104D01*
X180611904Y-112529104D02*
X180564285Y-112338628D01*
X180564285Y-112338628D02*
X180564285Y-112100533D01*
X180564285Y-112100533D02*
X180611904Y-111910057D01*
X180611904Y-111910057D02*
X180659523Y-111814819D01*
X180659523Y-111814819D02*
X180707142Y-111767200D01*
X180707142Y-111767200D02*
X180802380Y-111719580D01*
X180802380Y-111719580D02*
X180897618Y-111719580D01*
X180897618Y-111719580D02*
X180992856Y-111767200D01*
X180992856Y-111767200D02*
X181040475Y-111814819D01*
X181040475Y-111814819D02*
X181088094Y-111910057D01*
X181088094Y-111910057D02*
X181135713Y-112100533D01*
X181135713Y-112100533D02*
X181135713Y-112338628D01*
X181135713Y-112338628D02*
X181088094Y-112529104D01*
X181088094Y-112529104D02*
X181040475Y-112624342D01*
X181040475Y-112624342D02*
X180992856Y-112671961D01*
X180992856Y-112671961D02*
X180897618Y-112719580D01*
X166277580Y-70993095D02*
X165468057Y-70993095D01*
X165468057Y-70993095D02*
X165372819Y-71040714D01*
X165372819Y-71040714D02*
X165325200Y-71088333D01*
X165325200Y-71088333D02*
X165277580Y-71183571D01*
X165277580Y-71183571D02*
X165277580Y-71374047D01*
X165277580Y-71374047D02*
X165325200Y-71469285D01*
X165325200Y-71469285D02*
X165372819Y-71516904D01*
X165372819Y-71516904D02*
X165468057Y-71564523D01*
X165468057Y-71564523D02*
X166277580Y-71564523D01*
X166277580Y-72516904D02*
X166277580Y-72040714D01*
X166277580Y-72040714D02*
X165801390Y-71993095D01*
X165801390Y-71993095D02*
X165849009Y-72040714D01*
X165849009Y-72040714D02*
X165896628Y-72135952D01*
X165896628Y-72135952D02*
X165896628Y-72374047D01*
X165896628Y-72374047D02*
X165849009Y-72469285D01*
X165849009Y-72469285D02*
X165801390Y-72516904D01*
X165801390Y-72516904D02*
X165706152Y-72564523D01*
X165706152Y-72564523D02*
X165468057Y-72564523D01*
X165468057Y-72564523D02*
X165372819Y-72516904D01*
X165372819Y-72516904D02*
X165325200Y-72469285D01*
X165325200Y-72469285D02*
X165277580Y-72374047D01*
X165277580Y-72374047D02*
X165277580Y-72135952D01*
X165277580Y-72135952D02*
X165325200Y-72040714D01*
X165325200Y-72040714D02*
X165372819Y-71993095D01*
D14*
X178728666Y-102930819D02*
X178776285Y-102883200D01*
X178776285Y-102883200D02*
X178919142Y-102835580D01*
X178919142Y-102835580D02*
X179014380Y-102835580D01*
X179014380Y-102835580D02*
X179157237Y-102883200D01*
X179157237Y-102883200D02*
X179252475Y-102978438D01*
X179252475Y-102978438D02*
X179300094Y-103073676D01*
X179300094Y-103073676D02*
X179347713Y-103264152D01*
X179347713Y-103264152D02*
X179347713Y-103407009D01*
X179347713Y-103407009D02*
X179300094Y-103597485D01*
X179300094Y-103597485D02*
X179252475Y-103692723D01*
X179252475Y-103692723D02*
X179157237Y-103787961D01*
X179157237Y-103787961D02*
X179014380Y-103835580D01*
X179014380Y-103835580D02*
X178919142Y-103835580D01*
X178919142Y-103835580D02*
X178776285Y-103787961D01*
X178776285Y-103787961D02*
X178728666Y-103740342D01*
X178347713Y-103740342D02*
X178300094Y-103787961D01*
X178300094Y-103787961D02*
X178204856Y-103835580D01*
X178204856Y-103835580D02*
X177966761Y-103835580D01*
X177966761Y-103835580D02*
X177871523Y-103787961D01*
X177871523Y-103787961D02*
X177823904Y-103740342D01*
X177823904Y-103740342D02*
X177776285Y-103645104D01*
X177776285Y-103645104D02*
X177776285Y-103549866D01*
X177776285Y-103549866D02*
X177823904Y-103407009D01*
X177823904Y-103407009D02*
X178395332Y-102835580D01*
X178395332Y-102835580D02*
X177776285Y-102835580D01*
X155039333Y-93469619D02*
X154706000Y-92993428D01*
X154467905Y-93469619D02*
X154467905Y-92469619D01*
X154467905Y-92469619D02*
X154848857Y-92469619D01*
X154848857Y-92469619D02*
X154944095Y-92517238D01*
X154944095Y-92517238D02*
X154991714Y-92564857D01*
X154991714Y-92564857D02*
X155039333Y-92660095D01*
X155039333Y-92660095D02*
X155039333Y-92802952D01*
X155039333Y-92802952D02*
X154991714Y-92898190D01*
X154991714Y-92898190D02*
X154944095Y-92945809D01*
X154944095Y-92945809D02*
X154848857Y-92993428D01*
X154848857Y-92993428D02*
X154467905Y-92993428D01*
X155372667Y-92469619D02*
X155991714Y-92469619D01*
X155991714Y-92469619D02*
X155658381Y-92850571D01*
X155658381Y-92850571D02*
X155801238Y-92850571D01*
X155801238Y-92850571D02*
X155896476Y-92898190D01*
X155896476Y-92898190D02*
X155944095Y-92945809D01*
X155944095Y-92945809D02*
X155991714Y-93041047D01*
X155991714Y-93041047D02*
X155991714Y-93279142D01*
X155991714Y-93279142D02*
X155944095Y-93374380D01*
X155944095Y-93374380D02*
X155896476Y-93422000D01*
X155896476Y-93422000D02*
X155801238Y-93469619D01*
X155801238Y-93469619D02*
X155515524Y-93469619D01*
X155515524Y-93469619D02*
X155420286Y-93422000D01*
X155420286Y-93422000D02*
X155372667Y-93374380D01*
D15*
X113234694Y-112458280D02*
X113234694Y-113458280D01*
X113234694Y-113458280D02*
X112996599Y-113458280D01*
X112996599Y-113458280D02*
X112853742Y-113410661D01*
X112853742Y-113410661D02*
X112758504Y-113315423D01*
X112758504Y-113315423D02*
X112710885Y-113220185D01*
X112710885Y-113220185D02*
X112663266Y-113029709D01*
X112663266Y-113029709D02*
X112663266Y-112886852D01*
X112663266Y-112886852D02*
X112710885Y-112696376D01*
X112710885Y-112696376D02*
X112758504Y-112601138D01*
X112758504Y-112601138D02*
X112853742Y-112505900D01*
X112853742Y-112505900D02*
X112996599Y-112458280D01*
X112996599Y-112458280D02*
X113234694Y-112458280D01*
X111710885Y-112458280D02*
X112282313Y-112458280D01*
X111996599Y-112458280D02*
X111996599Y-113458280D01*
X111996599Y-113458280D02*
X112091837Y-113315423D01*
X112091837Y-113315423D02*
X112187075Y-113220185D01*
X112187075Y-113220185D02*
X112282313Y-113172566D01*
D14*
X186281466Y-102930819D02*
X186329085Y-102883200D01*
X186329085Y-102883200D02*
X186471942Y-102835580D01*
X186471942Y-102835580D02*
X186567180Y-102835580D01*
X186567180Y-102835580D02*
X186710037Y-102883200D01*
X186710037Y-102883200D02*
X186805275Y-102978438D01*
X186805275Y-102978438D02*
X186852894Y-103073676D01*
X186852894Y-103073676D02*
X186900513Y-103264152D01*
X186900513Y-103264152D02*
X186900513Y-103407009D01*
X186900513Y-103407009D02*
X186852894Y-103597485D01*
X186852894Y-103597485D02*
X186805275Y-103692723D01*
X186805275Y-103692723D02*
X186710037Y-103787961D01*
X186710037Y-103787961D02*
X186567180Y-103835580D01*
X186567180Y-103835580D02*
X186471942Y-103835580D01*
X186471942Y-103835580D02*
X186329085Y-103787961D01*
X186329085Y-103787961D02*
X186281466Y-103740342D01*
X185329085Y-102835580D02*
X185900513Y-102835580D01*
X185614799Y-102835580D02*
X185614799Y-103835580D01*
X185614799Y-103835580D02*
X185710037Y-103692723D01*
X185710037Y-103692723D02*
X185805275Y-103597485D01*
X185805275Y-103597485D02*
X185900513Y-103549866D01*
D15*
X139005875Y-82794842D02*
X139005875Y-83604365D01*
X139005875Y-83604365D02*
X139053494Y-83699603D01*
X139053494Y-83699603D02*
X139101113Y-83747223D01*
X139101113Y-83747223D02*
X139196351Y-83794842D01*
X139196351Y-83794842D02*
X139386827Y-83794842D01*
X139386827Y-83794842D02*
X139482065Y-83747223D01*
X139482065Y-83747223D02*
X139529684Y-83699603D01*
X139529684Y-83699603D02*
X139577303Y-83604365D01*
X139577303Y-83604365D02*
X139577303Y-82794842D01*
X140577303Y-83794842D02*
X140005875Y-83794842D01*
X140291589Y-83794842D02*
X140291589Y-82794842D01*
X140291589Y-82794842D02*
X140196351Y-82937699D01*
X140196351Y-82937699D02*
X140101113Y-83032937D01*
X140101113Y-83032937D02*
X140005875Y-83080556D01*
X166277580Y-96812395D02*
X165468057Y-96812395D01*
X165468057Y-96812395D02*
X165372819Y-96860014D01*
X165372819Y-96860014D02*
X165325200Y-96907633D01*
X165325200Y-96907633D02*
X165277580Y-97002871D01*
X165277580Y-97002871D02*
X165277580Y-97193347D01*
X165277580Y-97193347D02*
X165325200Y-97288585D01*
X165325200Y-97288585D02*
X165372819Y-97336204D01*
X165372819Y-97336204D02*
X165468057Y-97383823D01*
X165468057Y-97383823D02*
X166277580Y-97383823D01*
X166182342Y-97812395D02*
X166229961Y-97860014D01*
X166229961Y-97860014D02*
X166277580Y-97955252D01*
X166277580Y-97955252D02*
X166277580Y-98193347D01*
X166277580Y-98193347D02*
X166229961Y-98288585D01*
X166229961Y-98288585D02*
X166182342Y-98336204D01*
X166182342Y-98336204D02*
X166087104Y-98383823D01*
X166087104Y-98383823D02*
X165991866Y-98383823D01*
X165991866Y-98383823D02*
X165849009Y-98336204D01*
X165849009Y-98336204D02*
X165277580Y-97764776D01*
X165277580Y-97764776D02*
X165277580Y-98383823D01*
X166277580Y-109722095D02*
X165468057Y-109722095D01*
X165468057Y-109722095D02*
X165372819Y-109769714D01*
X165372819Y-109769714D02*
X165325200Y-109817333D01*
X165325200Y-109817333D02*
X165277580Y-109912571D01*
X165277580Y-109912571D02*
X165277580Y-110103047D01*
X165277580Y-110103047D02*
X165325200Y-110198285D01*
X165325200Y-110198285D02*
X165372819Y-110245904D01*
X165372819Y-110245904D02*
X165468057Y-110293523D01*
X165468057Y-110293523D02*
X166277580Y-110293523D01*
X166277580Y-110674476D02*
X166277580Y-111293523D01*
X166277580Y-111293523D02*
X165896628Y-110960190D01*
X165896628Y-110960190D02*
X165896628Y-111103047D01*
X165896628Y-111103047D02*
X165849009Y-111198285D01*
X165849009Y-111198285D02*
X165801390Y-111245904D01*
X165801390Y-111245904D02*
X165706152Y-111293523D01*
X165706152Y-111293523D02*
X165468057Y-111293523D01*
X165468057Y-111293523D02*
X165372819Y-111245904D01*
X165372819Y-111245904D02*
X165325200Y-111198285D01*
X165325200Y-111198285D02*
X165277580Y-111103047D01*
X165277580Y-111103047D02*
X165277580Y-110817333D01*
X165277580Y-110817333D02*
X165325200Y-110722095D01*
X165325200Y-110722095D02*
X165372819Y-110674476D01*
D14*
X161674933Y-68403219D02*
X161341600Y-67927028D01*
X161103505Y-68403219D02*
X161103505Y-67403219D01*
X161103505Y-67403219D02*
X161484457Y-67403219D01*
X161484457Y-67403219D02*
X161579695Y-67450838D01*
X161579695Y-67450838D02*
X161627314Y-67498457D01*
X161627314Y-67498457D02*
X161674933Y-67593695D01*
X161674933Y-67593695D02*
X161674933Y-67736552D01*
X161674933Y-67736552D02*
X161627314Y-67831790D01*
X161627314Y-67831790D02*
X161579695Y-67879409D01*
X161579695Y-67879409D02*
X161484457Y-67927028D01*
X161484457Y-67927028D02*
X161103505Y-67927028D01*
X162055886Y-67498457D02*
X162103505Y-67450838D01*
X162103505Y-67450838D02*
X162198743Y-67403219D01*
X162198743Y-67403219D02*
X162436838Y-67403219D01*
X162436838Y-67403219D02*
X162532076Y-67450838D01*
X162532076Y-67450838D02*
X162579695Y-67498457D01*
X162579695Y-67498457D02*
X162627314Y-67593695D01*
X162627314Y-67593695D02*
X162627314Y-67688933D01*
X162627314Y-67688933D02*
X162579695Y-67831790D01*
X162579695Y-67831790D02*
X162008267Y-68403219D01*
X162008267Y-68403219D02*
X162627314Y-68403219D01*
X177265761Y-76143857D02*
X177170523Y-76096238D01*
X177170523Y-76096238D02*
X177075285Y-76001000D01*
X177075285Y-76001000D02*
X176932428Y-75858142D01*
X176932428Y-75858142D02*
X176837190Y-75810523D01*
X176837190Y-75810523D02*
X176741952Y-75810523D01*
X176789571Y-76048619D02*
X176694333Y-76001000D01*
X176694333Y-76001000D02*
X176599095Y-75905761D01*
X176599095Y-75905761D02*
X176551476Y-75715285D01*
X176551476Y-75715285D02*
X176551476Y-75381952D01*
X176551476Y-75381952D02*
X176599095Y-75191476D01*
X176599095Y-75191476D02*
X176694333Y-75096238D01*
X176694333Y-75096238D02*
X176789571Y-75048619D01*
X176789571Y-75048619D02*
X176980047Y-75048619D01*
X176980047Y-75048619D02*
X177075285Y-75096238D01*
X177075285Y-75096238D02*
X177170523Y-75191476D01*
X177170523Y-75191476D02*
X177218142Y-75381952D01*
X177218142Y-75381952D02*
X177218142Y-75715285D01*
X177218142Y-75715285D02*
X177170523Y-75905761D01*
X177170523Y-75905761D02*
X177075285Y-76001000D01*
X177075285Y-76001000D02*
X176980047Y-76048619D01*
X176980047Y-76048619D02*
X176789571Y-76048619D01*
X178170523Y-76048619D02*
X177599095Y-76048619D01*
X177884809Y-76048619D02*
X177884809Y-75048619D01*
X177884809Y-75048619D02*
X177789571Y-75191476D01*
X177789571Y-75191476D02*
X177694333Y-75286714D01*
X177694333Y-75286714D02*
X177599095Y-75334333D01*
D10*
%TO.C,J2*%
X106780000Y-66206400D02*
X121380000Y-66206400D01*
X106780000Y-74596400D02*
X106780000Y-66206400D01*
X106780000Y-80306400D02*
X106780000Y-78616400D01*
X109515000Y-80306400D02*
X106780000Y-80306400D01*
X121380000Y-66206400D02*
X121380000Y-74596400D01*
X121380000Y-78616400D02*
X121380000Y-80306400D01*
X121380000Y-80306400D02*
X118645000Y-80306400D01*
X117680000Y-81006400D02*
G75*
G02*
X117480000Y-81006400I-100000J0D01*
G01*
X117480000Y-81006400D02*
G75*
G02*
X117680000Y-81006400I100000J0D01*
G01*
D14*
%TO.C,R1*%
X170625000Y-71504800D02*
X171585000Y-71504800D01*
X170625000Y-72824800D02*
X170625000Y-71504800D01*
X171585000Y-72824800D02*
X170625000Y-72824800D01*
X172445000Y-72824800D02*
X173405000Y-72824800D01*
X173405000Y-71504800D02*
X172445000Y-71504800D01*
X173405000Y-72824800D02*
X173405000Y-71504800D01*
%TO.C,U7*%
X174670000Y-85475000D02*
X183470000Y-85475000D01*
X174670000Y-88515000D02*
X174670000Y-85475000D01*
X183470000Y-85475000D02*
X183470000Y-88515000D01*
X183470000Y-88515000D02*
X174670000Y-88515000D01*
D11*
X174660000Y-89725000D02*
G75*
G02*
X174360000Y-89725000I-150000J0D01*
G01*
X174360000Y-89725000D02*
G75*
G02*
X174660000Y-89725000I150000J0D01*
G01*
X175410000Y-87765000D02*
G75*
G02*
X175110000Y-87765000I-150000J0D01*
G01*
X175110000Y-87765000D02*
G75*
G02*
X175410000Y-87765000I150000J0D01*
G01*
D16*
%TO.C,U4*%
X162175000Y-89109700D02*
X166675000Y-89109700D01*
X166675000Y-82509700D02*
X162175000Y-82509700D01*
D10*
X160465000Y-82378700D02*
G75*
G02*
X160265000Y-82378700I-100000J0D01*
G01*
X160265000Y-82378700D02*
G75*
G02*
X160465000Y-82378700I100000J0D01*
G01*
D14*
%TO.C,R4*%
X151276000Y-74524000D02*
X152236000Y-74524000D01*
X151276000Y-75844000D02*
X151276000Y-74524000D01*
X152236000Y-75844000D02*
X151276000Y-75844000D01*
X153096000Y-75844000D02*
X154056000Y-75844000D01*
X154056000Y-74524000D02*
X153096000Y-74524000D01*
X154056000Y-75844000D02*
X154056000Y-74524000D01*
%TO.C,U10*%
X178647000Y-110807000D02*
X185307000Y-110807000D01*
X178647000Y-113547000D02*
X178647000Y-110807000D01*
X185307000Y-110807000D02*
X185307000Y-113547000D01*
X185307000Y-113547000D02*
X178647000Y-113547000D01*
D16*
%TO.C,U5*%
X162175000Y-76200000D02*
X166675000Y-76200000D01*
X166675000Y-69600000D02*
X162175000Y-69600000D01*
D10*
X160465000Y-69469000D02*
G75*
G02*
X160265000Y-69469000I-100000J0D01*
G01*
X160265000Y-69469000D02*
G75*
G02*
X160465000Y-69469000I100000J0D01*
G01*
D14*
%TO.C,C2*%
X175199000Y-103397400D02*
X175199000Y-104077400D01*
X175199000Y-105977400D02*
X175199000Y-105297400D01*
X176139000Y-102457400D02*
X175199000Y-103397400D01*
X176139000Y-106917400D02*
X175199000Y-105977400D01*
X179659000Y-102457400D02*
X176139000Y-102457400D01*
X179659000Y-104077400D02*
X179659000Y-102457400D01*
X179659000Y-105297400D02*
X179659000Y-106917400D01*
X179659000Y-106917400D02*
X176139000Y-106917400D01*
%TO.C,R3*%
X151276000Y-92304000D02*
X152236000Y-92304000D01*
X151276000Y-93624000D02*
X151276000Y-92304000D01*
X152236000Y-93624000D02*
X151276000Y-93624000D01*
X153096000Y-93624000D02*
X154056000Y-93624000D01*
X154056000Y-92304000D02*
X153096000Y-92304000D01*
X154056000Y-93624000D02*
X154056000Y-92304000D01*
D15*
%TO.C,D1*%
X114935000Y-114058700D02*
X114935000Y-114312700D01*
X115189000Y-114058700D02*
X114935000Y-114058700D01*
X115189000Y-114566700D02*
X113284000Y-114566700D01*
X115189000Y-114566700D02*
X115189000Y-114058700D01*
X115189000Y-114566700D02*
X115189000Y-115074700D01*
X115189000Y-114566700D02*
X116205000Y-114058700D01*
X115189000Y-115074700D02*
X115443000Y-115074700D01*
X115443000Y-115074700D02*
X115443000Y-114820700D01*
X116205000Y-114058700D02*
X116205000Y-115074700D01*
X116205000Y-114566700D02*
X118364000Y-114566700D01*
X116205000Y-115074700D02*
X115189000Y-114566700D01*
D14*
%TO.C,C1*%
X182869800Y-103397400D02*
X182869800Y-104077400D01*
X182869800Y-105977400D02*
X182869800Y-105297400D01*
X183809800Y-102457400D02*
X182869800Y-103397400D01*
X183809800Y-106917400D02*
X182869800Y-105977400D01*
X187329800Y-102457400D02*
X183809800Y-102457400D01*
X187329800Y-104077400D02*
X187329800Y-102457400D01*
X187329800Y-105297400D02*
X187329800Y-106917400D01*
X187329800Y-106917400D02*
X183809800Y-106917400D01*
D17*
%TO.C,U1*%
X128632780Y-68522423D02*
X128152780Y-68522423D01*
X128632780Y-68522423D02*
X128632780Y-68942423D01*
X128632780Y-71062423D02*
X128632780Y-71482423D01*
X128632780Y-73602423D02*
X128632780Y-74022423D01*
X128632780Y-76142423D02*
X128632780Y-76562423D01*
X128632780Y-78682423D02*
X128632780Y-79102423D01*
X128632780Y-81222423D02*
X128632780Y-81642423D01*
X128632780Y-83762423D02*
X128632780Y-84182423D01*
X128632780Y-86302423D02*
X128632780Y-86722423D01*
X128632780Y-88842423D02*
X128632780Y-89262423D01*
X128632780Y-91382423D02*
X128632780Y-91802423D01*
X128632780Y-93922423D02*
X128632780Y-94342423D01*
X128632780Y-96462423D02*
X128632780Y-96882423D01*
X128632780Y-99002423D02*
X128632780Y-99422423D01*
X128632780Y-101542423D02*
X128632780Y-101962423D01*
X128632780Y-104082423D02*
X128632780Y-104502423D01*
X128632780Y-106622423D02*
X128632780Y-107042423D01*
X128632780Y-109162423D02*
X128632780Y-109582423D01*
X128632780Y-111702423D02*
X128632780Y-112122423D01*
X128632780Y-114242423D02*
X128632780Y-114662423D01*
X128663104Y-66402486D02*
X128152780Y-66402423D01*
X128972780Y-66402486D02*
X128972780Y-66045423D01*
X128972780Y-68522423D02*
X128972780Y-68942423D01*
X128972780Y-71062423D02*
X128972780Y-71482423D01*
X128972780Y-73602423D02*
X128972780Y-74022423D01*
X128972780Y-76142423D02*
X128972780Y-76562423D01*
X128972780Y-78682423D02*
X128972780Y-79102423D01*
X128972780Y-81222423D02*
X128972780Y-81642423D01*
X128972780Y-83762423D02*
X128972780Y-84182423D01*
X128972780Y-86302423D02*
X128972780Y-86722423D01*
X128972780Y-88842423D02*
X128972780Y-89262423D01*
X128972780Y-91382423D02*
X128972780Y-91802423D01*
X128972780Y-93922423D02*
X128972780Y-94342423D01*
X128972780Y-96462423D02*
X128972780Y-96882423D01*
X128972780Y-99002423D02*
X128972780Y-99422423D01*
X128972780Y-101542423D02*
X128972780Y-101962423D01*
X128972780Y-104082423D02*
X128972780Y-104502423D01*
X128972780Y-106622423D02*
X128972780Y-107042423D01*
X128972780Y-109162423D02*
X128972780Y-109582423D01*
X128972780Y-111702423D02*
X128972780Y-112122423D01*
X128972780Y-114242423D02*
X128972780Y-114662423D01*
X128972780Y-116782360D02*
X128972780Y-117139423D01*
X129242780Y-65982423D02*
X131732780Y-65982423D01*
X129242780Y-117202423D02*
X135642780Y-117202423D01*
X131732780Y-65982423D02*
X131732780Y-66895943D01*
X131732780Y-65982423D02*
X135007780Y-65982423D01*
X131732780Y-66895943D02*
X131732780Y-69288903D01*
X131732780Y-69288903D02*
X131732780Y-113895943D01*
X131732780Y-113895943D02*
X131732780Y-116288903D01*
X131732780Y-116288903D02*
X131732780Y-117202423D01*
X135007780Y-65982423D02*
X143477780Y-65982423D01*
X135342780Y-65982423D02*
X135342780Y-66898423D01*
X135342780Y-68277223D02*
X135342780Y-70502423D01*
X135342780Y-70502423D02*
X135638870Y-70502423D01*
X137996690Y-70502423D02*
X140488870Y-70502423D01*
X142842780Y-117202423D02*
X135642780Y-117202423D01*
X142842780Y-117202423D02*
X149242780Y-117202423D01*
X142846690Y-70502423D02*
X143142780Y-70502423D01*
X143142780Y-65982423D02*
X143142780Y-66898423D01*
X143142780Y-68277223D02*
X143142780Y-70502423D01*
X143477780Y-65982423D02*
X146752780Y-65982423D01*
X146752780Y-65982423D02*
X146752780Y-66895943D01*
X146752780Y-66895943D02*
X146752780Y-69288903D01*
X146752780Y-69288903D02*
X146752780Y-113895943D01*
X146752780Y-113895943D02*
X146752780Y-116288903D01*
X146752780Y-116288903D02*
X146752780Y-117202423D01*
X149242780Y-65982423D02*
X146752780Y-65982423D01*
X149512780Y-66402486D02*
X149512780Y-66045423D01*
X149512780Y-68522423D02*
X149512780Y-68942423D01*
X149512780Y-71062423D02*
X149512780Y-71482423D01*
X149512780Y-73602423D02*
X149512780Y-74022423D01*
X149512780Y-76142423D02*
X149512780Y-76562423D01*
X149512780Y-78682423D02*
X149512780Y-79102423D01*
X149512780Y-81222423D02*
X149512780Y-81642423D01*
X149512780Y-83762423D02*
X149512780Y-84182423D01*
X149512780Y-86302423D02*
X149512780Y-86722423D01*
X149512780Y-88842423D02*
X149512780Y-89262423D01*
X149512780Y-91382423D02*
X149512780Y-91802423D01*
X149512780Y-93922423D02*
X149512780Y-94342423D01*
X149512780Y-96462423D02*
X149512780Y-96882423D01*
X149512780Y-99002423D02*
X149512780Y-99422423D01*
X149512780Y-101542423D02*
X149512780Y-101962423D01*
X149512780Y-104082423D02*
X149512780Y-104502423D01*
X149512780Y-106622423D02*
X149512780Y-107042423D01*
X149512780Y-109162423D02*
X149512780Y-109582423D01*
X149512780Y-111702423D02*
X149512780Y-112122423D01*
X149512780Y-114242423D02*
X149512780Y-114662423D01*
X149512780Y-116782360D02*
X149512780Y-117139423D01*
X149852780Y-68522423D02*
X149852780Y-68942423D01*
X149852780Y-71062423D02*
X149852780Y-71482423D01*
X149852780Y-73602423D02*
X149852780Y-74022423D01*
X149852780Y-76142423D02*
X149852780Y-76562423D01*
X149852780Y-78682423D02*
X149852780Y-79102423D01*
X149852780Y-81222423D02*
X149852780Y-81642423D01*
X149852780Y-83762423D02*
X149852780Y-84182423D01*
X149852780Y-86302423D02*
X149852780Y-86722423D01*
X149852780Y-88842423D02*
X149852780Y-89262423D01*
X149852780Y-91382423D02*
X149852780Y-91802423D01*
X149852780Y-93922423D02*
X149852780Y-94342423D01*
X149852780Y-96462423D02*
X149852780Y-96882423D01*
X149852780Y-99002423D02*
X149852780Y-99422423D01*
X149852780Y-101542423D02*
X149852780Y-101962423D01*
X149852780Y-104082423D02*
X149852780Y-104502423D01*
X149852780Y-106622423D02*
X149852780Y-107042423D01*
X149852780Y-109162423D02*
X149852780Y-109582423D01*
X149852780Y-111702423D02*
X149852780Y-112122423D01*
X149852780Y-114242423D02*
X149852780Y-114662423D01*
X128663104Y-66402486D02*
G75*
G02*
X129242780Y-65982423I579676J-189937D01*
G01*
X129242780Y-117202423D02*
G75*
G02*
X128663104Y-116782360I1J610002D01*
G01*
X149242780Y-65982423D02*
G75*
G02*
X149822459Y-66402485I20J-609977D01*
G01*
X149822456Y-116782360D02*
G75*
G02*
X149242780Y-117202431I-579556J189760D01*
G01*
X134482780Y-68092423D02*
G75*
G02*
X132602780Y-68092423I-940000J0D01*
G01*
X132602780Y-68092423D02*
G75*
G02*
X134482780Y-68092423I940000J0D01*
G01*
X134482780Y-115092423D02*
G75*
G02*
X132602780Y-115092423I-940000J0D01*
G01*
X132602780Y-115092423D02*
G75*
G02*
X134482780Y-115092423I940000J0D01*
G01*
X145882780Y-68092423D02*
G75*
G02*
X144002780Y-68092423I-940000J0D01*
G01*
X144002780Y-68092423D02*
G75*
G02*
X145882780Y-68092423I940000J0D01*
G01*
X145882780Y-115092423D02*
G75*
G02*
X144002780Y-115092423I-940000J0D01*
G01*
X144002780Y-115092423D02*
G75*
G02*
X145882780Y-115092423I940000J0D01*
G01*
D16*
%TO.C,U2*%
X162175000Y-102019300D02*
X166675000Y-102019300D01*
X166675000Y-95419300D02*
X162175000Y-95419300D01*
D10*
X160465000Y-95288300D02*
G75*
G02*
X160265000Y-95288300I-100000J0D01*
G01*
X160265000Y-95288300D02*
G75*
G02*
X160465000Y-95288300I100000J0D01*
G01*
D16*
%TO.C,U3*%
X162175000Y-114929000D02*
X166675000Y-114929000D01*
X166675000Y-108329000D02*
X162175000Y-108329000D01*
D10*
X160465000Y-108198000D02*
G75*
G02*
X160265000Y-108198000I-100000J0D01*
G01*
X160265000Y-108198000D02*
G75*
G02*
X160465000Y-108198000I100000J0D01*
G01*
D14*
%TO.C,R2*%
X162979600Y-67288400D02*
X162979600Y-68608400D01*
X162979600Y-68608400D02*
X163939600Y-68608400D01*
X163939600Y-67288400D02*
X162979600Y-67288400D01*
X164799600Y-67288400D02*
X165759600Y-67288400D01*
X165759600Y-67288400D02*
X165759600Y-68608400D01*
X165759600Y-68608400D02*
X164799600Y-68608400D01*
D16*
%TO.C,Q1*%
X177739000Y-73889800D02*
X177739000Y-70439800D01*
X173799000Y-72164800D02*
G75*
G02*
X176219000Y-69689801I2447501J27499D01*
G01*
X176219000Y-69689800D02*
G75*
G02*
X177739000Y-70439800I-219130J-2359370D01*
G01*
X176219000Y-74639799D02*
G75*
G02*
X173799000Y-72164800I27501J2447500D01*
G01*
X177739000Y-73889800D02*
G75*
G02*
X176219000Y-74639800I-1739131J1609372D01*
G01*
D10*
X178369000Y-73414800D02*
G75*
G02*
X178169000Y-73414800I-100000J0D01*
G01*
X178169000Y-73414800D02*
G75*
G02*
X178369000Y-73414800I100000J0D01*
G01*
%TD*%
M02*
