%TF.GenerationSoftware,KiCad,Pcbnew,8.0.1*%
%TF.CreationDate,2024-04-22T15:40:42-03:00*%
%TF.ProjectId,pico-msxcart,7069636f-2d6d-4737-9863-6172742e6b69,rev?*%
%TF.SameCoordinates,Original*%
%TF.FileFunction,Paste,Top*%
%TF.FilePolarity,Positive*%
%FSLAX46Y46*%
G04 Gerber Fmt 4.6, Leading zero omitted, Abs format (unit mm)*
G04 Created by KiCad (PCBNEW 8.0.1) date 2024-04-22 15:40:42*
%MOMM*%
%LPD*%
G01*
G04 APERTURE LIST*
G04 Aperture macros list*
%AMRoundRect*
0 Rectangle with rounded corners*
0 $1 Rounding radius*
0 $2 $3 $4 $5 $6 $7 $8 $9 X,Y pos of 4 corners*
0 Add a 4 corners polygon primitive as box body*
4,1,4,$2,$3,$4,$5,$6,$7,$8,$9,$2,$3,0*
0 Add four circle primitives for the rounded corners*
1,1,$1+$1,$2,$3*
1,1,$1+$1,$4,$5*
1,1,$1+$1,$6,$7*
1,1,$1+$1,$8,$9*
0 Add four rect primitives between the rounded corners*
20,1,$1+$1,$2,$3,$4,$5,0*
20,1,$1+$1,$4,$5,$6,$7,0*
20,1,$1+$1,$6,$7,$8,$9,0*
20,1,$1+$1,$8,$9,$2,$3,0*%
G04 Aperture macros list end*
%ADD10RoundRect,0.444500X0.190500X-4.000500X0.190500X4.000500X-0.190500X4.000500X-0.190500X-4.000500X0*%
%ADD11RoundRect,0.444500X-0.190500X4.000500X-0.190500X-4.000500X0.190500X-4.000500X0.190500X4.000500X0*%
%ADD12R,0.810000X0.860000*%
%ADD13R,1.560000X0.410000*%
%ADD14R,0.410000X1.560000*%
%ADD15R,0.980000X2.470000*%
%ADD16R,3.600000X2.470000*%
%ADD17R,2.800000X1.100000*%
%ADD18R,1.400000X1.200000*%
G04 APERTURE END LIST*
D10*
%TO.C,J1*%
X176784000Y-123698000D03*
X174244000Y-123698000D03*
X171704000Y-123698000D03*
X169164000Y-123698000D03*
X166624000Y-123698000D03*
X164084000Y-123698000D03*
X161544000Y-123698000D03*
X159004000Y-123698000D03*
D11*
X156464000Y-123698000D03*
X153924000Y-123698000D03*
X151384000Y-123698000D03*
X148844000Y-123698000D03*
X146304000Y-123698000D03*
X143764000Y-123698000D03*
X141224000Y-123698000D03*
X138684000Y-123698000D03*
X136144000Y-123698000D03*
X133604000Y-123698000D03*
D10*
X131064000Y-123698000D03*
X128524000Y-123698000D03*
X125984000Y-123698000D03*
X123444000Y-123698000D03*
X120904000Y-123698000D03*
X118364000Y-123698000D03*
X115824000Y-123698000D03*
%TD*%
D12*
%TO.C,R1*%
X171265000Y-72164800D03*
X172765000Y-72164800D03*
%TD*%
D13*
%TO.C,U6*%
X161340800Y-69545200D03*
X161340800Y-70195200D03*
X161340800Y-70845200D03*
X161340800Y-71495200D03*
X161340800Y-72145200D03*
X161340800Y-72795200D03*
X161340800Y-73445200D03*
X161340800Y-74095200D03*
X161340800Y-74745200D03*
X161340800Y-75395200D03*
X167100800Y-75395200D03*
X167100800Y-74745200D03*
X167100800Y-74095200D03*
X167100800Y-73445200D03*
X167100800Y-72795200D03*
X167100800Y-72145200D03*
X167100800Y-71495200D03*
X167100800Y-70845200D03*
X167100800Y-70195200D03*
X167100800Y-69545200D03*
%TD*%
D14*
%TO.C,U4*%
X112727200Y-85167200D03*
X112077200Y-85167200D03*
X111427200Y-85167200D03*
X110777200Y-85167200D03*
X110127200Y-85167200D03*
X109477200Y-85167200D03*
X108827200Y-85167200D03*
X108177200Y-85167200D03*
X107527200Y-85167200D03*
X106877200Y-85167200D03*
X106877200Y-90927200D03*
X107527200Y-90927200D03*
X108177200Y-90927200D03*
X108827200Y-90927200D03*
X109477200Y-90927200D03*
X110127200Y-90927200D03*
X110777200Y-90927200D03*
X111427200Y-90927200D03*
X112077200Y-90927200D03*
X112727200Y-90927200D03*
%TD*%
D15*
%TO.C,U10*%
X110018000Y-102297200D03*
X107718000Y-102297200D03*
X105418000Y-102297200D03*
D16*
X107718000Y-107957200D03*
%TD*%
D13*
%TO.C,U5*%
X161372000Y-94876500D03*
X161372000Y-95526500D03*
X161372000Y-96176500D03*
X161372000Y-96826500D03*
X161372000Y-97476500D03*
X161372000Y-98126500D03*
X161372000Y-98776500D03*
X161372000Y-99426500D03*
X161372000Y-100076500D03*
X161372000Y-100726500D03*
X167132000Y-100726500D03*
X167132000Y-100076500D03*
X167132000Y-99426500D03*
X167132000Y-98776500D03*
X167132000Y-98126500D03*
X167132000Y-97476500D03*
X167132000Y-96826500D03*
X167132000Y-96176500D03*
X167132000Y-95526500D03*
X167132000Y-94876500D03*
%TD*%
D17*
%TO.C,C2*%
X104528400Y-97637600D03*
X107848400Y-97637600D03*
%TD*%
D18*
%TO.C,D1*%
X118567200Y-111126800D03*
X118567200Y-114526800D03*
%TD*%
D17*
%TO.C,C1*%
X112199200Y-97637600D03*
X115519200Y-97637600D03*
%TD*%
D13*
%TO.C,U2*%
X167151600Y-88004900D03*
X167151600Y-87354900D03*
X167151600Y-86704900D03*
X167151600Y-86054900D03*
X167151600Y-85404900D03*
X167151600Y-84754900D03*
X167151600Y-84104900D03*
X167151600Y-83454900D03*
X167151600Y-82804900D03*
X167151600Y-82154900D03*
X161391600Y-82154900D03*
X161391600Y-82804900D03*
X161391600Y-83454900D03*
X161391600Y-84104900D03*
X161391600Y-84754900D03*
X161391600Y-85404900D03*
X161391600Y-86054900D03*
X161391600Y-86704900D03*
X161391600Y-87354900D03*
X161391600Y-88004900D03*
%TD*%
%TO.C,U3*%
X166807000Y-113336200D03*
X166807000Y-112686200D03*
X166807000Y-112036200D03*
X166807000Y-111386200D03*
X166807000Y-110736200D03*
X166807000Y-110086200D03*
X166807000Y-109436200D03*
X166807000Y-108786200D03*
X166807000Y-108136200D03*
X166807000Y-107486200D03*
X161047000Y-107486200D03*
X161047000Y-108136200D03*
X161047000Y-108786200D03*
X161047000Y-109436200D03*
X161047000Y-110086200D03*
X161047000Y-110736200D03*
X161047000Y-111386200D03*
X161047000Y-112036200D03*
X161047000Y-112686200D03*
X161047000Y-113336200D03*
%TD*%
D12*
%TO.C,R2*%
X165119600Y-67948400D03*
X163619600Y-67948400D03*
%TD*%
M02*
