M48
; DRILL file {KiCad 8.0.1} date 2024-04-23T05:18:17-0300
; FORMAT={-:-/ absolute / inch / decimal}
; #@! TF.CreationDate,2024-04-23T05:18:17-03:00
; #@! TF.GenerationSoftware,Kicad,Pcbnew,8.0.1
; #@! TF.FileFunction,Plated,1,2,PTH
FMAT,2
INCH
; #@! TA.AperFunction,Plated,PTH,ViaDrill
T1C0.0118
; #@! TA.AperFunction,Plated,PTH,ComponentDrill
T2C0.0320
; #@! TA.AperFunction,Plated,PTH,ComponentDrill
T3C0.0331
; #@! TA.AperFunction,Plated,PTH,ComponentDrill
T4C0.0362
; #@! TA.AperFunction,Plated,PTH,ComponentDrill
T5C0.0394
; #@! TA.AperFunction,Plated,PTH,ComponentDrill
T6C0.0906
%
G90
G05
T1
X4.9746Y-3.0341
X5.0178Y-4.574
X5.076Y-4.638
X5.2248Y-4.3073
X5.2479Y-3.7792
X5.2908Y-4.6798
X5.2909Y-3.7011
X5.3067Y-4.5874
X5.3158Y-4.7752
X5.4061Y-4.4638
X5.4403Y-2.8771
X5.4417Y-3.9888
X5.4586Y-3.3187
X5.47Y-2.9568
X5.4714Y-4.6696
X5.4739Y-4.0093
X5.4803Y-2.8791
X5.5104Y-4.4625
X5.5152Y-4.7162
X5.5295Y-3.9981
X5.541Y-4.0733
X5.5435Y-4.2993
X5.5543Y-4.1136
X5.5605Y-4.6953
X5.5736Y-4.4834
X5.6174Y-4.2247
X5.6636Y-4.7635
X5.6751Y-3.556
X5.6942Y-3.9219
X5.6967Y-4.7647
X5.7199Y-3.1114
X5.726Y-3.4549
X5.7504Y-4.7563
X5.7642Y-2.9958
X5.7863Y-4.7881
X5.8011Y-4.1996
X5.8676Y-4.751
X5.9549Y-3.5485
X5.9635Y-4.7565
X5.9833Y-3.6003
X5.9993Y-3.9749
X6.0071Y-4.1005
X6.009Y-3.3119
X6.0147Y-4.4739
X6.039Y-4.4497
X6.0561Y-3.5454
X6.0602Y-3.2888
X6.0643Y-4.7667
X6.0698Y-3.7477
X6.0715Y-4.4175
X6.085Y-3.4541
X6.1088Y-3.6879
X6.1134Y-4.4344
X6.1167Y-4.1268
X6.1236Y-3.3911
X6.1395Y-3.8834
X6.1486Y-3.2057
X6.149Y-4.1849
X6.1625Y-4.7417
X6.1733Y-3.1531
X6.1811Y-4.2155
X6.1879Y-3.4765
X6.1941Y-4.7403
X6.2012Y-4.3825
X6.2129Y-3.3607
X6.2163Y-2.8646
X6.2237Y-4.5016
X6.232Y-3.8487
X6.2322Y-4.3586
X6.233Y-4.55
X6.2342Y-3.703
X6.2407Y-3.2652
X6.2545Y-3.8002
X6.2562Y-4.331
X6.2575Y-2.7287
X6.2745Y-3.8987
X6.2802Y-3.6001
X6.2831Y-3.5618
X6.3034Y-3.7696
X6.3073Y-3.5077
X6.3082Y-4.0117
X6.3086Y-4.51
X6.3091Y-2.9085
X6.3269Y-3.6339
X6.3281Y-3.2033
X6.3962Y-2.7258
X6.4106Y-2.9341
X6.411Y-3.1822
X6.4111Y-3.7306
X6.4121Y-4.279
X6.4123Y-4.7799
X6.4176Y-3.4195
X6.4214Y-2.8632
X6.4346Y-3.0365
X6.4393Y-2.9972
X6.4428Y-3.8245
X6.4462Y-2.755
X6.4506Y-3.2866
X6.4531Y-3.4738
X6.4531Y-3.6805
X6.4554Y-4.7239
X6.4586Y-3.0587
X6.4689Y-3.8056
X6.506Y-2.7987
X6.5086Y-4.4975
X6.5104Y-2.9085
X6.5363Y-2.8654
X6.5559Y-3.0403
X6.6112Y-3.6694
X6.6186Y-4.5501
X6.6381Y-4.51
X6.6402Y-4.3183
X6.6404Y-2.8913
X6.6426Y-4.428
X6.6429Y-3.8226
X6.6507Y-2.9604
X6.6538Y-3.9456
X6.6572Y-3.318
X6.6587Y-3.3916
X6.6587Y-3.9043
X6.6745Y-3.4392
X6.6832Y-4.7337
X6.7004Y-2.9561
X6.7023Y-4.1966
X6.7099Y-4.1606
X6.9523Y-3.2451
X7.0922Y-4.1904
T2
X4.435Y-4.5105
X4.685Y-4.5095
T3
X6.9277Y-2.7911
X6.9277Y-2.8411
X6.9277Y-2.8911
T4
X4.3535Y-3.1227
X4.452Y-3.1227
X4.5307Y-3.1227
X4.6291Y-3.1227
T5
X5.132Y-2.656
X5.132Y-2.756
X5.132Y-2.856
X5.132Y-2.956
X5.132Y-3.056
X5.132Y-3.156
X5.132Y-3.256
X5.132Y-3.356
X5.132Y-3.456
X5.132Y-3.556
X5.132Y-3.656
X5.132Y-3.756
X5.132Y-3.856
X5.132Y-3.956
X5.132Y-4.056
X5.132Y-4.156
X5.132Y-4.256
X5.132Y-4.356
X5.132Y-4.456
X5.132Y-4.556
X5.832Y-2.656
X5.832Y-2.756
X5.832Y-2.856
X5.832Y-2.956
X5.832Y-3.056
X5.832Y-3.156
X5.832Y-3.256
X5.832Y-3.356
X5.832Y-3.456
X5.832Y-3.556
X5.832Y-3.656
X5.832Y-3.756
X5.832Y-3.856
X5.832Y-3.956
X5.832Y-4.056
X5.832Y-4.156
X5.832Y-4.256
X5.832Y-4.356
X5.832Y-4.456
X5.832Y-4.556
T6
X4.2327Y-3.016
X4.75Y-3.016
M30
